<svg width="35" height="35" viewBox="0 0 35 35" fill="none" xmlns="http://www.w3.org/2000/svg">
<g clip-path="url(#clip0_397_9597)">
<path d="M21.8752 35H13.1252V29.8769C11.6045 29.3388 10.1961 28.5251 8.97042 27.4764L4.53125 30.0417L0.15625 22.4583L4.59396 19.8989C4.30245 18.3129 4.30245 16.687 4.59396 15.101L0.15625 12.5417L4.53125 4.95832L8.97042 7.52353C10.1961 6.47488 11.6045 5.66114 13.1252 5.12311V-1.52588e-05H21.8752V5.12311C23.3959 5.66114 24.8043 6.47488 26.03 7.52353L30.4692 4.95832L34.8442 12.5417L30.4065 15.101C30.698 16.687 30.698 18.3129 30.4065 19.8989L34.8442 22.4583L30.4692 30.0417L26.03 27.4779C24.8042 28.526 23.3958 29.3393 21.8752 29.8769V35ZM16.0419 32.0833H18.9585V27.6689L20.0538 27.386C21.8504 26.9206 23.4858 25.9731 24.7831 24.6458L25.575 23.8394L29.4002 26.0487L30.8585 23.5229L27.0377 21.3164L27.3381 20.2285C27.832 18.4391 27.832 16.5492 27.3381 14.7598L27.0377 13.6719L30.8585 11.4654L29.4002 8.93957L25.575 11.1548L24.7831 10.3542C23.4851 9.02903 21.8498 8.08356 20.0538 7.61978L18.9585 7.33103V2.91665H16.0419V7.33103L14.9467 7.61394C13.15 8.07937 11.5146 9.0269 10.2173 10.3542L9.42542 11.1606L5.60021 8.9454L4.14187 11.4712L7.96271 13.6777L7.66229 14.7656C7.16844 16.5551 7.16844 18.4449 7.66229 20.2344L7.96271 21.3223L4.14187 23.5287L5.60021 26.0546L9.42542 23.8452L10.2173 24.6517C11.5153 25.9768 13.1506 26.9222 14.9467 27.386L16.0419 27.6689V32.0833ZM17.5002 23.3333C16.3465 23.3333 15.2187 22.9912 14.2594 22.3502C13.3001 21.7092 12.5524 20.7982 12.1109 19.7323C11.6694 18.6664 11.5539 17.4935 11.779 16.362C12.004 15.2304 12.5596 14.191 13.3754 13.3752C14.1912 12.5594 15.2306 12.0038 16.3622 11.7787C17.4937 11.5537 18.6666 11.6692 19.7325 12.1107C20.7984 12.5522 21.7095 13.2999 22.3504 14.2592C22.9914 15.2184 23.3335 16.3463 23.3335 17.5C23.3335 19.0471 22.719 20.5308 21.625 21.6248C20.531 22.7187 19.0473 23.3333 17.5002 23.3333ZM17.5002 14.5833C16.9233 14.5833 16.3594 14.7544 15.8798 15.0749C15.4002 15.3954 15.0263 15.8509 14.8056 16.3838C14.5848 16.9168 14.527 17.5032 14.6396 18.069C14.7521 18.6348 15.0299 19.1545 15.4378 19.5624C15.8457 19.9703 16.3654 20.2481 16.9312 20.3606C17.497 20.4732 18.0834 20.4154 18.6164 20.1946C19.1493 19.9739 19.6048 19.6 19.9253 19.1204C20.2458 18.6408 20.4169 18.0768 20.4169 17.5C20.4169 16.7264 20.1096 15.9846 19.5626 15.4376C19.0156 14.8906 18.2738 14.5833 17.5002 14.5833Z" fill="#BA5149"/>
</g>
<defs>
<clipPath id="clip0_397_9597">
<rect width="35" height="35" fill="white"/>
</clipPath>
</defs>
</svg>
