<svg width="35" height="35" viewBox="0 0 35 35" fill="none" xmlns="http://www.w3.org/2000/svg">
<g clip-path="url(#clip0_350_204)">
<path d="M21.8757 35H13.1257V29.8769C11.605 29.3388 10.1966 28.5251 8.97091 27.4764L4.53174 30.0417L0.156738 22.4583L4.59445 19.8989C4.30294 18.3129 4.30294 16.687 4.59445 15.101L0.156738 12.5417L4.53174 4.95832L8.97091 7.52353C10.1966 6.47488 11.605 5.66114 13.1257 5.12311V-1.52588e-05H21.8757V5.12311C23.3964 5.66114 24.8048 6.47488 26.0305 7.52353L30.4697 4.95832L34.8447 12.5417L30.4069 15.101C30.6985 16.687 30.6985 18.3129 30.4069 19.8989L34.8447 22.4583L30.4697 30.0417L26.0305 27.4779C24.8047 28.526 23.3963 29.3393 21.8757 29.8769V35ZM16.0424 32.0833H18.959V27.6689L20.0542 27.386C21.8509 26.9206 23.4863 25.9731 24.7836 24.6458L25.5755 23.8394L29.4007 26.0487L30.859 23.5229L27.0382 21.3164L27.3386 20.2285C27.8325 18.4391 27.8325 16.5492 27.3386 14.7598L27.0382 13.6719L30.859 11.4654L29.4007 8.93957L25.5755 11.1548L24.7836 10.3542C23.4856 9.02903 21.8503 8.08356 20.0542 7.61978L18.959 7.33103V2.91665H16.0424V7.33103L14.9472 7.61394C13.1505 8.07937 11.5151 9.0269 10.2178 10.3542L9.42591 11.1606L5.6007 8.9454L4.14236 11.4712L7.9632 13.6777L7.66278 14.7656C7.16893 16.5551 7.16893 18.4449 7.66278 20.2344L7.9632 21.3223L4.14236 23.5287L5.6007 26.0546L9.42591 23.8452L10.2178 24.6517C11.5158 25.9768 13.1511 26.9222 14.9472 27.386L16.0424 27.6689V32.0833ZM17.5007 23.3333C16.347 23.3333 15.2192 22.9912 14.2599 22.3502C13.3006 21.7092 12.5529 20.7982 12.1114 19.7323C11.6699 18.6664 11.5544 17.4935 11.7794 16.362C12.0045 15.2304 12.5601 14.191 13.3759 13.3752C14.1917 12.5594 15.2311 12.0038 16.3627 11.7787C17.4942 11.5537 18.6671 11.6692 19.733 12.1107C20.7989 12.5522 21.71 13.2999 22.3509 14.2592C22.9919 15.2184 23.334 16.3463 23.334 17.5C23.334 19.0471 22.7194 20.5308 21.6255 21.6248C20.5315 22.7187 19.0478 23.3333 17.5007 23.3333ZM17.5007 14.5833C16.9238 14.5833 16.3599 14.7544 15.8803 15.0749C15.4006 15.3954 15.0268 15.8509 14.806 16.3838C14.5853 16.9168 14.5275 17.5032 14.6401 18.069C14.7526 18.6348 15.0304 19.1545 15.4383 19.5624C15.8462 19.9703 16.3659 20.2481 16.9317 20.3606C17.4975 20.4732 18.0839 20.4154 18.6169 20.1946C19.1498 19.9739 19.6053 19.6 19.9258 19.1204C20.2463 18.6408 20.4174 18.0768 20.4174 17.5C20.4174 16.7264 20.1101 15.9846 19.5631 15.4376C19.0161 14.8906 18.2742 14.5833 17.5007 14.5833Z" fill="#A2A2A2"/>
</g>
<defs>
<clipPath id="clip0_350_204">
<rect width="35" height="35" fill="white"/>
</clipPath>
</defs>
</svg>
