<svg width="35" height="35" viewBox="0 0 35 35" fill="none" xmlns="http://www.w3.org/2000/svg">
<g clip-path="url(#clip0_350_143)">
<path d="M1.51225 8.58799L-0.00878906 6.10883L9.81309 0.0902863L11.3327 2.5782L1.51225 8.58799ZM32.4829 23.6497L26.4673 33.3957L28.9464 34.9284L34.962 25.1809L32.4829 23.6497ZM30.5141 21.2915L23.3333 32.9334C23.006 33.4877 22.5557 33.9593 22.0171 34.3118C21.4785 34.6643 20.866 34.8883 20.227 34.9663C20.0432 34.9886 19.8581 34.9998 19.6729 34.9999C19.1165 35.0003 18.5656 34.8904 18.052 34.6767C17.5383 34.4629 17.0722 34.1495 16.6804 33.7545L15.276 32.3501C13.9417 33.284 12.3211 33.7179 10.6987 33.5756C9.07631 33.4333 7.55593 32.7239 6.40459 31.5721C5.25324 30.4202 4.54456 28.8995 4.40301 27.277C4.26147 25.6546 4.6961 24.0341 5.63059 22.7003L1.24392 18.3122C0.79893 17.8672 0.458443 17.3288 0.247101 16.736C0.0357587 16.1433 -0.0411511 15.5109 0.0219378 14.8848C0.0850268 14.2586 0.286536 13.6544 0.611882 13.1157C0.937227 12.577 1.37827 12.1174 1.90309 11.7701L13.2227 4.84299C15.3627 3.47139 17.8778 2.80278 20.4164 2.93064C22.955 3.0585 25.3903 3.97643 27.3816 5.55612L30.1408 2.79695L32.2029 4.85904L29.432 7.62987C30.9447 9.54408 31.855 11.8643 32.0477 14.2964C32.2403 16.7285 31.7066 19.1631 30.5141 21.2915ZM13.1395 30.2136L7.75538 24.8251C7.3549 25.5787 7.20827 26.4415 7.33727 27.2851C7.46627 28.1287 7.86402 28.9083 8.47142 29.5078C9.08339 30.0897 9.85938 30.4695 10.6943 30.5957C11.5293 30.722 12.3829 30.5886 13.1395 30.2136ZM26.4395 8.60404C24.935 7.08783 22.9559 6.13356 20.8327 5.90053C18.7094 5.6675 16.5705 6.16982 14.7729 7.32362L3.46788 14.2303C3.31321 14.3384 3.18427 14.4792 3.09025 14.6428C2.99623 14.8064 2.93944 14.9887 2.92392 15.1767C2.90286 15.3729 2.92628 15.5712 2.99243 15.757C3.05858 15.9429 3.16576 16.1114 3.306 16.2501L18.7439 31.6924C18.8856 31.8382 19.0596 31.9485 19.252 32.0144C19.4443 32.0803 19.6495 32.0999 19.8508 32.0715C20.0523 32.0472 20.2454 31.9764 20.4149 31.8648C20.5845 31.7532 20.7258 31.6039 20.8279 31.4284L28.0029 19.8011C28.9924 18.0178 29.375 15.9611 29.093 13.9412C28.811 11.9214 27.8796 10.0481 26.4395 8.60404Z" fill="#A2A2A2"/>
</g>
<defs>
<clipPath id="clip0_350_143">
<rect width="35" height="35" fill="white"/>
</clipPath>
</defs>
</svg>
