<svg width="35" height="35" viewBox="0 0 35 35" fill="none" xmlns="http://www.w3.org/2000/svg">
<g clip-path="url(#clip0_350_211)">
<path d="M34.9999 17.5003C35.0012 13.3641 33.5304 9.36237 30.851 6.21136L32.1051 4.95719L30.0416 2.89511L28.7874 4.14928C25.6357 1.47094 21.6345 0.000411987 17.4984 0.000411987C13.3624 0.000411987 9.36117 1.47094 6.20949 4.14928L4.95532 2.89511L2.8947 4.95865L4.14887 6.21282C1.47053 9.3645 0 13.3658 0 17.5018C0 21.6378 1.47053 25.6391 4.14887 28.7907L2.8947 30.0449L4.95824 32.1055L6.21241 30.8514C9.36408 33.5297 13.3654 35.0002 17.5014 35.0002C21.6374 35.0002 25.6387 33.5297 28.7903 30.8514L30.0445 32.1055L32.1051 30.042L30.851 28.7878C33.5301 25.6372 35.0008 21.6361 34.9999 17.5003ZM32.0832 17.5003C32.0859 20.8639 30.9199 24.124 28.7845 26.7228L23.5768 21.5151C24.3689 20.326 24.7915 18.9291 24.7915 17.5003C24.7915 16.0715 24.3689 14.6747 23.5768 13.4855L28.7845 8.27782C30.9199 10.8767 32.0859 14.1367 32.0832 17.5003ZM13.1249 17.5003C13.1249 16.635 13.3815 15.7892 13.8622 15.0697C14.343 14.3502 15.0262 13.7895 15.8257 13.4583C16.6251 13.1272 17.5048 13.0406 18.3534 13.2094C19.2021 13.3782 19.9816 13.7949 20.5935 14.4067C21.2054 15.0186 21.622 15.7981 21.7908 16.6468C21.9597 17.4955 21.873 18.3751 21.5419 19.1746C21.2107 19.974 20.65 20.6573 19.9305 21.138C19.2111 21.6187 18.3652 21.8753 17.4999 21.8753C16.3396 21.8753 15.2268 21.4144 14.4063 20.5939C13.5858 19.7734 13.1249 18.6606 13.1249 17.5003ZM17.4999 2.91699C20.8635 2.9143 24.1236 4.08037 26.7224 6.21574L21.5147 11.4234C20.3256 10.6314 18.9287 10.2087 17.4999 10.2087C16.0711 10.2087 14.6743 10.6314 13.4851 11.4234L8.27741 6.21574C10.8763 4.08037 14.1363 2.9143 17.4999 2.91699ZM2.91657 17.5003C2.91389 14.1367 4.07996 10.8767 6.21532 8.27782L11.423 13.4855C10.631 14.6747 10.2083 16.0715 10.2083 17.5003C10.2083 18.9291 10.631 20.326 11.423 21.5151L6.21532 26.7228C4.07996 24.124 2.91389 20.8639 2.91657 17.5003ZM17.4999 32.0837C14.1363 32.0863 10.8763 30.9203 8.27741 28.7849L13.4851 23.5772C14.6743 24.3693 16.0711 24.7919 17.4999 24.7919C18.9287 24.7919 20.3256 24.3693 21.5147 23.5772L26.7224 28.7849C24.1236 30.9203 20.8635 32.0863 17.4999 32.0837Z" fill="#A2A2A2"/>
</g>
<defs>
<clipPath id="clip0_350_211">
<rect width="35" height="35" fill="white"/>
</clipPath>
</defs>
</svg>
