<svg width="35" height="35" viewBox="0 0 35 35" fill="none" xmlns="http://www.w3.org/2000/svg">
<g clip-path="url(#clip0_349_200)">
<path d="M35.0007 5.8338H10.209V8.75046H35.0007V5.8338Z" fill="#A2A2A2"/>
<path d="M35.0007 16.0412H10.209V18.9579H35.0007V16.0412Z" fill="#A2A2A2"/>
<path d="M35.0007 26.25H10.209V29.1667H35.0007V26.25Z" fill="#A2A2A2"/>
<path d="M2.91667 10.2083C4.5275 10.2083 5.83333 8.90249 5.83333 7.29166C5.83333 5.68083 4.5275 4.375 2.91667 4.375C1.30584 4.375 0 5.68083 0 7.29166C0 8.90249 1.30584 10.2083 2.91667 10.2083Z" fill="#A2A2A2"/>
<path d="M2.91667 20.4171C4.5275 20.4171 5.83333 19.1113 5.83333 17.5005C5.83333 15.8896 4.5275 14.5838 2.91667 14.5838C1.30584 14.5838 0 15.8896 0 17.5005C0 19.1113 1.30584 20.4171 2.91667 20.4171Z" fill="#A2A2A2"/>
<path d="M2.91667 30.6245C4.5275 30.6245 5.83333 29.3187 5.83333 27.7079C5.83333 26.097 4.5275 24.7912 2.91667 24.7912C1.30584 24.7912 0 26.097 0 27.7079C0 29.3187 1.30584 30.6245 2.91667 30.6245Z" fill="#A2A2A2"/>
</g>
<defs>
<clipPath id="clip0_349_200">
<rect width="35" height="35" fill="white"/>
</clipPath>
</defs>
</svg>
