<svg width="35" height="35" viewBox="0 0 35 35" fill="none" xmlns="http://www.w3.org/2000/svg">
<g clip-path="url(#clip0_397_9477)">
<path d="M35 23.3333V35H23.3333C21.2874 34.9979 19.2781 34.4578 17.5068 33.434C15.7355 32.4101 14.2646 30.9385 13.2417 29.1667C14.3411 29.1588 15.4367 29.0376 16.5112 28.805C17.3296 29.8282 18.3677 30.6542 19.5486 31.2217C20.7296 31.7892 22.0231 32.0837 23.3333 32.0833H32.0833V23.3333C32.083 22.0226 31.7876 20.7288 31.2191 19.5478C30.6506 18.3669 29.8235 17.329 28.7992 16.5112C29.0337 15.4369 29.1569 14.3413 29.1667 13.2417C30.9385 14.2646 32.4101 15.7355 33.434 17.5068C34.4578 19.2781 34.9979 21.2874 35 23.3333ZM26.25 13.125C26.25 9.64403 24.8672 6.30564 22.4058 3.84422C19.9444 1.38281 16.606 0 13.125 0C9.64403 0 6.30564 1.38281 3.84422 3.84422C1.38281 6.30564 0 9.64403 0 13.125L0 26.25H13.125C16.6048 26.2461 19.9409 24.8621 22.4015 22.4015C24.8621 19.9409 26.2461 16.6048 26.25 13.125ZM2.91667 13.125C2.91667 11.106 3.51538 9.13231 4.63708 7.45355C5.75879 5.7748 7.35311 4.46637 9.21844 3.69373C11.0838 2.92109 13.1363 2.71893 15.1165 3.11282C17.0968 3.50671 18.9157 4.47896 20.3434 5.90662C21.771 7.33428 22.7433 9.15323 23.1372 11.1335C23.5311 13.1137 23.3289 15.1662 22.5563 17.0316C21.7836 18.8969 20.4752 20.4912 18.7964 21.6129C17.1177 22.7346 15.144 23.3333 13.125 23.3333H2.91667V13.125Z" fill="#BA5149"/>
</g>
<defs>
<clipPath id="clip0_397_9477">
<rect width="35" height="35" fill="white"/>
</clipPath>
</defs>
</svg>
