<svg width="35" height="35" viewBox="0 0 35 35" fill="none" xmlns="http://www.w3.org/2000/svg">
<g clip-path="url(#clip0_397_8049)">
<path d="M34.9998 32.9389L25.8677 23.8069C28.2399 20.9056 29.4062 17.2037 29.1254 13.4666C28.8446 9.72961 27.1382 6.24347 24.3592 3.72928C21.5802 1.2151 17.9411 -0.134757 14.1947 -0.0410859C10.4483 0.0525855 6.88125 1.58262 4.23132 4.23254C1.5814 6.88247 0.0513648 10.4495 -0.0423066 14.1959C-0.135978 17.9423 1.21388 21.5814 3.72806 24.3604C6.24224 27.1395 9.72839 28.8459 13.4654 29.1266C17.2024 29.4074 20.9044 28.2411 23.8056 25.8689L32.9377 35.001L34.9998 32.9389ZM14.5831 26.251C12.2757 26.251 10.0201 25.5668 8.10148 24.2848C6.18291 23.0029 4.68756 21.1808 3.80454 19.049C2.92152 16.9172 2.69048 14.5714 3.14064 12.3083C3.5908 10.0452 4.70195 7.96639 6.33356 6.33478C7.96517 4.70317 10.044 3.59202 12.3071 3.14186C14.5702 2.6917 16.916 2.92274 19.0478 3.80576C21.1796 4.68879 23.0017 6.18413 24.2836 8.10271C25.5656 10.0213 26.2498 12.2769 26.2498 14.5844C26.2463 17.6775 25.0161 20.6429 22.8289 22.8301C20.6417 25.0173 17.6763 26.2476 14.5831 26.251Z" fill="#BA5149"/>
</g>
<defs>
<clipPath id="clip0_397_8049">
<rect width="35" height="35" fill="white"/>
</clipPath>
</defs>
</svg>
