<svg width="35" height="35" viewBox="0 0 35 35" fill="none" xmlns="http://www.w3.org/2000/svg">
<g clip-path="url(#clip0_349_232)">
<path d="M4.375 32.0483C3.98823 32.0483 3.61729 31.8947 3.3438 31.6212C3.07031 31.3477 2.91667 30.9768 2.91667 30.59V0H0V30.59C0 31.7503 0.460936 32.8631 1.28141 33.6836C2.10188 34.5041 3.21468 34.965 4.375 34.965H35V32.0483H4.375Z" fill="#A2A2A2"/>
<path d="M10.2087 17.5H7.29199V27.7083H10.2087V17.5Z" fill="#A2A2A2"/>
<path d="M17.4997 14.5831H14.583V27.7081H17.4997V14.5831Z" fill="#A2A2A2"/>
<path d="M24.7917 18.9581H21.875V27.7081H24.7917V18.9581Z" fill="#A2A2A2"/>
<path d="M32.0837 13.125H29.167V27.7083H32.0837V13.125Z" fill="#A2A2A2"/>
<path d="M16.0415 6.43731L23.3331 13.729L34.5725 2.4896L32.5104 0.427521L23.3331 9.60481L16.0415 2.31315L7.71875 10.6359L9.78083 12.6979L16.0415 6.43731Z" fill="#A2A2A2"/>
</g>
<defs>
<clipPath id="clip0_349_232">
<rect width="35" height="35" fill="white"/>
</clipPath>
</defs>
</svg>
