<svg width="35" height="35" viewBox="0 0 35 35" fill="none" xmlns="http://www.w3.org/2000/svg">
<g clip-path="url(#clip0_397_9399)">
<path d="M25.5211 1.33752C23.8789 1.36307 22.2726 1.82148 20.8643 2.66646C19.4559 3.51145 18.2955 4.71308 17.5002 6.15002C16.7049 4.71308 15.5445 3.51145 14.1362 2.66646C12.7279 1.82148 11.1215 1.36307 9.47939 1.33752C6.8616 1.45126 4.39521 2.59644 2.61907 4.52286C0.842936 6.44929 -0.0985789 9.00037 0.000224004 11.6188C0.000224004 21.499 15.9777 32.9104 16.6573 33.3946L17.5002 33.9911L18.3431 33.3946C19.0227 32.9134 35.0002 21.499 35.0002 11.6188C35.099 9.00037 34.1575 6.44929 32.3814 4.52286C30.6052 2.59644 28.1389 1.45126 25.5211 1.33752ZM17.5002 30.4007C12.7563 26.8569 2.91689 18.1506 2.91689 11.6188C2.8172 9.77357 3.45117 7.9638 4.68055 6.58417C5.90992 5.20454 7.63494 4.36699 9.47939 4.25419C11.3238 4.36699 13.0489 5.20454 14.2782 6.58417C15.5076 7.9638 16.1416 9.77357 16.0419 11.6188H18.9586C18.8589 9.77357 19.4928 7.9638 20.7222 6.58417C21.9516 5.20454 23.6766 4.36699 25.5211 4.25419C27.3655 4.36699 29.0905 5.20454 30.3199 6.58417C31.5493 7.9638 32.1832 9.77357 32.0836 11.6188C32.0836 18.1536 22.2442 26.8569 17.5002 30.4007Z" fill="#BA5149"/>
</g>
<defs>
<clipPath id="clip0_397_9399">
<rect width="35" height="35" fill="white"/>
</clipPath>
</defs>
</svg>
