<svg width="111" height="175" viewBox="0 0 111 175" fill="none" xmlns="http://www.w3.org/2000/svg">
<path d="M43.9375 9.17643C43.8027 6.14539 43.4236 3.05934 43.5668 0.0262729C47.9724 -0.197323 50.3593 0.998047 53.6021 3.92753C58.7866 8.61137 62.1707 14.846 62.5307 21.9101C62.8261 27.709 61.6088 33.173 59.6503 38.5975C58.9156 40.6323 58.1629 42.6149 57.0947 44.5044C58.2141 43.7184 59.3666 42.9652 60.4252 42.098C66.7267 36.9359 73.4424 28.4992 75.871 20.6251C76.1571 19.6975 76.3213 18.7193 76.5125 17.7676C76.8885 15.8957 77.318 14.3054 79.6584 14.7127C80.9928 14.9449 82.2736 15.8297 83.0323 16.9491C85.8299 21.0764 86.011 31.2978 85.0313 36.1305C84.1392 40.5304 81.9572 44.7837 79.8095 48.694C79.0435 50.0887 78.1446 51.4507 77.4862 52.8983C75.7231 56.7752 75.6514 61.3166 76.4706 65.4266C76.8285 67.2218 77.3483 68.953 78.1431 70.6048C78.9275 72.2347 80.0225 73.9093 80.4346 75.6753C82.732 73.9155 87.2156 71.1318 90.1861 71.486C90.6523 71.5416 91.0682 71.7371 91.3517 72.1203C91.9537 72.9337 91.8681 74.4202 91.6999 75.3847C91.2925 77.7208 89.66 79.7142 89.5737 82.133C89.3796 87.5736 94.1643 90.6722 92.8353 97.2363C92.2259 100.246 90.4565 102.714 89.1398 105.427C88.4399 106.868 87.9352 108.403 87.4246 109.92C88.0541 109.017 88.6726 108.086 89.4069 107.266C90.3782 106.181 91.5356 105.297 92.5578 104.266C94.5123 102.294 97.5182 98.4557 98.3599 95.8686C98.6567 94.9563 98.7826 93.8337 98.8076 92.8751C98.8358 91.7875 98.4002 87.0562 98.8412 86.4059C98.9717 86.2132 99.3644 86.1814 99.5785 86.1452C101.328 85.8503 103.579 87.0944 104.949 88.0893C107.35 89.8333 109.135 92.8859 109.584 95.8045C110.703 103.08 107.765 108.026 105.68 114.606C105.072 116.528 104.541 118.497 104.416 120.516C104.086 125.848 105.44 130.208 107.451 135.064C108.023 136.444 108.702 137.796 109.188 139.209C111.039 144.596 111.288 151.566 109.004 156.866C108.302 158.494 107.297 159.938 106.248 161.358C101.54 167.731 95.9121 171.938 88.6043 173.532L27.4324 174.241C25.455 173.97 23.0386 173.093 21.1233 172.415C13.1135 169.575 6.36184 162.277 3.5233 154.35C1.83712 149.642 1.75634 143.607 2.39572 138.672C2.85679 134.232 4.45221 130.201 6.0492 126.074C6.68097 124.301 7.64896 122.417 7.58707 120.469C7.39294 114.361 4.90558 109.539 2.85116 103.75C0.248251 96.4166 -3.21311 75.0606 6.04939 74.0322C6.51067 73.981 8.60449 81.8385 11.6045 86.0322C13.6045 90.0322 13.4674 89.3186 14.276 91.3102C16.0946 95.789 20.3281 98.496 22.8892 102.451L22.9223 102.504C22.809 100.175 22.8312 97.8659 22.1782 95.602C21.2359 92.3347 19.3789 89.4342 17.6728 86.525C16.7688 84.9837 15.8344 83.4558 15.0704 81.8385C12.2624 75.9981 11.2683 69.4506 12.2159 63.04C12.7523 59.6306 14.0277 56.0494 15.6126 52.9794C18.8929 46.6261 23.5283 41.0211 24.5775 33.7224C24.9033 31.4563 24.9144 28.9101 24.4033 26.6701C24.2127 25.8385 23.9335 25.0296 23.5705 24.2575C22.9143 22.8697 20.8664 20.0075 22.1798 18.5244C22.8018 17.8219 23.9791 17.6794 24.8695 17.6431C29.2039 17.4663 32.4248 19.5164 35.4882 22.362C37.6742 24.3927 39.1864 26.4426 40.5528 29.093C43.488 23.1357 44.2303 15.7601 43.9375 9.17643Z" fill="black"/>
<path d="M48.7585 10.2474C48.6198 9.24932 48.2927 7.48008 48.0411 6.49902C53.4703 11.1643 56.4123 18.0004 56.949 25.0717C57.3457 29.7065 56.5799 34.367 54.7211 38.6313C53.9255 40.4784 52.7835 42.7643 52.1405 44.6016C50.6097 48.9642 50.0381 53.6056 50.4642 58.2091C50.6744 61.0784 51.331 63.8973 52.4102 66.564C55.5078 74.044 61.9819 80.8146 61.7914 89.4498C61.6502 95.8505 58.1819 101.089 55.2606 106.532L39.8459 109.532C40.4992 107.789 41.2367 106.109 42.1146 104.115C44.4083 98.5395 46.2023 92.6087 45.2054 86.5281C44.24 80.6402 40.8668 75.6501 38.2579 70.4032C35.5527 64.9626 33.1584 59.912 33.9634 53.6494C35.387 42.5734 45.4886 35.4248 47.8661 24.5969C48.6141 21.1824 48.9949 17.9354 48.9262 14.4358C48.8996 13.0843 48.6813 11.5306 48.7585 10.2474Z" fill="#993331"/>
<path d="M40.2436 52.3222C40.9965 49.2416 43.7728 42.4315 46.431 40.824C46.8858 40.9735 47.3798 41.2006 47.5957 41.6616C47.7677 42.0285 47.7017 42.4369 47.5576 42.7991C47.1241 43.8884 46.2382 44.8926 45.6081 45.8844C44.8162 47.1303 44.2042 48.5504 43.6941 49.9323C42.7069 52.6072 42.3002 55.3839 42.2735 58.2299C42.2068 65.3051 45.0933 70.6617 48.3752 76.6917C49.1519 78.1188 49.9916 79.5136 50.6685 80.9924C53.8207 87.8773 54.8318 92.7753 52.1913 100.104C51.6656 101.563 51.1418 103.028 50.428 104.409C49.9981 105.24 49.5528 106.06 49.1045 106.878L46.1045 107.253C46.9167 105.699 47.7451 104.141 48.5146 102.533C49.0835 101.345 49.6979 100.143 50.1363 98.8991C50.8709 96.8154 51.0843 94.453 51.0758 92.2564C51.0619 88.642 49.951 85.8029 48.4634 82.581C43.6912 72.2451 37.2495 64.5754 40.2436 52.3222Z" fill="black"/>
<path d="M36.6286 34.2381C35.0255 28.6712 32.1988 25.3214 27.2323 22.556C27.9161 23.7371 28.829 26.0633 29.4063 27.4061C29.1395 28.6345 29.6833 30.6575 29.5767 32.0355C29.0824 38.418 26.6024 44.6527 23.6424 50.2255L23.5788 50.3451C20.5689 56.0118 17.4846 61.8187 16.8827 68.2554C15.9558 77.7959 22.6819 83.174 26.218 91.1158C28.2863 96.4501 28.2569 103.942 26.4728 109.325C25.4508 112.408 23.2023 115.68 21.7946 118.654C17.4313 127.875 17.6646 138.369 23.0016 147.132C26.3484 152.627 20.2946 137.032 23.6045 138.532C21.7946 132.532 24.0098 134.032 25.1045 130.032C26.4728 125.032 26.6049 126.173 28.6045 122.032C32.6045 115.743 34.0118 115.321 36.1045 114.032L36.139 113.857C36.7175 110.91 36.8549 110.211 38.1142 107.416C38.7953 105.886 39.2531 104.125 39.91 102.61C41.7115 98.4524 42.861 94.7093 42.8731 90.1266C42.8852 85.5611 41.7624 82.8885 39.779 78.9314C38.5191 76.4179 37.2268 73.9603 35.7939 71.5212C32.7582 65.4131 29.9916 57.6514 31.7603 50.8424C32.4871 48.0447 33.5806 45.7281 34.8961 43.1952C35.4443 42.3115 35.974 41.4163 36.485 40.5105C37.767 38.2123 37.3335 36.686 36.6286 34.2381Z" fill="#993331"/>
<path d="M27.2324 22.556C32.199 25.3214 35.0257 28.6712 36.6287 34.2381C37.3336 36.686 37.7672 38.2123 36.4851 40.5105C35.9742 41.4163 35.4444 42.3115 34.8962 43.1952C34.6368 42.7752 34.7569 39.9457 34.7566 39.1952C34.7543 34.2046 32.4364 31.4035 29.4064 27.4061C28.8292 26.0633 27.9163 23.7371 27.2324 22.556Z" fill="#FEFEFE"/>
<path d="M76.7059 31.0565C77.4412 29.633 77.9981 28.2186 78.7836 26.7974C79.1988 25.5047 79.7177 23.834 80.4996 22.7225C80.4567 24.3095 80.6965 26.0392 80.7899 27.6331C80.9634 30.5985 80.855 34.2452 80.041 37.0903C77.7233 45.192 69.635 49.0907 69.5781 58.1412C69.4538 63.812 71.8021 69.1753 74.0142 74.2775C74.7027 75.8656 75.7042 77.5505 76.3218 79.1994C77.8389 83.3347 79.6138 88.0321 79.075 92.4984C78.7437 95.2447 77.7206 98.3208 76.4384 100.799C74.4838 104.576 71.1245 108.08 69.4675 112.032L57.6044 107.531C58.1748 106.523 58.9085 105.297 59.2797 104.63C66.2694 92.0727 66.1433 86.1675 59.0199 73.5259C57.8796 71.5025 55.3901 67.2846 54.8353 65.0539C51.9311 53.3774 65.8882 45.1658 72.2599 37.6419C73.9729 35.6119 75.4634 33.4042 76.7059 31.0565Z" fill="#993331"/>
<path d="M56.9099 169.08C62.5011 168.959 66.2555 166.094 69.2974 161.671C70.1322 160.208 71.2473 158.604 71.7461 157.063C73.0188 162.059 71.4786 164.937 69.2779 169.153C68.3868 170.888 66.6196 172.015 64.6689 172.015H58.8275C57.261 172.015 56.1681 170.46 56.9099 169.08Z" fill="#993331"/>
<path d="M53.3375 168.899C52.4555 170.644 50.7279 171.931 48.7745 171.849L46.8959 171.769C45.1427 171.695 43.1613 170.286 43.1045 168.532C42.9816 164.741 42.2507 164.473 41.2232 160.943C42.9404 161.954 43.6005 162.892 44.8688 164.376C46.8221 166.66 50.2892 168.712 53.3375 168.899Z" fill="#993331"/>
<path d="M6.10449 81.5322C6.10449 83.5322 9.43679 93.7825 10.347 95.3564C15.0358 103.464 26.3376 107.251 19.2845 117.926C19.2442 117.986 19.2026 118.047 19.1593 118.107C14.5641 129.46 15.1151 141.176 22.6593 151.055C24.1535 153.013 25.7095 154.316 27.5559 155.899C23.6212 154.903 20.4042 154.325 18.1216 150.639C16.4677 147.967 15.9489 145.477 15.3421 142.466C14.4128 142.585 14.0981 142.654 13.2066 142.944C13.3641 146.138 14.6047 150.795 16.7323 153.238C19.2059 156.077 22.9267 157.801 26.5998 158.417C27.9546 158.644 29.6885 158.725 31.0782 158.843C32.7105 161.302 32.331 165.369 31.2107 167.968C30.7928 168.938 28.6689 168.849 27.7894 168.779C12.9894 167.608 2.76402 150.755 6.90731 136.804C9.16018 130.5 12.5226 126.737 13.1403 119.841C13.8435 111.988 1.69317 90.2657 6.10449 83.5322C6.53295 82.7838 5.60449 82.0322 6.10449 81.5322Z" fill="#993331"/>
<path d="M6.10435 79.5322C6.45593 81.3193 10.6045 93.5322 11.1045 95.0322C15.1045 103.032 26.3375 107.251 19.2844 117.926C19.2442 117.986 19.2025 118.047 19.1593 118.107C19.0252 117.943 18.9271 117.748 18.9172 117.536C18.7463 113.874 18.927 110.65 16.7866 107.479C14.8095 104.549 12.5338 101.823 10.4955 98.94C9.13581 97.0175 6.35181 86.775 5.60449 84.5322C5.60449 83.5322 5.73947 80.3105 6.10435 79.5322Z" fill="#FEFEFE"/>
<path d="M75.4636 150.963C78.3322 149.444 79.3384 147.572 80.4874 144.713C80.6217 144.137 80.7429 143.557 80.8508 142.975C83.7936 144.083 85.7964 145.143 87.0349 148.198C90.5568 156.888 82.6045 164.032 81.1045 166.032C79.9795 167.532 77.9082 169.458 79.1045 169.032L73.416 171.055C72.4764 171.389 71.6665 170.391 72.1262 169.506C74.027 165.846 75.4806 161.01 74.1388 156.924C73.7632 155.78 73.1259 154.705 72.6541 153.595C72.6027 153.445 72.2112 152.551 72.354 152.454C73.3201 151.82 74.4441 151.502 75.4636 150.963Z" fill="#993331"/>
<path d="M80.488 144.713C80.6223 144.137 80.7435 143.557 80.8514 142.975C83.7941 144.083 85.7969 145.143 87.0355 148.198C90.1047 155.032 84.6047 164.032 79.6047 169.032L77.6045 169.532C77.1048 169.032 82.3778 161.527 82.7433 160.806C84.3986 157.543 87.3285 154.165 86.0644 150.259C85.2266 147.67 82.8133 145.913 80.488 144.713Z" fill="#FEFEFE"/>
<path d="M102.585 98.1448C103.041 95.6962 103.298 94.0145 103.483 91.5382C103.958 93.0404 104.834 94.9485 105.041 96.3956C106.418 105.865 99.3571 114.55 99.7763 123.949C100.162 132.595 106.051 139.033 105.694 147.959C105.309 157.565 97.6742 165.434 88.0405 164.851C86.9034 164.782 86.1565 163.676 86.5136 162.595C86.9873 161.204 88.1336 159.623 88.6977 158.187C89.8017 155.377 89.8488 153.621 92.6712 151.976C97.4584 149.185 98.6022 144.006 97.4604 138.872C96.905 136.375 95.7384 134.07 95.4625 131.513C94.9863 127.703 95.8185 124.653 97.1184 121.12L97.292 119.489C97.4457 118.766 97.5823 117.018 97.6686 116.213C98.3978 114 98.9608 112.917 99.5706 110.439C100.454 106.941 103.127 102.124 102.585 98.1448Z" fill="#FEFEFE"/>
<path d="M97.1184 121.12C97.7752 123.836 97.7189 126.725 98.6203 129.491C101.155 137.268 105.166 146.556 100.711 154.393C97.8115 159.493 92.3863 162.221 86.5137 162.595C86.9873 161.204 88.1336 159.623 88.6977 158.187C89.8017 155.377 89.8489 153.621 92.6712 151.976C97.4584 149.185 98.6022 144.006 97.4604 138.872C96.9051 136.375 95.7384 134.07 95.4625 131.513C94.9863 127.703 95.8185 124.653 97.1184 121.12Z" fill="#993331"/>
<path d="M80.6381 83.0038C81.1528 82.0581 82.1913 80.95 83.0587 80.3169C83.5256 79.7063 84.4597 78.9842 85.0819 78.4829C84.5555 84.8561 86.7237 89.2912 86.6671 95.4276C86.6289 99.5784 83.2771 103.067 81.8068 106.668C79.209 113.033 79.7813 118.405 85.4895 122.451C85.4029 123.305 85.3428 124.16 85.3092 125.017C84.8292 127.503 85.5577 133.077 85.7344 135.701C85.8966 137.817 85.7944 139.945 85.4299 142.034C84.6448 141.766 83.849 141.502 83.0587 141.224L71.585 114.164C71.6404 113.951 71.702 113.741 71.7692 113.532C72.9666 109.819 75.964 106.717 78.085 103.331C80.9845 98.7025 81.995 92.8128 81.3201 87.4089C81.1365 85.9385 80.7582 84.5077 80.6381 83.0038Z" fill="#993331"/>
<path d="M83.0588 80.3169C83.5257 79.7063 84.4598 78.9842 85.082 78.4829C84.5556 84.8561 86.7238 89.2912 86.6672 95.4276C86.629 99.5784 83.2772 103.067 81.8069 106.668C79.2091 113.033 79.7814 118.405 85.4896 122.451C85.403 123.305 85.3429 124.16 85.3093 125.017C82.2873 124.555 80.4476 121.685 79.4528 119.064C76.3057 110.838 82.1508 102.749 83.6043 94.9565C84.3365 91.0315 83.3388 84.5349 83.0588 80.3169Z" fill="#FEFEFE"/>
<path d="M34.0047 165.517C34.5295 163.413 34.4486 161.653 34.3684 159.532C36.0427 160.163 37.4336 160.216 38.5619 161.922C39.1756 162.85 41.1255 165.645 41.1043 166.674C41.0845 167.633 41.0869 168.571 40.8296 169.298C40.4352 170.414 38.9944 170.402 37.8378 170.154L36.3809 169.841C34.1782 169.369 33.2455 167.638 34.0047 165.517Z" fill="#993331"/>
<path d="M87.4316 143.602C89.6028 138.643 87.9134 133.775 87.7179 128.73C87.6126 126.017 88.281 121.509 89.1677 118.871C90.7626 114.128 94.206 110.227 97.3496 106.495C99.4172 104.041 101.331 101.09 102.585 98.1448C103.127 102.124 100.454 106.941 99.5706 110.439C98.9609 112.917 98.3979 114 97.6687 116.214C97.5824 117.018 97.4458 118.766 97.2921 119.489C96.6941 119.269 95.6537 118.825 95.1582 119.398C94.4968 120.165 94.0933 121.716 93.7997 122.687C92.3778 127.383 92.4571 132.375 94.0025 137.029C94.5682 138.787 95.2462 141.015 95.1658 142.846C94.9916 146.822 93.2167 148.227 90.5703 150.729C89.647 147.744 89.2065 146.2 87.4316 143.602Z" fill="#993331"/>
<path d="M100.104 106.032C100.507 106.332 99.4182 110.088 99.5704 110.439C98.9606 112.917 97.8337 118.819 97.1045 121.032C96.2708 121.407 94.7088 122.02 94.1045 121.532C94.6475 120.094 99.3657 107.401 100.104 106.032Z" fill="black"/>
<path d="M13.6046 127.532C14.007 127.832 14.6045 133.532 14.6046 134.532C14.6045 137.032 16.8337 147.819 16.1045 150.032C15.2708 150.407 13.1045 145.532 13.1045 143.032C13.1048 141.032 12.8658 128.901 13.6046 127.532Z" fill="black"/>
<path d="M23.1567 59.5305C23.9096 56.4498 25.9463 48.6398 28.6045 47.0322C29.0593 47.1818 29.8886 47.5712 30.1045 48.0322C30.2764 48.3992 29.7486 49.17 29.6045 49.5322C29.171 50.6215 28.7346 52.0405 28.1045 53.0322C27.3127 54.2781 27.1173 55.7587 26.6072 57.1406C25.62 59.8154 25.2133 62.5921 25.1865 65.4382C25.1199 72.5133 28.0064 77.87 31.2882 83.8999C32.065 85.3271 32.9046 86.7219 33.5816 88.2006C36.7337 95.0855 37.7449 99.9836 35.1044 107.313C34.5787 108.771 34.0549 110.236 33.341 111.617C32.9111 112.448 31.7365 115.715 31.2882 116.532L28.3921 120.032C29.2043 118.478 31.4277 109.742 31.4277 109.742C31.4277 109.742 32.611 107.351 33.0494 106.107C33.784 104.024 33.9974 101.661 33.9889 99.4647C33.975 95.8503 32.864 93.0111 31.3765 89.7892C26.6043 79.4534 20.1625 71.7836 23.1567 59.5305Z" fill="black"/>
<path d="M53.1045 107.532C69.6433 107.532 83.1045 121.381 83.1045 138.532C83.1045 155.683 69.6433 169.532 53.1045 169.532C36.5656 169.532 23.1045 155.683 23.1045 138.532C23.1045 121.381 36.5656 107.532 53.1045 107.532Z" fill="white" stroke="black" stroke-width="2"/>
</svg>
