<svg width="35" height="35" viewBox="0 0 35 35" fill="none" xmlns="http://www.w3.org/2000/svg">
<g clip-path="url(#clip0_350_218)">
<path d="M2.91667 30.625V4.375C2.91667 3.98823 3.07031 3.61729 3.3438 3.3438C3.61729 3.07031 3.98823 2.91667 4.375 2.91667H11.6667V0H4.375C3.21468 0 2.10188 0.460936 1.28141 1.28141C0.460936 2.10188 0 3.21468 0 4.375L0 30.625C0 31.7853 0.460936 32.8981 1.28141 33.7186C2.10188 34.5391 3.21468 35 4.375 35H11.6667V32.0833H4.375C3.98823 32.0833 3.61729 31.9297 3.3438 31.6562C3.07031 31.3827 2.91667 31.0118 2.91667 30.625Z" fill="#A2A2A2"/>
<path d="M33.7204 14.406L27.0325 7.71808L24.9704 9.78016L31.1887 15.9985L7.29102 16.0408V18.9575L31.2704 18.9152L24.9675 25.2181L27.0296 27.2802L33.7175 20.5922C34.538 19.7722 34.9993 18.6598 34.9999 17.4997C35.0004 16.3396 34.5402 15.2268 33.7204 14.406Z" fill="#A2A2A2"/>
</g>
<defs>
<clipPath id="clip0_350_218">
<rect width="35" height="35" fill="white"/>
</clipPath>
</defs>
</svg>
