<svg width="35" height="35" viewBox="0 0 35 35" fill="none" xmlns="http://www.w3.org/2000/svg">
<g clip-path="url(#clip0_349_135)">
<path d="M29.1663 17.4998C28.2716 17.4996 27.3889 17.7056 26.5867 18.1016C25.7845 18.4977 25.0843 19.0732 24.5404 19.7835L24.4383 19.7398C24.8394 18.4973 24.8995 17.1699 24.6124 15.8963C24.3253 14.6227 23.7015 13.4495 22.8061 12.4992C21.9107 11.549 20.7766 10.8567 19.5223 10.4944C18.2679 10.1322 16.9393 10.1134 15.6752 10.44L15.5425 10.1892C16.6018 9.24668 17.281 7.95024 17.4529 6.54281C17.6248 5.13539 17.2775 3.71358 16.4762 2.54386C15.6749 1.37414 14.4745 0.536796 13.0999 0.188753C11.7254 -0.159289 10.2712 0.00586081 9.00973 0.653253C7.74828 1.30065 6.7662 2.38584 6.24756 3.70547C5.72892 5.02509 5.70931 6.48856 6.19241 7.8216C6.67551 9.15464 7.62816 10.2658 8.87183 10.9467C10.1155 11.6277 11.5648 11.8317 12.9481 11.5206L13.0546 11.7204C11.5963 12.8394 10.6154 14.4687 10.3086 16.281C10.0019 18.0934 10.3921 19.9547 11.4008 21.4913L8.65188 24.0623C7.40933 23.3758 5.95909 23.1659 4.57291 23.4721C3.18673 23.7782 1.95976 24.5793 1.12192 25.7253C0.284075 26.8713 -0.107131 28.2834 0.0216059 29.6972C0.150343 31.1109 0.790188 32.4292 1.82124 33.4049C2.85229 34.3807 4.20378 34.947 5.62246 34.9978C7.04113 35.0485 8.42962 34.5802 9.52773 33.6805C10.6258 32.7809 11.3582 31.5116 11.5876 30.1107C11.817 28.7098 11.5276 27.2733 10.7738 26.0704L13.4542 23.565C14.9263 24.549 16.7066 24.9628 18.4618 24.729C20.2171 24.4952 21.8269 23.6298 22.9902 22.2948L23.3971 22.4683C23.2206 23.6459 23.4086 24.8492 23.936 25.9168C24.4634 26.9843 25.3048 27.8649 26.3473 28.4403C27.3897 29.0156 28.5833 29.2582 29.7677 29.1353C30.952 29.0125 32.0704 28.5302 32.9726 27.7532C33.8749 26.9762 34.5177 25.9417 34.8148 24.7886C35.1119 23.6356 35.049 22.4193 34.6346 21.303C34.2202 20.1867 33.4742 19.224 32.4966 18.5441C31.5191 17.8643 30.357 17.4999 29.1663 17.4998ZM8.74959 5.83313C8.74959 5.25627 8.92065 4.69236 9.24113 4.21271C9.56162 3.73307 10.0171 3.35923 10.5501 3.13848C11.083 2.91772 11.6695 2.85996 12.2353 2.9725C12.801 3.08504 13.3207 3.36283 13.7286 3.77073C14.1366 4.17864 14.4143 4.69834 14.5269 5.26411C14.6394 5.82989 14.5817 6.41634 14.3609 6.94929C14.1401 7.48224 13.7663 7.93776 13.2867 8.25825C12.807 8.57873 12.2431 8.74979 11.6663 8.74979C10.8927 8.74979 10.1508 8.4425 9.60386 7.89552C9.05688 7.34854 8.74959 6.60668 8.74959 5.83313ZM5.83292 32.0831C5.25606 32.0831 4.69215 31.9121 4.21251 31.5916C3.73286 31.2711 3.35903 30.8156 3.13827 30.2826C2.91752 29.7497 2.85976 29.1632 2.9723 28.5974C3.08484 28.0317 3.36262 27.512 3.77053 27.1041C4.17843 26.6962 4.69813 26.4184 5.26391 26.3058C5.82969 26.1933 6.41613 26.2511 6.94908 26.4718C7.48203 26.6926 7.93755 27.0664 8.25804 27.546C8.57853 28.0257 8.74959 28.5896 8.74959 29.1665C8.74959 29.94 8.4423 30.6819 7.89532 31.2289C7.34833 31.7758 6.60647 32.0831 5.83292 32.0831ZM17.4996 21.8748C16.5527 21.8729 15.6319 21.5639 14.8756 20.9941C14.1193 20.4244 13.5683 19.6246 13.3053 18.7149C13.0423 17.8053 13.0815 16.8349 13.4171 15.9494C13.7526 15.0639 14.3664 14.3112 15.1663 13.8044L15.7598 13.4879C16.3562 13.2285 17.0029 13.1053 17.6529 13.1273C18.3029 13.1493 18.9399 13.316 19.5173 13.6151C20.0948 13.9143 20.5984 14.3384 20.9913 14.8567C21.3842 15.375 21.6566 15.9743 21.7887 16.6112C21.9208 17.248 21.9093 17.9062 21.7549 18.538C21.6006 19.1698 21.3073 19.7593 20.8965 20.2635C20.4857 20.7676 19.9676 21.1739 19.38 21.4526C18.7923 21.7314 18.15 21.8756 17.4996 21.8748ZM29.1663 26.2498C28.5894 26.2498 28.0255 26.0787 27.5458 25.7582C27.0662 25.4378 26.6924 24.9822 26.4716 24.4493C26.2508 23.9163 26.1931 23.3299 26.3056 22.7641C26.4182 22.1983 26.696 21.6786 27.1039 21.2707C27.5118 20.8628 28.0315 20.585 28.5972 20.4725C29.163 20.36 29.7495 20.4177 30.2824 20.6385C30.8154 20.8592 31.2709 21.2331 31.5914 21.7127C31.9119 22.1924 32.0829 22.7563 32.0829 23.3331C32.0829 24.1067 31.7756 24.8485 31.2286 25.3955C30.6817 25.9425 29.9398 26.2498 29.1663 26.2498Z" fill="#BA5149"/>
</g>
<defs>
<clipPath id="clip0_349_135">
<rect width="35" height="35" fill="white"/>
</clipPath>
</defs>
</svg>
