<svg width="35" height="35" viewBox="0 0 35 35" fill="none" xmlns="http://www.w3.org/2000/svg">
<path d="M33.4279 2.47918C32.9368 2.06754 32.3609 1.7694 31.7412 1.60604C31.1216 1.44269 30.4736 1.41815 29.8433 1.53418L20.8308 3.17189C19.5412 3.40442 18.3676 4.06518 17.5 5.04731C16.633 4.06356 15.4594 3.40122 14.1692 3.16752L5.15667 1.52981C4.52633 1.41535 3.87855 1.44071 3.25909 1.60412C2.63964 1.76753 2.06363 2.06498 1.57176 2.47547C1.0799 2.88596 0.684195 3.39946 0.412601 3.97968C0.141007 4.55991 0.00015567 5.1927 0 5.83335L0 30.3829L17.5 33.5665L35 30.3829V5.83335C35.0001 5.19317 34.8593 4.56082 34.5876 3.98116C34.3159 3.40149 33.92 2.88871 33.4279 2.47918ZM16.0417 30.3334L2.91667 27.9504V5.83335C2.91685 5.61983 2.96391 5.40896 3.05453 5.21563C3.14516 5.0223 3.27712 4.85123 3.44112 4.7145C3.60511 4.57777 3.79713 4.47872 4.0036 4.42434C4.21008 4.36996 4.42597 4.36159 4.63604 4.39981L13.6471 6.03752C14.3191 6.15978 14.9269 6.51404 15.3645 7.03853C15.8021 7.56301 16.0418 8.22445 16.0417 8.90752V30.3334ZM32.0833 27.9475L18.9583 30.3334V8.90752C18.9582 8.22445 19.1979 7.56301 19.6355 7.03853C20.0731 6.51404 20.6809 6.15978 21.3529 6.03752L30.364 4.39981C30.574 4.36159 30.7899 4.36996 30.9964 4.42434C31.2029 4.47872 31.3949 4.57777 31.5589 4.7145C31.7229 4.85123 31.8548 5.0223 31.9455 5.21563C32.0361 5.40896 32.0832 5.61983 32.0833 5.83335V27.9475Z" fill="#BA5149"/>
</svg>
