<svg width="35" height="35" viewBox="0 0 35 35" fill="none" xmlns="http://www.w3.org/2000/svg">
<path d="M17.5 3.28125C14.6879 3.28125 11.9391 4.1146 9.59432 5.67381C7.2496 7.23302 5.41562 9.44693 4.3267 12.0519C3.23778 14.6569 2.94248 17.5377 3.47981 20.318C4.01714 23.0983 5.36284 25.6545 7.35046 27.6421C8.34319 28.6344 9.49684 29.459 10.7641 30.0875C10.9281 28.1102 11.8312 26.2637 13.2938 24.9063C11.7469 23.8281 10.9375 22.061 10.9375 20.125C10.9375 16.5352 13.8688 13.5625 17.5 13.5625C21.1312 13.5625 24.0625 16.5352 24.0625 20.125C24.0625 22.061 23.2531 23.8281 21.7062 24.9063C23.1688 26.2637 24.0719 28.1102 24.2359 30.0875C25.5032 29.459 26.6568 28.6344 27.6495 27.6421C29.6372 25.6545 30.9829 23.0983 31.5202 20.318C32.0575 17.5377 31.7622 14.6569 30.6733 12.0519C29.5844 9.44693 27.7504 7.23302 25.4057 5.67381C23.0609 4.1146 20.3121 3.28125 17.5 3.28125ZM17.5 27.3438C16.175 27.3438 14.9188 27.8703 13.9758 28.8133C13.0328 29.7563 12.5062 31.0125 12.5062 32.3375C14.0834 32.9032 15.7565 33.2029 17.5 33.2029C19.2435 33.2029 20.9166 32.9032 22.4938 32.3375C22.4938 31.0125 21.9672 29.7563 21.0242 28.8133C20.0812 27.8703 18.825 27.3438 17.5 27.3438ZM17.5 23.625C19.4254 23.625 20.9375 21.9891 20.9375 20.125C20.9375 18.2006 19.4254 16.6875 17.5 16.6875C15.5746 16.6875 14.0625 18.2006 14.0625 20.125C14.0625 21.9891 15.5746 23.625 17.5 23.625Z" fill="#A2A2A2"/>
</svg>
