<?xml version="1.0" encoding="UTF-8" standalone="no"?>
<svg
   xmlns:dc="http://purl.org/dc/elements/1.1/"
   xmlns:cc="http://creativecommons.org/ns#"
   xmlns:rdf="http://www.w3.org/1999/02/22-rdf-syntax-ns#"
   xmlns:svg="http://www.w3.org/2000/svg"
   xmlns="http://www.w3.org/2000/svg"
   viewBox="0 0 1333.3333 1333.3333"
   height="1333.3333"
   width="1333.3333"
   xml:space="preserve"
   id="svg2"
   version="1.1"><metadata
     id="metadata8"><rdf:RDF><cc:Work
         rdf:about=""><dc:format>image/svg+xml</dc:format><dc:type
           rdf:resource="http://purl.org/dc/dcmitype/StillImage" /></cc:Work></rdf:RDF></metadata><defs
     id="defs6"><clipPath
       id="clipPath18"
       clipPathUnits="userSpaceOnUse"><path
         id="path16"
         d="M 0,1000 H 1000 V 0 H 0 Z" /></clipPath></defs><g
     transform="matrix(1.3333333,0,0,-1.3333333,0,1333.3333)"
     id="g10"><g
       id="g12"><g
         clip-path="url(#clipPath18)"
         id="g14"><g
           transform="translate(399.9619,588.3359)"
           id="g20"><path
             id="path22"
             style="fill:#000000;fill-opacity:1;fill-rule:evenodd;stroke:none"
             d="m 0,0 v -1.07 c 2.134,-8.552 4.269,-16.034 8.537,-22.448 2.137,-3.205 4.273,-6.413 6.406,-9.621 0,0 1.07,-1.067 2.136,-1.067 v 1.067 c -1.066,1.069 -1.066,2.137 -2.136,3.208 -3.202,5.344 -5.336,11.758 -6.406,18.173 -1.066,3.206 -2.131,6.414 -4.268,8.55 C 4.269,-1.07 3.203,0 0,0 m 23.484,-67.345 v 1.07 h -1.068 c -4.269,5.344 -8.538,9.62 -11.742,13.896 -6.405,6.413 -12.809,13.896 -19.214,20.309 -2.136,2.139 -4.271,3.21 -7.472,4.278 -2.135,0 -5.34,2.134 -8.54,3.205 -1.067,0 -3.204,1.069 -4.271,1.069 1.067,-4.274 8.54,-23.516 10.676,-25.655 0,3.207 -1.069,5.345 1.066,8.551 1.069,-1.066 1.069,-2.136 2.134,-3.206 1.068,-3.206 2.136,-5.345 3.204,-7.482 0,-1.069 1.067,-2.138 2.134,-3.208 1.069,3.208 2.136,5.345 4.272,8.552 1.066,-3.207 1.066,-5.344 2.134,-7.482 1.068,-2.139 2.136,-4.275 3.203,-4.275 3.203,-2.14 7.471,-4.277 11.741,-6.414 3.202,-1.068 7.475,-2.138 11.743,-3.208 M -8.54,4.274 h -4.271 c -3.201,0 -6.405,1.071 -9.608,1.071 -3.2,1.068 -5.337,1.068 -6.404,4.276 -1.069,4.274 -1.069,6.414 -1.069,10.688 1.069,1.07 1.069,1.07 2.136,1.07 5.337,-1.07 9.609,-1.07 13.877,-1.07 1.068,0 2.136,-1.07 2.136,-1.07 3.203,-2.135 4.27,-6.412 5.336,-8.549 0,-2.14 1.07,-2.14 2.136,-2.14 3.204,0 6.405,0 9.611,1.071 2.131,0 2.131,1.069 2.131,3.206 0,3.208 -1.065,6.412 -1.065,9.621 -2.137,6.413 -5.339,10.689 -10.677,12.826 -5.338,2.138 -9.608,4.277 -13.876,5.346 -7.472,2.136 -14.946,4.276 -21.351,6.415 -3.204,0 -6.404,0 -9.607,1.068 -2.137,0 -2.137,-2.139 -3.202,-3.207 v -2.14 c 1.065,-4.274 2.133,-7.482 3.202,-11.756 l 1.067,-1.071 c 1.069,3.208 2.136,5.345 3.202,7.483 1.067,2.139 1.067,5.344 5.338,7.484 -1.068,-7.484 0,-13.896 2.135,-20.311 v 2.137 c 1.068,5.346 1.068,9.621 3.202,14.966 l 1.068,1.068 h 1.068 c 0,-2.136 2.133,-4.274 2.133,-6.413 -1.064,-7.482 -1.064,-14.964 -1.064,-21.378 -1.069,-6.415 -1.069,-11.757 1.064,-17.105 v -2.135 c 2.136,-2.14 4.273,-5.347 6.407,-8.552 2.133,-1.069 3.202,-3.208 5.338,-4.277 -1.069,5.346 -3.205,11.76 -4.272,18.173 5.338,-2.139 8.54,-4.277 12.81,-7.484 0,4.275 1.069,7.484 1.069,10.689 m -84.333,-220.202 c 0,3.207 -1.066,6.413 -2.135,9.62 -1.069,5.343 -2.135,11.758 -2.135,18.172 v 18.171 c 0,4.278 2.135,8.552 3.204,12.83 0,1.069 1.066,1.069 2.133,0 0,-1.07 1.068,-3.207 2.136,-4.278 0,-3.206 1.066,-6.411 1.066,-9.62 1.067,-9.619 2.136,-19.239 3.203,-28.86 1.068,-6.415 2.137,-11.761 2.137,-18.173 1.067,-2.137 1.067,-4.276 4.269,-4.276 h 2.134 c 6.406,-2.138 13.879,-4.277 21.35,-5.343 h 4.269 v 3.205 c -2.133,5.343 -5.336,10.691 -6.403,17.104 -3.202,9.622 -5.337,20.308 -8.542,29.93 0,4.276 -1.067,7.481 -2.134,11.759 0,0 1.067,1.068 1.067,2.138 1.067,-1.07 1.067,-1.07 2.136,-2.138 1.066,-2.137 2.136,-4.278 3.201,-6.414 2.138,-7.483 5.339,-13.896 8.542,-21.38 2.133,-5.345 3.201,-10.689 5.337,-16.034 1.069,-4.274 3.202,-8.551 5.336,-13.895 1.07,-1.07 2.136,-3.209 3.204,-5.345 9.606,2.136 20.282,3.206 29.889,7.482 -14.943,21.38 -25.62,44.896 -30.957,71.62 h 1.068 c 3.203,-4.275 6.405,-8.552 8.542,-12.827 1.064,0 1.064,-1.069 1.064,-2.139 0,-1.068 1.069,-2.139 1.069,-3.205 3.204,-8.553 7.471,-18.173 12.811,-26.726 4.269,-8.554 9.605,-14.965 14.945,-22.449 1.067,-1.067 2.134,-1.067 3.201,-1.067 4.272,2.138 9.607,3.207 14.945,4.277 1.068,1.068 3.202,1.068 4.273,1.068 4.268,0 8.537,2.136 11.74,4.275 v 1.07 c -5.338,4.272 -10.676,8.55 -16.013,12.826 -6.405,5.346 -11.739,10.692 -16.012,17.104 -3.202,4.276 -6.404,8.551 -9.607,13.897 0,1.069 -1.069,2.136 1.067,3.207 0,-1.071 1.066,-1.071 1.066,-2.138 2.136,-2.139 4.272,-4.278 6.407,-6.415 6.406,-7.482 14.943,-13.896 22.416,-21.377 3.204,-1.07 5.338,-3.209 8.541,-5.346 4.271,-3.208 9.607,-5.347 14.945,-5.347 5.338,0 10.676,-1.066 16.011,-1.066 5.339,0 10.679,0 16.013,2.138 H 76.86 c -12.81,1.067 -24.554,3.207 -35.227,7.482 -5.337,2.139 -9.607,4.275 -13.879,7.481 -5.338,3.207 -9.607,7.484 -16.013,11.76 -9.607,6.412 -18.148,13.894 -25.62,23.517 -4.268,5.343 -8.54,9.621 -11.74,14.965 -3.204,4.277 -6.406,8.551 -9.61,12.827 -4.269,6.416 -8.54,11.758 -11.74,18.173 0,2.136 -1.069,3.207 -1.069,4.275 -1.067,0 -2.136,-1.068 -3.204,-1.068 -11.74,-4.278 -22.416,-10.691 -33.091,-18.171 -5.337,-4.278 -9.606,-6.416 -16.013,-8.555 -1.068,0 -3.204,-1.065 -5.337,0 -4.27,0 -8.54,1.07 -12.811,1.07 -6.404,1.069 -12.809,3.207 -19.215,3.207 -5.337,-1.068 -11.741,-1.068 -17.08,-2.138 -6.404,0 -13.877,-1.069 -20.281,-3.204 -3.203,-1.072 -5.338,-1.072 -8.54,-1.072 -5.338,0 -9.609,1.072 -14.945,1.072 -5.337,0 -9.61,-2.139 -14.946,-3.207 -9.608,-2.139 -17.08,-7.483 -23.487,-14.967 -3.2,-3.207 -7.472,-7.482 -11.74,-10.689 -6.405,-5.345 -13.877,-10.689 -20.284,-16.035 -6.404,-5.346 -11.742,-10.688 -18.147,-14.966 -3.203,-3.206 -6.404,-6.414 -9.607,-9.618 -3.203,-3.211 -5.338,-6.416 -8.542,-9.622 -7.472,-7.483 -13.876,-14.966 -21.349,-22.45 -5.338,-6.412 -10.672,-12.825 -14.945,-19.239 -7.472,-9.621 -13.877,-19.243 -21.35,-28.863 -2.135,-3.207 -4.269,-7.484 -6.403,-10.688 -2.136,-2.139 -3.204,-5.346 -4.271,-7.482 -4.271,-4.277 -7.472,-10.691 -9.607,-16.035 -1.069,0 -1.069,0 -1.069,-1.071 h 1.069 c 1.067,0 2.135,1.071 3.2,1.071 5.34,4.275 9.608,8.551 13.881,13.894 1.065,1.069 3.2,3.208 4.269,5.345 1.066,1.071 3.203,2.139 4.269,4.278 7.472,7.481 14.946,16.034 22.418,23.516 2.135,3.205 5.339,6.414 8.539,8.55 7.473,8.553 13.877,18.173 22.419,25.656 4.269,5.345 9.607,10.691 14.944,16.035 2.135,2.138 5.339,5.344 6.404,7.483 1.068,3.206 3.204,5.345 5.34,7.483 3.2,4.275 7.471,8.551 9.606,13.896 0,1.067 1.068,1.067 1.068,1.067 l 1.067,-1.067 c 0,-1.071 -1.067,-2.139 -1.067,-3.207 -3.203,-5.346 -5.336,-10.689 -8.54,-14.966 v -2.138 c 1.066,1.07 2.135,1.07 3.204,2.138 3.2,3.205 6.403,6.416 9.607,8.552 8.54,7.482 16.012,13.895 21.35,22.448 0,0 0,1.069 1.067,1.069 0,1.068 1.067,1.068 1.067,1.068 1.068,0 1.068,-1.068 1.068,-1.068 0,-1.069 0,-2.14 -1.068,-2.14 -1.067,-3.205 -2.134,-6.411 -3.203,-8.55 -3.204,-6.413 -6.404,-10.69 -11.741,-14.963 -6.407,-4.277 -12.811,-8.554 -20.285,-12.831 l -1.066,-1.069 c -2.134,0 -3.203,-1.067 -3.203,-2.135 -4.271,-4.277 -8.54,-8.553 -11.743,-13.896 -2.135,-1.07 -3.201,-2.141 -4.269,-4.277 -4.268,-5.346 -7.473,-10.689 -11.742,-16.035 -5.339,-5.346 -11.744,-11.757 -17.081,-17.103 -5.338,-6.416 -10.675,-11.759 -17.079,-18.171 0,-1.071 -1.069,-2.141 -2.135,-3.208 h 1.066 c 6.406,2.137 11.745,5.344 16.013,8.551 3.204,2.139 6.405,4.277 9.608,6.412 6.405,6.416 12.809,12.83 19.215,18.173 9.607,9.623 19.216,19.242 28.822,29.933 7.472,6.411 13.879,14.964 20.283,22.445 2.133,2.139 4.27,5.347 6.406,7.484 -1.069,0 -1.069,0 -1.069,1.07 -1.067,0 -2.136,0 -2.136,1.069 0,0 1.069,1.07 2.136,1.07 4.271,2.136 8.54,4.275 11.743,7.481 2.135,2.139 5.339,4.275 7.472,6.414 0,1.07 1.067,1.07 1.067,1.07 1.068,0 1.068,-1.07 1.068,-1.07 v -2.139 c -1.068,-3.207 -3.202,-6.414 -5.337,-8.552 -3.203,-2.136 -6.404,-3.204 -8.541,-4.274 -2.136,-1.069 -2.136,-1.069 -3.201,-3.208 -1.068,-2.136 -3.202,-5.343 -4.271,-7.481 -4.269,-5.345 -8.539,-10.69 -11.741,-17.106 -4.271,-6.412 -9.609,-11.757 -14.947,-17.101 -5.338,-6.413 -11.742,-12.827 -17.079,-19.243 -1.068,-1.069 -2.135,-2.134 -1.068,-3.205 1.068,-1.068 2.137,0 3.204,0 6.405,4.275 12.809,7.482 18.146,11.758 4.272,2.138 8.54,4.277 11.744,6.412 5.337,3.208 10.674,5.346 14.944,9.622 3.203,3.209 6.406,6.414 8.54,9.621 8.539,7.484 16.012,16.035 24.552,24.587 4.271,4.275 9.609,8.55 14.946,12.828 1.067,1.067 1.067,2.135 2.135,2.135 h 1.069 c 1.067,0 1.067,-1.068 1.067,-1.068 -1.067,-1.067 -1.067,-2.139 -2.136,-3.206 -5.336,-5.345 -9.607,-11.757 -14.944,-18.173 -4.273,-5.345 -7.475,-10.689 -11.745,-16.033 -1.065,-1.07 -2.134,-3.207 -2.134,-4.277 2.134,0 3.202,1.07 5.337,1.07 4.269,2.137 7.473,4.273 11.741,5.344 4.273,1.067 9.61,2.138 13.881,4.277 1.066,0 2.133,1.068 3.202,1.068 2.134,3.206 5.337,6.413 8.54,9.617 3.202,3.211 6.404,7.486 9.607,11.762 2.134,2.138 4.27,5.345 6.405,8.551 1.068,0 1.068,1.068 2.136,1.068 v -2.135 c -3.203,-7.484 -6.407,-13.896 -10.676,-20.312 -1.068,-2.138 -2.134,-5.345 -3.203,-7.484 11.743,1.069 21.351,-1.067 32.027,-5.345 v 10.691 c -1.071,4.277 -1.071,8.554 0,12.827 2.134,5.345 3.203,10.69 5.336,16.035 0,2.139 1.065,4.276 2.135,7.481 0,0 0,1.07 1.066,1.07 l 1.07,-1.07 c 0,-4.276 1.068,-7.481 1.068,-11.758 0,-9.619 -1.068,-20.308 -2.138,-29.931 v -5.345 h 16.014 3.202 c 3.203,1.071 6.405,1.071 9.607,1.071 3.203,1.069 5.337,1.069 8.541,0 m 58.712,173.17 c 1.068,-2.138 1.068,-5.346 2.136,-7.483 1.069,-5.346 4.269,-9.622 7.473,-12.827 1.067,-1.069 3.2,-2.137 5.336,-3.207 v 1.07 8.55 2.137 c -2.136,2.139 -4.269,5.345 -6.403,7.484 -3.204,3.206 -5.337,6.412 -8.542,9.62 -6.405,6.412 -10.675,11.756 -16.013,18.173 -5.337,4.275 -6.404,10.689 -8.54,16.033 -1.065,6.416 -3.203,11.758 -4.268,18.173 -1.07,3.207 -2.136,7.483 -2.136,10.691 -1.069,3.205 -1.069,6.412 -1.069,9.618 v 2.138 c 5.34,-3.206 10.676,-6.412 16.013,-9.62 v 1.069 1.068 c -4.268,3.208 -8.54,7.483 -10.673,11.759 -1.07,1.068 -1.07,3.208 -1.07,4.276 0,4.277 1.07,7.482 5.339,8.553 1.067,1.07 2.136,1.07 3.203,2.136 2.133,2.138 5.337,2.138 9.606,0 4.271,-1.066 8.54,-2.136 12.813,-4.275 5.337,-1.069 10.673,-3.207 16.009,-5.343 5.338,-1.071 9.61,-3.208 13.88,-5.347 3.201,-1.068 5.336,-2.137 7.473,-3.206 3.201,-1.07 4.268,-3.208 4.268,-5.345 1.067,-4.276 2.136,-8.552 2.136,-12.828 1.068,-7.482 2.133,-16.035 3.203,-23.517 1.066,-3.207 2.134,-6.414 3.203,-8.55 3.2,-9.621 5.334,-19.244 9.607,-27.794 3.203,-6.414 6.405,-11.758 10.673,-17.103 2.137,-3.208 5.338,-7.482 7.473,-10.69 5.337,-6.413 9.609,-11.758 13.879,-18.172 3.202,-3.205 6.404,-7.48 8.538,-10.689 3.206,-4.275 6.406,-8.553 9.61,-12.827 3.199,-3.208 6.403,-7.483 8.538,-10.69 5.338,-7.484 10.675,-16.034 16.013,-23.518 1.066,-1.069 1.066,-2.137 1.066,-2.137 0,0 0,-1.068 -1.066,-1.068 -1.068,1.068 -2.135,2.136 -3.203,4.275 -4.269,4.277 -9.608,8.553 -13.876,12.827 -4.273,4.276 -7.472,7.483 -10.676,11.76 -7.473,6.412 -13.879,11.758 -20.282,19.239 -5.335,4.278 -9.608,9.623 -14.946,14.965 0,0 -1.068,1.07 -2.134,0 -3.202,0 -6.404,-1.067 -9.607,-2.137 1.066,-3.205 4.269,-5.345 6.405,-7.48 -3.202,-3.209 -7.474,-3.209 -10.678,-5.348 1.07,-2.136 2.138,-4.273 4.273,-6.414 1.066,-1.067 2.134,-2.138 3.203,-3.204 1.066,-2.14 1.066,-3.209 0,-4.278 -5.338,-4.275 -9.61,-9.62 -16.013,-11.757 -3.203,-2.139 -6.406,-2.139 -9.607,0 -5.339,2.137 -10.677,4.275 -16.015,7.482 -3.202,1.071 -6.403,3.207 -9.607,5.344 -6.403,2.139 -10.676,6.413 -16.013,10.691 -2.134,1.068 -4.269,2.136 -6.403,3.207 v -1.071 c 5.337,-8.552 9.607,-16.035 16.013,-22.448 4.267,-6.414 8.538,-13.895 13.876,-19.239 3.203,-5.346 8.54,-9.621 12.81,-12.828 5.339,-4.275 9.607,-8.553 13.876,-11.759 8.541,-7.482 17.083,-13.897 26.69,-18.172 3.201,-2.139 6.405,-3.206 9.607,-4.277 11.745,-2.136 23.484,-3.204 35.228,-4.274 h 6.404 c 9.607,-1.069 19.216,1.07 28.823,3.206 10.676,3.206 22.417,5.345 33.093,8.552 7.474,1.068 13.876,4.277 20.28,7.483 h 1.07 2.134 c 0,-1.069 0,-1.069 -1.066,-2.14 -5.34,-4.275 -10.676,-9.617 -18.148,-12.827 -4.27,-1.068 -8.541,-4.274 -12.811,-5.343 -6.406,-2.139 -13.876,-4.275 -20.281,-5.343 -7.472,-2.139 -14.946,-3.211 -23.487,-2.139 -3.201,0 -6.404,-1.072 -9.607,-3.211 -1.068,0 -2.136,-1.066 -3.203,-1.066 -8.538,-2.138 -17.077,-4.276 -26.684,-5.345 -6.407,0 -13.882,-1.07 -20.285,-1.07 -3.204,-1.069 -4.27,-1.069 -5.34,-3.204 -3.198,-4.277 -7.471,-6.414 -12.81,-8.553 -3.198,-1.068 -6.403,-3.207 -10.672,-4.277 -7.472,-2.136 -14.945,-3.207 -22.418,-5.343 -4.271,-1.07 -8.541,-2.139 -12.812,-3.208 -6.404,-1.068 -12.809,-1.068 -19.214,-2.138 -5.336,0 -10.676,-1.069 -16.012,-1.069 -1.067,0 -2.136,-1.066 -3.201,0 -3.203,1.069 -6.408,2.139 -8.542,3.207 -5.337,2.138 -10.674,4.276 -16.012,5.344 -2.135,0 -4.271,1.071 -6.405,2.141 -4.27,2.136 -9.608,2.136 -13.878,1.066 -8.54,0 -17.08,-1.066 -24.551,-1.066 -3.206,0 -7.473,0 -10.678,1.066 -9.605,1.07 -19.213,1.07 -29.887,1.07 -5.338,-1.07 -11.744,-2.136 -17.08,-3.206 -10.676,-3.207 -21.353,-6.415 -33.093,-9.622 -3.204,-1.066 -6.406,-3.207 -10.676,-4.274 -8.54,-4.277 -16.012,-7.483 -24.552,-11.76 -2.136,-1.07 -4.27,-2.139 -5.339,-3.204 -8.54,-4.28 -16.011,-8.554 -23.483,-12.831 -9.608,-5.343 -19.217,-9.62 -28.825,-14.966 -2.133,-1.067 -5.337,-2.136 -8.539,-4.275 -10.676,-4.275 -20.283,-9.618 -30.957,-14.964 -4.271,-2.138 -8.541,-4.277 -12.811,-6.414 -4.268,-3.209 -9.606,-6.412 -13.878,-9.621 -3.201,-2.138 -6.404,-4.274 -10.673,-5.342 -3.203,0 -6.405,-2.139 -10.675,-4.278 -1.068,0 -3.203,-1.071 -6.406,0 0,1.069 1.069,2.139 1.069,2.139 1.066,3.207 2.134,5.343 4.269,7.481 2.134,6.412 5.338,11.758 8.54,17.104 3.203,7.484 7.472,14.966 11.743,22.447 3.201,4.276 5.337,8.553 8.539,12.827 3.204,4.277 6.407,9.622 9.607,13.897 5.338,7.483 10.676,14.968 17.081,22.449 6.404,8.552 13.876,17.103 21.35,25.654 4.269,4.277 7.473,10.69 12.809,14.966 5.339,6.412 11.743,12.826 17.081,19.241 4.269,4.277 8.54,8.552 12.809,12.825 4.272,3.21 8.541,6.416 12.81,9.623 4.272,3.207 8.54,7.482 13.879,10.691 2.133,2.136 4.27,4.274 7.472,5.344 4.27,3.207 8.54,5.346 12.809,8.55 10.676,5.345 21.351,10.688 33.094,12.827 h 11.742 6.406 c 3.202,0 6.403,0 10.674,-1.068 11.743,-1.071 22.418,-1.071 34.162,0 7.471,0 16.011,1.068 23.484,2.137 4.269,1.069 8.54,2.139 13.876,3.209 7.475,3.204 14.946,6.411 22.419,8.55 8.54,3.207 17.078,3.207 24.553,4.275 1.067,0 2.135,1.071 3.2,1.071 0,1.07 -1.065,2.135 -1.065,3.205 -3.204,3.209 -3.204,7.482 -1.068,11.759 2.133,7.484 6.406,13.898 10.673,20.311 3.204,4.274 5.339,8.551 6.407,13.896 1.066,1.068 1.066,2.138 1.066,2.138 z" /></g><g
           transform="translate(694.5918,481.4385)"
           id="g24"><path
             id="path26"
             style="fill:#000000;fill-opacity:1;fill-rule:evenodd;stroke:none"
             d="m 0,0 c -4.269,-1.065 -7.472,-3.205 -11.74,-4.274 -1.071,0 -1.071,-1.07 0,-2.137 1.064,-2.137 2.132,-2.137 3.2,-3.207 6.405,-4.278 11.744,-8.553 18.148,-11.757 3.203,-2.139 5.337,-4.277 8.54,-5.346 C 11.743,-18.171 6.404,-8.548 0,0 m -44.836,-16.032 c 2.137,-3.207 35.228,-17.103 39.499,-17.103 -6.403,8.553 -12.811,17.103 -18.149,24.587 -7.471,-3.207 -14.945,-4.277 -21.35,-7.484 m 83.268,55.585 c -4.273,1.069 -8.541,1.069 -13.879,2.139 -4.27,1.068 -9.608,2.137 -14.945,3.205 C 4.27,45.966 0,47.035 -5.337,48.105 c -6.403,2.138 -13.876,4.274 -20.283,6.414 -1.066,0 -1.066,1.068 -2.135,2.138 h 5.338 c 12.809,-3.208 25.621,-4.278 39.497,-6.414 4.271,-1.069 9.607,-2.138 13.879,-2.138 4.269,-1.07 8.538,-1.07 12.81,-2.139 1.066,0 3.202,1.069 4.27,2.139 3.2,4.274 7.472,8.552 11.741,12.827 2.138,2.137 3.203,4.277 5.338,7.482 H 62.983 43.769 c -7.474,0 -14.948,1.07 -22.418,1.07 -2.136,1.069 -5.339,1.069 -7.474,1.069 h -3.201 c 0,1.069 -1.068,1.069 -1.068,2.139 l 1.068,1.066 h 13.877 7.473 6.406 23.486 c 2.131,0 4.267,1.07 6.401,1.07 1.069,0 2.134,0 2.134,1.068 3.203,4.278 6.407,7.484 8.54,12.829 0,1.068 1.07,2.138 3.205,2.138 2.134,0 2.134,-2.138 2.134,-3.206 0,-2.138 0,-3.208 -1.065,-4.277 C 80.063,75.896 76.86,69.484 71.522,62.001 69.388,58.793 67.254,54.519 64.049,51.311 59.78,45.966 55.511,41.692 51.239,36.347 c 0,0 -1.069,-1.068 -1.069,-2.139 2.138,0 4.273,0 6.408,1.071 4.269,0 8.54,1.068 13.875,2.136 1.069,0 2.138,0 4.272,1.07 3.205,0 5.338,-2.138 7.473,-4.277 2.134,-3.206 4.269,-6.414 6.406,-9.621 1.066,-2.136 1.066,-3.206 -2.137,-4.273 -8.537,-1.07 -17.079,-1.07 -25.62,1.067 -5.336,1.07 -9.608,3.206 -14.945,5.345 -1.067,0 -2.133,1.068 -4.27,2.136 -3.2,-3.204 -7.473,-5.345 -10.673,-8.548 2.136,-1.07 3.2,-1.07 5.336,-1.07 7.474,-1.068 14.944,-3.209 21.35,-6.414 8.54,-4.277 16.011,-8.551 22.418,-14.966 3.204,-3.208 7.472,-7.482 11.742,-10.689 1.069,-2.139 3.203,-4.276 4.271,-6.414 h -1.068 c -7.473,2.138 -14.945,4.275 -21.352,7.484 -6.402,2.137 -11.738,6.411 -18.145,9.619 -3.203,3.207 -7.472,5.346 -10.676,7.482 -5.338,3.207 -9.607,7.484 -13.876,10.689 -1.068,1.07 -1.068,1.07 -2.138,2.141 C 25.622,16.035 22.419,13.9 19.215,10.691 30.959,7.484 42.7,4.279 52.308,-3.205 62.983,-9.618 71.522,-18.171 80.063,-26.721 v -1.07 c -3.203,1.07 -6.407,2.139 -9.61,3.209 -6.404,2.136 -11.741,4.272 -18.145,7.481 -7.473,3.205 -14.945,7.483 -22.417,12.827 -4.269,3.209 -8.54,6.413 -11.743,10.69 0,1.068 -1.068,2.137 -2.136,3.207 C 12.811,7.484 9.608,6.416 6.404,4.279 7.473,4.279 7.473,3.21 7.473,3.21 13.877,0 19.215,-3.205 24.553,-6.411 c 4.268,-2.137 7.473,-5.344 11.742,-7.485 10.676,-5.343 20.283,-11.756 30.959,-14.963 3.199,-1.07 7.471,-3.205 10.676,-5.347 2.133,-1.067 3.199,-3.206 4.268,-5.343 3.202,-9.62 6.406,-19.241 9.607,-27.795 1.069,-2.135 1.069,-3.205 1.069,-4.274 3.202,-6.414 5.337,-12.826 7.473,-19.238 1.065,-5.35 3.2,-10.693 5.337,-14.967 0,-2.139 1.068,-4.279 2.134,-6.416 v -2.137 c -1.066,0 -2.134,0 -2.134,1.07 -4.272,3.204 -8.541,7.483 -12.81,11.757 -8.542,6.415 -17.08,12.828 -26.689,18.174 -2.136,1.068 -3.202,2.137 -4.267,2.137 h -1.071 c 1.071,-1.069 2.136,-2.137 3.202,-4.276 2.136,-2.138 4.27,-5.342 7.473,-8.553 0,0 1.069,-1.067 1.069,-2.139 1.065,-1.066 0,-1.066 0,-1.066 0,-1.069 -1.069,-1.069 -1.069,-1.069 v 1.069 c -5.337,4.277 -12.81,6.416 -18.146,9.62 -5.337,2.138 -10.676,5.345 -17.081,8.552 0,0 -1.067,1.068 -3.2,1.068 1.064,-4.275 2.133,-7.482 2.133,-11.756 1.067,-2.141 2.135,-5.346 2.135,-8.553 1.069,-3.208 3.203,-5.347 4.269,-8.551 v -2.138 c -1.066,0 -1.066,0 -2.135,1.068 -4.269,3.205 -7.471,7.483 -11.741,11.756 -7.473,7.485 -14.945,13.899 -22.42,21.381 -3.2,2.138 -7.471,5.346 -10.673,8.553 -1.066,1.069 -1.066,1.069 -3.203,1.069 -10.673,-4.276 -22.417,-7.484 -33.093,-11.758 -1.066,0 -1.066,0 -2.135,-1.071 1.069,0 1.069,0 1.069,-1.068 7.472,-6.414 14.944,-13.895 23.486,-20.31 4.269,-4.278 8.537,-7.482 12.81,-10.692 5.336,-4.274 11.739,-9.62 17.079,-13.894 6.404,-5.345 11.743,-9.622 18.145,-14.968 6.407,-5.343 13.879,-11.754 20.283,-17.101 6.407,-5.345 12.814,-10.689 19.215,-16.036 4.272,-3.204 7.475,-6.414 11.744,-9.618 1.066,-1.07 2.135,-1.07 3.204,0 8.538,3.204 16.009,8.55 23.485,13.896 1.066,0 2.132,0 2.132,1.069 1.068,-2.138 1.068,-2.138 0,-3.208 -2.132,-3.207 -3.2,-5.343 -5.337,-7.482 -1.068,-1.071 -2.135,-3.206 -3.2,-4.275 -3.204,-2.138 -5.339,-5.345 -7.473,-7.481 0,-1.072 -1.069,-1.072 -1.069,-2.142 4.271,-5.343 9.607,-9.619 16.013,-13.893 1.066,-1.072 3.203,-2.142 4.27,-3.21 2.135,-1.068 4.268,-1.068 6.403,-1.068 6.407,3.206 13.879,5.345 20.283,8.552 7.472,4.276 13.879,8.554 20.287,12.827 h 2.13 v -2.138 c -2.13,-3.206 -4.269,-6.413 -6.404,-8.551 -7.473,-7.484 -16.013,-12.826 -25.617,-18.172 0,0 -1.07,0 -1.07,-1.067 h -1.068 c 2.138,-2.14 5.338,-3.208 7.474,-4.278 h 2.134 c 4.271,2.138 7.474,4.278 10.674,6.413 6.408,3.209 12.812,8.55 19.217,12.83 0,0 1.068,1.067 2.135,1.067 0,1.069 1.067,1.069 2.134,1.069 v -3.207 c -2.134,-2.139 -3.201,-5.345 -5.337,-7.481 -6.402,-6.413 -11.741,-12.83 -18.149,-18.174 -3.2,-3.207 -5.337,-4.274 -8.54,-6.412 -3.2,-3.208 -7.473,-3.208 -10.674,0 -8.537,6.412 -17.079,12.827 -24.553,19.24 -12.808,10.688 -25.617,21.38 -38.429,32.069 -8.54,7.482 -17.079,14.964 -25.621,22.447 -7.471,6.414 -13.875,11.761 -20.282,18.172 -8.539,6.414 -17.079,12.828 -24.552,20.311 -5.339,4.274 -10.676,8.552 -14.944,12.827 -9.608,8.552 -19.218,14.963 -28.823,22.448 -3.206,2.137 -5.339,5.346 -8.541,7.483 -1.067,1.067 -2.134,1.067 -3.203,1.067 -8.539,-2.136 -16.013,-4.273 -23.486,-6.413 -2.134,0 -4.269,0 -6.404,2.14 -4.269,2.137 -7.472,5.344 -11.741,8.55 -1.068,0 -2.135,1.069 -4.272,2.139 0,0 0,1.068 -1.068,2.137 h 2.136 c 3.204,0 6.405,1.069 9.608,0 9.607,0 19.214,1.069 28.823,3.209 14.942,2.137 29.891,5.342 44.835,8.549 2.136,0 5.338,1.07 7.473,1.07 -1.069,2.139 -2.135,3.207 -3.204,4.274 -3.2,2.137 -5.338,3.208 -7.472,6.417 -1.066,2.136 -4.269,4.273 -6.406,6.411 -1.068,1.071 -2.134,2.139 -3.201,3.208 -1.066,1.068 -2.134,1.068 -3.204,1.068 -4.268,-1.068 -9.607,-3.205 -13.879,-3.205 h -14.942 c -2.135,0 -5.338,1.068 -7.472,1.068 -1.07,0 -1.07,1.069 -2.137,1.069 1.067,1.068 1.067,1.068 2.137,1.068 4.269,1.068 8.539,1.068 12.808,2.139 5.338,1.067 11.745,2.138 17.08,3.209 1.068,1.068 2.137,1.068 3.203,1.068 -2.135,3.205 -4.269,5.344 -6.405,7.482 -1.066,3.204 -3.202,3.204 -6.405,2.139 -9.605,-3.207 -18.147,-5.346 -27.753,-8.554 -9.611,-3.206 -19.216,-4.277 -28.824,-4.277 -6.404,0 -12.81,0 -19.217,-1.067 -1.066,0 -3.2,0 -4.269,2.138 6.406,1.071 12.811,1.071 18.149,2.139 6.403,1.067 12.81,2.137 18.147,3.205 6.403,1.07 11.742,2.139 18.147,4.277 5.339,2.139 11.743,3.204 17.078,6.413 v 1.069 c -3.2,-1.069 -5.335,-1.069 -7.47,-1.069 h -8.537 c -7.476,-1.07 -14.947,-1.07 -22.42,-1.07 h -14.945 c -1.067,0 -2.135,-1.068 -3.205,0 0,2.139 1.07,2.139 2.138,2.139 5.336,1.068 10.673,2.136 14.945,3.207 h 1.067 c -3.202,2.138 -5.339,3.207 -7.474,4.277 -8.538,5.343 -17.08,10.687 -25.62,16.032 -1.066,0 -2.136,1.069 -2.136,1.069 -1.065,1.07 -2.133,2.138 -2.133,3.207 2.133,0 4.269,0 6.407,-1.069 6.402,-2.138 11.738,-5.345 17.078,-7.481 3.202,-2.139 6.404,-3.21 8.539,-4.275 3.204,-2.14 6.405,-4.279 9.607,-6.417 2.137,-1.066 4.272,-2.136 6.406,-3.205 1.067,-1.068 2.135,-1.068 2.135,0 9.611,0 20.283,1.069 29.891,2.139 9.608,2.137 18.148,4.274 27.755,7.483 1.068,0 1.068,0 3.202,1.065 -1.068,0 -2.134,1.071 -2.134,1.071 -10.675,5.345 -21.351,10.689 -32.027,16.034 -4.269,2.139 -9.605,4.276 -13.878,6.412 -4.269,3.209 -8.54,7.485 -11.74,10.691 -1.069,1.071 -1.069,2.139 -1.069,2.139 1.069,0 2.135,1.068 2.135,0 2.134,0 4.272,-1.068 6.405,-2.139 8.542,-4.277 16.015,-8.55 24.552,-12.827 9.609,-4.276 19.218,-8.551 27.756,-11.758 4.269,-2.139 8.542,-3.207 12.811,-4.277 h 4.268 C -4.269,9.623 2.136,13.9 9.608,18.176 h 1.068 c -3.203,1.068 -5.34,2.138 -7.472,3.205 -8.541,3.206 -18.148,7.481 -26.69,10.689 -6.403,3.209 -12.807,5.345 -18.147,8.552 -6.405,3.207 -11.742,7.483 -17.079,10.689 l -1.067,1.068 v 1.07 h 1.067 1.067 c 6.405,-5.344 13.877,-8.552 22.418,-10.689 10.675,-3.207 22.416,-7.481 33.092,-10.69 7.471,-2.139 14.946,-4.276 21.35,-6.412 1.068,-1.071 2.136,-1.071 3.204,0 5.337,4.273 10.676,8.55 16.013,13.895" /></g><g
           transform="translate(712.7402,618.2651)"
           id="g28"><path
             id="path30"
             style="fill:#000000;fill-opacity:1;fill-rule:evenodd;stroke:none"
             d="m 0,0 c 25.62,5.345 51.239,13.897 76.859,23.517 v 1.07 c -2.133,0 -4.268,1.071 -6.404,1.071 -1.068,1.066 -3.203,1.066 -4.271,1.066 0,1.069 -1.066,1.069 -1.066,2.138 1.066,0 1.066,1.07 2.134,1.07 2.135,-1.07 4.269,-1.07 6.404,-2.139 2.135,0 3.203,-1.069 5.338,-1.069 7.473,0 16.013,-1.066 24.555,-2.137 9.603,-1.07 19.214,-2.138 28.821,-3.208 7.473,-1.067 16.013,-2.137 24.555,-2.137 13.876,-1.069 27.753,-1.069 41.629,-1.069 4.271,0 8.54,3.206 12.809,5.344 -5.335,0 -9.606,1.07 -13.877,1.07 -11.74,1.071 -24.551,2.137 -36.295,2.137 -5.335,1.069 -11.741,1.069 -17.08,1.069 -6.404,0 -13.875,0 -21.348,1.069 -6.406,0 -12.812,1.07 -19.214,1.07 -4.275,0 -8.542,0 -12.814,1.068 -1.065,0 -3.2,0 -4.268,1.069 h 3.203 c 6.404,1.071 11.744,1.071 18.147,1.071 9.609,-1.071 18.149,-1.071 26.688,-1.071 10.676,0 21.351,1.071 32.024,3.208 4.272,0 9.608,1.068 13.879,2.137 v 1.071 h -1.069 -27.754 -12.812 c -4.268,0 -9.607,0 -13.876,1.068 -5.336,0 -9.607,0 -14.946,1.069 -9.608,1.066 -18.147,2.136 -27.753,3.207 -4.27,1.068 -7.472,1.068 -10.677,2.137 -3.203,0 -3.203,0 -4.269,1.069 l 1.066,1.069 h 11.745 c 6.404,0 12.81,1.067 19.211,1.067 12.815,1.07 26.692,1.07 39.499,0 4.27,-1.067 8.541,-1.067 12.812,-1.067 7.473,0 14.944,-1.069 23.485,-1.069 7.472,0 16.011,0 24.552,-1.069 7.472,0 16.013,-1.069 23.486,-1.069 12.807,-2.139 25.618,-4.275 39.496,-4.275 6.408,0 12.81,0 20.284,-1.069 1.068,0 3.202,-1.068 5.337,-2.139 4.269,-1.069 7.474,-4.274 11.743,-6.414 1.068,0 1.068,-1.068 1.068,-1.068 0,-1.07 -1.068,-1.07 -1.068,-1.07 -2.135,-1.069 -5.339,-1.069 -7.474,-2.138 -5.337,-1.066 -11.741,-2.137 -17.08,-3.207 -6.402,-1.068 -13.875,-2.138 -21.347,-2.138 -8.542,1.07 -17.083,1.07 -25.622,2.138 -2.136,0 -3.206,0 -5.337,-2.138 -4.27,-4.274 -10.675,-6.412 -16.014,-8.552 -5.337,-1.068 -9.608,-3.205 -13.876,-4.274 -8.54,-4.276 -17.081,-7.482 -26.689,-10.69 -5.338,-2.136 -11.742,-4.275 -17.079,-7.483 -4.269,-2.137 -8.538,-4.275 -11.743,-6.414 -7.471,-3.205 -16.013,-7.482 -23.485,-10.687 -12.808,-4.278 -25.618,-8.552 -38.431,-13.898 -9.607,-3.207 -19.215,-5.345 -28.821,-7.483 -4.272,-1.068 -9.608,-1.068 -13.879,-2.137 h -4.269 c -3.202,-1.069 -6.404,-1.069 -9.607,-1.069 0,0 -1.069,0 -1.069,1.069 l 1.069,1.069 c 3.203,0 5.337,0 8.539,1.068 6.405,2.138 12.809,4.276 19.216,5.346 4.269,2.137 8.538,3.205 12.811,4.275 4.269,1.069 8.537,3.208 12.81,4.276 5.337,2.136 10.673,4.276 16.013,6.414 5.335,2.136 10.67,4.275 16.011,6.412 6.406,2.14 12.811,4.277 19.213,7.484 3.205,1.069 6.408,2.138 9.61,4.275 1.067,1.07 3.201,2.139 5.335,3.208 h -6.403 c -7.473,1.068 -14.944,1.068 -22.419,2.139 -7.472,1.065 -14.944,1.065 -21.347,3.205 C 80.063,0 72.591,1.071 65.118,2.139 60.845,3.208 56.576,3.208 52.305,4.277 c -1.066,0 -3.2,0 -4.269,1.068 0,1.069 1.069,1.069 1.069,1.069 h 7.471 c 1.07,0 2.136,0 2.136,-1.069 h 22.416 12.811 c 7.475,-1.068 14.945,-1.068 21.351,-2.137 h 8.538 c 12.811,-1.069 24.555,-2.137 37.363,-1.069 1.07,0 2.135,0 3.204,1.069 3.2,2.137 6.406,3.206 10.675,5.345 -1.068,1.069 -2.135,1.069 -3.203,1.069 -11.742,0 -22.417,2.137 -33.094,3.205 -6.403,1.07 -11.74,2.14 -18.147,3.208 -3.2,1.07 -6.404,1.07 -9.605,1.07 -5.338,1.068 -10.678,2.137 -16.014,3.207 -3.203,0 -6.403,1.067 -9.609,1.067 -2.134,1.07 -3.2,0 -5.335,-1.067 C 72.591,17.105 65.118,13.897 57.646,10.69 51.239,8.553 45.9,6.414 39.496,4.277 32.021,1.071 24.552,-1.068 16.011,-1.068 11.742,-2.137 7.474,-2.137 3.202,-2.137 H 0 Z" /></g><g
           transform="translate(453.3335,524.1987)"
           id="g32"><path
             id="path34"
             style="fill:#000000;fill-opacity:1;fill-rule:evenodd;stroke:none"
             d="m 0,0 c 3.206,0 5.339,1.069 7.476,1.069 5.338,1.068 10.673,1.068 16.013,1.068 h 2.136 c 1.065,0 3.198,0 4.268,1.069 6.405,2.139 11.745,4.276 17.079,7.483 6.404,3.207 11.744,7.482 17.083,13.896 1.068,1.069 2.131,2.139 3.2,4.277 2.136,2.136 3.204,5.344 5.339,7.483 v 2.134 C 71.525,37.414 71.525,37.414 70.459,36.345 65.123,32.067 59.784,26.724 54.448,22.449 49.108,19.241 43.769,16.033 37.365,12.827 30.959,9.619 23.489,6.414 14.947,6.414 c -5.334,0 -11.741,0 -17.078,2.136 -2.138,0 -5.339,1.069 -7.472,1.069 -1.068,1.07 -2.136,1.07 -4.272,2.139 2.136,2.138 4.272,1.069 6.405,1.069 7.47,0 14.946,0 23.485,1.069 4.271,1.068 7.474,2.137 11.744,4.275 8.539,3.208 14.945,8.553 21.349,13.896 3.201,3.21 7.475,5.347 10.676,8.553 9.607,8.551 19.216,16.034 28.823,24.586 7.47,5.344 12.81,12.826 19.214,19.24 4.269,5.347 8.539,9.62 12.807,13.897 1.069,2.137 4.273,4.277 6.408,5.345 3.203,2.138 6.403,4.276 10.675,6.413 4.269,1.071 8.54,2.139 11.741,2.139 1.068,1.069 3.204,1.069 4.272,1.069 14.944,6.416 30.956,10.69 46.97,13.898 8.538,1.065 17.078,3.204 24.552,4.273 11.744,2.139 22.417,4.275 34.161,5.345 9.607,0 18.146,1.071 27.754,2.138 6.405,0 12.809,0 19.215,-1.067 6.405,-1.071 12.812,-1.071 19.214,-2.141 3.203,-1.067 7.473,-1.067 10.676,-2.136 h 2.135 c 1.068,-1.068 1.068,-1.068 2.134,-2.139 -1.066,0 -1.066,-1.069 -2.134,-1.069 -3.203,0 -5.338,-1.068 -8.539,-1.068 -11.743,-1.071 -22.419,-1.071 -34.16,-1.071 -11.744,0 -22.417,-1.065 -34.16,-2.136 -5.338,0 -10.675,0 -16.014,-1.07 -9.607,-1.067 -18.147,-2.138 -27.756,-4.276 -10.674,-1.065 -21.35,-3.207 -30.957,-6.412 -9.605,-2.138 -19.215,-4.277 -28.822,-7.484 -7.473,-1.068 -13.878,-5.345 -19.214,-10.689 -4.272,-3.206 -8.54,-7.483 -12.811,-11.759 -2.134,-4.274 -6.405,-7.482 -9.608,-10.688 -5.339,-5.346 -10.674,-11.76 -16.012,-18.173 -1.065,0 -1.065,-1.069 -1.065,-2.138 0,-4.276 -2.138,-7.483 -4.272,-10.689 C 92.875,37.414 88.607,32.067 85.404,26.724 81.131,21.379 76.863,18.171 71.525,14.964 65.123,10.689 58.716,6.414 51.242,3.206 43.769,0 36.298,-2.138 27.759,-3.208 c -7.473,0 -16.014,0 -24.553,1.07 -1.067,0 -1.067,0 -3.206,2.138" /></g><g
           transform="translate(754.3721,254.8232)"
           id="g36"><path
             id="path38"
             style="fill:#000000;fill-opacity:1;fill-rule:evenodd;stroke:none"
             d="m 0,0 c 4.269,1.068 8.539,1.068 11.742,2.136 7.471,2.139 13.878,4.277 20.282,5.348 1.07,1.069 2.135,1.069 2.135,1.069 1.069,0 2.137,-1.069 2.137,-1.069 0,0 0,-1.071 -1.068,-1.071 C 30.959,4.275 27.755,2.136 23.486,0 19.213,-2.138 14.944,-4.277 9.607,-6.415 c -5.338,-2.136 -10.675,-4.274 -17.08,-5.344 -3.203,-1.069 -5.337,0 -7.472,3.208 -2.135,3.204 -5.338,5.343 -7.472,8.551 -7.473,7.484 -14.944,14.966 -22.418,22.447 -4.269,5.345 -10.676,9.622 -16.013,14.968 -6.404,5.343 -11.743,11.756 -18.145,18.17 -9.611,8.551 -18.149,17.103 -27.759,25.655 -10.673,10.689 -21.349,20.311 -33.091,29.931 -10.676,9.621 -21.349,18.172 -34.16,25.656 -3.201,2.136 -6.407,4.275 -9.607,6.413 -1.069,1.069 -1.069,1.069 -2.136,2.137 2.136,0 3.202,1.067 4.27,0 7.473,-1.068 16.013,-1.068 23.486,-4.275 5.338,-2.139 11.742,-4.275 17.079,-7.482 1.068,-1.072 2.139,-2.139 3.203,-3.211 4.27,-5.343 7.473,-10.685 11.743,-16.033 8.54,-11.757 20.282,-22.447 30.958,-32.067 4.27,-4.278 7.472,-8.55 11.74,-12.828 4.274,-3.205 7.474,-7.484 11.746,-10.689 6.404,-5.346 11.741,-11.759 17.077,-17.103 1.068,-1.07 2.136,-1.07 3.205,-2.138 4.269,-3.208 8.539,-3.208 11.742,0 5.339,3.207 10.676,6.414 16.012,9.62 0,0 1.068,0 2.136,1.071 v -2.141 c -1.068,-4.275 -4.272,-6.412 -7.472,-9.62 -3.203,-3.208 -6.407,-5.343 -9.609,-8.55 3.202,-3.207 6.406,-6.412 9.609,-8.551 4.268,-4.277 8.538,-7.483 11.741,-10.692 1.068,-1.068 2.135,-1.068 4.27,-1.068 6.406,1.068 12.81,2.137 20.284,3.207 4.268,1.07 8.54,2.139 12.808,4.276 h 1.067 c 1.069,0 2.137,-1.067 2.137,-1.067 0,0 0,-1.07 -1.068,-1.07 C 20.282,12.827 17.08,11.757 14.944,10.688 9.607,7.484 5.338,5.346 1.066,2.136 0,2.136 0,1.068 -1.068,0 Z" /></g><g
           transform="translate(570.7617,509.2329)"
           id="g40"><path
             id="path42"
             style="fill:#000000;fill-opacity:1;fill-rule:evenodd;stroke:none"
             d="m 0,0 c 5.338,-2.136 9.607,-5.344 14.944,-7.48 9.608,-5.349 18.148,-9.623 27.755,-12.83 7.473,-3.205 14.947,-4.274 22.419,-6.413 1.068,-1.071 3.201,-1.071 4.269,-2.137 l 1.068,-1.07 c 0,0 -1.068,-1.07 -2.136,-1.07 -7.474,-2.138 -14.944,-1.069 -22.417,2.14 -6.406,3.204 -12.81,6.411 -20.282,9.618 C 17.079,-14.964 8.54,-9.619 1.066,-3.207 0,-2.136 -1.068,-1.068 0,0" /></g><g
           transform="translate(804.5439,611.853)"
           id="g44"><path
             id="path46"
             style="fill:#000000;fill-opacity:1;fill-rule:evenodd;stroke:none"
             d="m 0,0 c -1.068,-1.069 -2.134,-2.138 -4.269,-3.208 -4.271,-3.206 -9.607,-5.344 -13.878,-6.414 -9.607,-3.205 -19.214,-4.274 -27.756,-5.345 -7.471,-1.068 -14.945,-1.068 -22.417,-1.068 -5.337,-1.069 -10.673,-1.069 -14.945,-1.069 h -1.065 c -1.069,0 -1.069,1.069 -1.069,1.069 0,1.068 0,1.068 1.069,1.068 1.065,0 2.134,0 4.268,1.071 6.405,0 12.81,0 19.214,1.069 9.608,1.066 19.215,3.205 28.826,5.345 6.402,1.068 11.74,3.204 17.078,4.274 4.268,1.07 8.539,3.208 12.81,4.276 C -1.068,2.139 0,1.068 0,0" /></g><g
           transform="translate(436.2578,548.7837)"
           id="g48"><path
             id="path50"
             style="fill:#000000;fill-opacity:1;fill-rule:evenodd;stroke:none"
             d="m 0,0 h 2.134 10.673 c 2.137,1.069 5.34,1.069 8.542,2.139 3.203,0 7.471,0 11.741,1.069 3.206,0 7.474,1.069 10.676,2.139 2.133,1.066 5.338,2.135 7.472,2.135 h 2.136 C 52.308,6.413 52.308,6.413 52.308,5.347 48.035,3.208 43.766,0 39.496,-3.206 c -3.2,-1.07 -6.406,-3.208 -9.606,-4.275 -4.273,-1.071 -7.475,0 -10.676,1.067 -5.335,1.07 -10.675,3.208 -17.08,4.278 0,0 -1.07,1.067 -2.134,1.067 z" /></g><g
           transform="translate(430.9189,456.8564)"
           id="g52"><path
             id="path54"
             style="fill:#000000;fill-opacity:1;fill-rule:evenodd;stroke:none"
             d="m 0,0 c -2.134,-2.139 -3.203,-3.209 -4.269,-4.277 -3.204,-2.137 -5.336,-5.347 -7.472,-7.485 -2.137,-3.205 -4.273,-2.136 -5.338,1.071 -2.137,3.209 -4.271,7.482 -6.407,10.691 1.066,0 1.066,1.068 1.066,1.068 C -17.079,-1.07 -11.741,0 -7.473,0 h 5.339 z" /></g><g
           transform="translate(564.3545,465.4062)"
           id="g56"><path
             id="path58"
             style="fill:#000000;fill-opacity:1;fill-rule:evenodd;stroke:none"
             d="m 0,0 c -3.2,1.068 -7.47,2.137 -11.738,4.277 -4.272,2.137 -9.611,4.273 -13.879,7.481 h -1.069 c 0,1.069 -1.067,1.069 -1.067,2.138 h 2.136 c 2.135,0 5.337,-1.069 8.542,-2.138 C -10.673,9.621 -4.269,6.414 1.069,2.137 2.138,2.137 2.138,1.068 2.138,1.068 2.138,1.068 1.069,0 0,0" /></g></g></g></g></svg>