<?xml version='1.0' encoding='utf-8'?>
<svg xmlns="http://www.w3.org/2000/svg" viewBox="0 0 448.92 494.59"> <g transform="translate(-68.872 -314.73)"> <path d="m333.03 808.06c-1.7252-2.5437-2.1061-21.816-0.4668-23.616 0.89349-0.98107 1.5247-4.1067 1.4026-6.9459-0.125-2.9067 0.65519-5.9226 1.7856-6.9027 4.9713-4.3101 16.045-11.248 34.316-21.501 9.0335-5.069 11.274-7.0394 13.255-11.657 4.3142-10.055 0.33259-17.985-13.358-26.603-17.222-10.841-28.117-29.111-27.514-46.139 0.74646-21.072 0.56061-23.571-2.0205-27.161-3.2681-4.5452-2.3169-5.4979 2.1791-2.1826 3.1121 2.2949 3.4763 3.6033 3.4247 12.307-0.03173 5.3563-0.27767 13.329-0.54655 17.717-0.32806 5.3538 0.38917 10.231 2.1804 14.827 3.2157 8.2505 13.731 22.308 16.687 22.308 1.1669 0 2.7769 1.1272 3.5777 2.5049 2.1719 3.7363 4.2098 3.2914 5.3964-1.178 0.94353-3.5539 0.99663-3.4626 0.49533 0.8521s0.12841 5.3976 5.8506 10.083c3.5266 2.8878 6.7472 4.9451 7.1568 4.5719 1.3024-1.1868 11.427-0.3655 12.354 1.0022 0.49001 0.7225 2.9212-1.5023 5.4027-4.9441 2.7476-3.8109 7.7004-8.0737 12.666-10.902 7.5582-4.3043 8.1561-5.0114 8.1732-9.6664 0.01019-2.7623-1.1267-6.6151-2.5264-8.5618-1.7736-2.4666-2.5459-6.2002-2.5481-12.318-0.00265-7.2679 0.65439-9.6766 3.8174-13.995 3.712-5.0677 12.924-11.297 12.924-8.7392 0 0.69895-2.2423 2.4764-4.9829 3.95s-5.7845 4.0701-6.7641 5.7702c-1.6957 2.9428-1.6488 2.9902 0.97877 0.9876 1.518-1.1569 4.8726-2.865 7.4548-3.7957s6.3497-3.2003 8.3724-5.0435c2.4603-2.242 3.6775-2.7204 3.6775-1.4454 0 1.0482-0.78627 2.6224-1.7473 3.4981-2.2034 2.0079-0.88972 2.0257 3.8629 0.05239 4.1831-1.7368 4.7601-3.4832 1.5246-4.6146-3.6617-1.2805-2.4598-4.8329 3.1828-9.4075 5.1609-4.184 5.2588-4.4231 2.5499-6.2282-2.7067-1.8036-2.6603-1.913 1.1853-2.7925 4.8459-1.1083 5.1977-2.8871 0.72627-3.6719-2.5915-0.45484-2.3633-0.61701 1.092-0.77602 2.4025-0.11056 5.351-0.78814 6.5523-1.5057 1.557-0.93006 0.8407-1.0699-2.4945-0.48701-8.6892 1.5186-11.564-0.10391-14.975-8.4523-4.0894-10.009-9.9061-18.149-23.772-33.268-6.2657-6.832-11.006-12.773-10.535-13.203 2.7089-2.4686 29.682 28.629 34.723 40.032 3.9345 8.9006 6.5996 11.67 10.222 10.623 1.58-0.45697 7.6819-3.6918 13.56-7.1884 13.393-7.9674 21.872-9.4483 31.614-5.5214 3.6002 1.4512 7.2132 3.775 8.0289 5.1638 0.82255 1.4006 6.7519 13.674 6.6586 23.566-0.09247 9.8089-5.9823 13.135-6.5571 11.311-0.81442-2.5847-1.0772-1.9446-1.1904 2.8991-0.07982 3.4189-0.90926 7.8971-1.8432 9.9515s-1.753 4.3324-1.8201 5.0621-0.77722 1.336-1.578 1.3472c-2.8078 0.03917-5.0962 2.1506-5.0962 4.702 0 1.4165-0.69389 2.5754-1.542 2.5754s-1.0796-0.74636-0.51441-1.6586c0.80941-1.3065 0.62153-1.3158-0.88503-0.04401-1.5723 1.3273-1.416 2.621 0.87844 7.2708 1.5351 3.1109 2.5999 6.1909 2.3663 6.8444s0.7492 2.4103 2.1841 3.904 1.7983 2.2841 0.80763 1.7565c-2.0455-1.0893-10.575-12.051-10.575-13.59 0-0.55533 0.96201 0.14935 2.1378 1.5659 2.3447 2.8249 3.0178 1.121 0.81266-2.0573-1.5852-2.2849-3.738-0.80959-4.8243 3.3061-0.38525 1.4595-0.77648 0.11609-0.86937-2.9854s-0.76278-5.6392-1.4886-5.6392-1.035 1.3434-0.68697 2.9854c0.62047 2.9273 0.60357 2.9249-0.86716-0.12254-0.82498-1.7094-1.075-3.7992-0.55551-4.644 0.69428-1.1291 0.45475-1.1238-0.90412 0.02021-1.0944 0.92135-2.005 5.5651-2.232 11.382l-0.38334 9.8262 7.1973 6.5302c3.9585 3.5916 9.2896 7.2312 11.847 8.0879s3.5454 1.6031 2.1961 1.6586c-4.7533 0.19558-10.572-2.7498-16.319-8.2607-4.6451-4.4544-5.266-4.7728-3.0991-1.5898 1.4904 2.1894 3.9089 4.7608 5.3743 5.7144 3.3916 2.2069 3.472 4.7758 0.11638 3.7171-1.4014-0.44214-0.58243 0.68519 1.8201 2.5052 5.7552 4.3598 3.1264 4.2922-3.166-0.08141-2.6933-1.872-4.4558-4.0541-3.9166-4.849 0.6051-0.89221 0.30061-1.0626-0.7956-0.44521-1.3429 0.75633-1.1972 1.5829 0.5979 3.3904 2.9832 3.0039 0.28498 5.0045-3.3399 2.4764-1.3664-0.95297-0.90858-0.12108 1.0173 1.8486 3.1075 3.1782 3.693 3.3429 5.2013 1.4631 1.5179-1.8917 2.122-1.7615 5.6498 1.2179 2.1941 1.853 5.0694 3.0694 6.4679 2.7361 1.3848-0.32999 4.1465 0.04366 6.1372 0.83035 3.5678 1.4099 3.5606 1.4197-0.50678 0.68321-2.4468-0.44307-3.7765-0.23158-3.2671 0.51957 0.47251 0.6967 0.036 1.5691-0.97003 1.9387-1.0469 0.38462-0.67194 0.71681 0.8768 0.77676 2.1188 0.08202 2.5143 0.80078 1.8226 3.3121-0.54127 1.9653-0.17951 3.5099 0.93418 3.9885 0.99967 0.42966-0.01022 0.46177-2.2442 0.07136-2.4921-0.43551-5.3056 0.10279-7.2803 1.3929-3.1841 2.0803-3.1718 2.0948 1.1497 1.3574 2.4025-0.40996 3.397-0.34728 2.2101 0.13926-2.6359 1.0805-6.4499 4.4387-5.0411 4.4387 0.55943 0-3.6527 4.48-9.3604 9.9555s-10.378 10.849-10.378 11.942-0.62872 1.9863-1.3971 1.9863-3.0001 1.5754-4.9594 3.5008c-2.51 2.4668-3.4527 4.759-3.1913 7.7604 0.39644 4.553 5.7768 10.609 8.2086 9.2393 5.2187-2.9392 7.6182 9.5064 3.5453 18.389-2.7517 6.0014-4.6418 7.0279-7.9368 4.3106-2.0516-1.692-2.4897-3.5567-1.9786-8.4229 0.36098-3.4374 1.2249-7.8881 1.9198-9.8905 1.0227-2.9469 0.73551-3.8982-1.5071-4.9919-1.5238-0.74316-3.1952-3.4137-3.7142-5.9346-0.8318-4.0405-1.1981-4.3514-3.0922-2.6254-1.1817 1.0769-2.5872 1.7112-3.1233 1.4096s-1.0116 2.9734-1.0569 7.2776c-0.06748 6.421 0.38997 7.9626 2.5481 8.5867 1.4467 0.41843 2.6303 1.5431 2.6303 2.4992s0.98285 2.4817 2.1841 3.3902 2.1841 2.319 2.1841 3.1344-1.6381-0.12729-3.6402-2.0949-3.6402-4.2006-3.6402-4.9622-1.0539-1.3848-2.3419-1.3848c-1.794 0-2.12-0.80581-1.3934-3.4438 0.62893-2.2834-0.11516-5.4461-2.2083-9.3863l-3.1568-5.9425 4.1863-5.0386c12.802-15.408 16.582-19.74 20.826-23.868l4.6852-4.5562-4.1104-1.9077c-2.2607-1.0492-5.5339-3.09-7.2738-4.5349s-6.4903-4.0318-10.556-5.7485-7.393-3.6022-7.393-4.19-1.3104-1.8145-2.9121-2.726-2.9121-1.088-2.9121-0.39221 3.7104 3.6863 8.2454 6.6456 7.6118 5.3805 6.8374 5.3805c-3.402 0-15.061-8.1784-21.596-15.148-8.5004-9.067-14.306-11.819-19.696-9.3368-4.5381 2.0897-9.1682 6.665-12.098 11.954-2.0943 3.7815-2.058 4.1618 0.53795 5.6392 1.531 0.87131 4.7352 1.5842 7.1204 1.5842 6.593 0 8.9967 6.7262 3.467 9.7013-1.1007 0.59218-1.6488 1.5962-1.2182 2.2312 0.96966 1.4298-4.9076 5.3167-8.039 5.3167-4.1191 0-25.916 10.353-27.509 13.066-0.85299 1.4524-3.4011 3.011-5.6624 3.4636s-7.3448 3.2641-11.297 6.2478c-5.8043 4.3824-7.185 6.2211-7.185 9.5681 0 3.7365-0.40722 4.1154-4.1486 3.86-3.8283-0.2613-4.0725-0.00514-3.1627 3.3172 0.54226 1.9802 1.9177 4.543 3.0566 5.6951 3.4588 3.4992 2.3831 6.5012-4.7654 13.298-6.5161 6.1959-10.907 7.9949-12.779 5.2355zm11.431-8.1962c6.1231-6.3656 6.2368-6.915 2.3594-11.407-1.6017-1.8555-2.9121-4.4873-2.9121-5.8484 0-5.2953-5.9037-2.2348-8.0236 4.1595-1.0958 3.3053-1.0886 3.3081 2.0148 0.78213 4.9002-3.9884 5.5386-1.223 0.80648 3.4934-2.3441 2.3363-3.0996 3.4392-1.6787 2.4508 3.9209-2.7274 4.8957-0.49853 1.3053 2.9842-3.1471 3.0527-4.0374 6.2974-2.1898 7.981 1.7699 1.6128 3.0001 0.93315 8.3184-4.5957zm130.66-4.6181c1.887-7.6839 0.67368-10.89-3.5605-9.4098-2.6295 0.91952-4.4756 10.049-3.1468 15.562 1.4017 5.8157 4.4562 3.0139 6.7073-6.1523zm11.485-57.613c0-0.75269-1.1466-1.7526-2.5481-2.222s-3.0721-1.6448-3.7125-2.6121-2.2457-1.7586-3.5674-1.7586c-1.7384 0-1.9628-0.4011-0.81132-1.4504s2.5846-0.85748 5.1822 0.69353c2.0989 1.2532 4.6825 1.7621 6.2188 1.2249 1.7035-0.59571 2.2872-0.41642 1.6592 0.50957s0.16062 1.1594 2.2717 0.65637c2.2617-0.53897 2.5922-0.95656 1.0941-1.3824-1.1806-0.33561-3.3723-1.1862-4.8704-1.8901-1.9138-0.89928-2.4295-0.84595-1.7342 0.1793 1.1306 1.667 0.56945 1.7983-2.7404 0.64086-1.6813-0.58793-1.9163-1.284-0.83438-2.472 1.1447-1.2569 0.70727-1.5144-1.8236-1.0736-2.125 0.37018-4.3183-0.41562-6.0626-2.1721-3.1892-3.2113-4.7086-3.498-4.7086-0.8883 0 1.1464 0.88739 1.5615 2.3054 1.0784 1.9476-0.66348 2.012-0.45626 0.41464 1.3352-1.4542 1.6309-1.4873 2.3478-0.14343 3.1047 1.2612 0.7103 0.97704 1.5311-1.0213 2.9504-2.2971 1.6314-2.3426 1.8327-0.26723 1.1823 1.3758-0.43121 2.8888-0.21299 3.3621 0.48492s2.0522 1.2689 3.5085 1.2689 3.4636 0.89563 4.4605 1.9903c2.0895 2.2943 4.3682 2.6187 4.3682 0.62179zm-13.756-9.1331c-0.46882-0.69126-0.23177-1.6064 0.5268-2.0336s1.7628-0.21119 2.2316 0.48007 0.23177 1.6064-0.5268 2.0336-1.7628 0.2112-2.2316-0.48005zm29.239-0.51517c0.64476-0.58591 0.07698-0.68228-1.2617-0.21415-3.3304 1.1646-6.4911-0.64149-3.821-2.1833 1.6114-0.93044 1.573-1.1482-0.20857-1.1813-1.431-0.02662-1.6269-0.37675-0.5682-1.0155 1.0171-0.61361-0.19691-2.0585-3.2761-3.8992-2.6906-1.6084-4.892-2.3758-4.892-1.7053s1.3288 1.8671 2.9529 2.6592 2.5683 2.0073 2.0982 2.7004 0.00295 1.2793 1.0512 1.3025c1.266 0.02803 1.0504 0.6341-0.64209 1.8049-1.4015 0.96947-2.5479 1.9954-2.5477 2.2798 8.3e-4 0.99699 9.9549 0.50614 11.115-0.54811zm-45.996-6.1167c-2.2865-4.0842-3.5398-5.0407-5.8755-4.4841-2.3255 0.55415-2.7658 0.22493-2.0314-1.5189 0.51565-1.2246 1.7782-1.9325 2.8057-1.5732 1.056 0.36928 0.20553-2.1712-1.9564-5.844-2.5029-4.252-4.212-5.9416-4.9458-4.8893-1.9623 2.8139-1.2558 6.1784 1.6441 7.8286 2.0695 1.1778 2.4602 2.1948 1.4826 3.8593-1.0337 1.7601-0.04367 3.317 4.4745 7.0367 3.191 2.6271 6.1409 4.7765 6.5553 4.7765s-0.55447-2.3362-2.153-5.1916zm8.0581 0.1843c-2.5072-2.1884-2.5383-2.1601-0.69648 0.63467 1.0602 1.6088 2.2411 2.6395 2.6242 2.2904s-0.48439-1.6654-1.9277-2.9251zm17.363-0.29299c-0.49229-0.72584-2.3328-1.9537-4.0901-2.7287-3.027-1.3348-3.0143-1.2654 0.24239 1.3198 3.7098 2.9448 5.2791 3.5194 3.8477 1.4089zm-13.837-2.6609c0-0.72977-0.69389-1.3268-1.542-1.3268s-1.137 0.59708-0.6421 1.3268 1.1888 1.3269 1.542 1.3269 0.64209-0.59708 0.64209-1.3269zm3.7548-2.3536c-2.5072-2.1884-2.5383-2.1601-0.69648 0.63468 1.0602 1.6088 2.2411 2.6395 2.6242 2.2904s-0.48437-1.6654-1.9277-2.9251zm-31.42-0.80109c0-0.27552-1.1466-1.3204-2.5481-2.322-2.3094-1.6505-2.3609-1.6035-0.54975 0.50097 1.9022 2.2102 3.0978 2.9131 3.0978 1.821zm19.734-2.0394c-0.45268-0.66744-0.18757-1.4138 0.58912-1.6586s-1.2252-3.5923-4.4487-7.4389-6.4758-6.6476-7.2273-6.2243c-0.76199 0.42914-1.4412-1.7596-1.5354-4.9479-0.09289-3.1446-0.48336-4.6025-0.86771-3.2397-1.2782 4.5323 1.1791 14.116 4.4061 17.183 1.7506 1.6641 2.4413 2.1007 1.535 0.97028s-2.0842-3.548-2.6176-5.3725c-0.89824-3.0725-0.83716-3.1219 0.828-0.66974 0.98879 1.4561 3.2562 4.0807 5.0387 5.8324s2.9003 3.9937 2.4841 4.9821 0.00728 1.797 0.94106 1.797 1.3274-0.54611 0.87474-1.2135zm8.9022-2.0452c0-1.0626-0.55672-1.6184-1.2372-1.2352s-0.86018 1.2526-0.39941 1.9319c1.1774 1.736 1.6366 1.5406 1.6366-0.69674zm-30.798-9.3464c-1.4608-5.0875-2.1579-6.0648-2.99-4.1917-0.65031 1.464-0.10221 4.3208 1.368 7.1303 3.2952 6.2969 3.9389 5.1307 1.622-2.9386zm-5.3857 2.6481c-0.91375-1.8275-1.9424-3.0667-2.2858-2.7537-1.0284 0.93716 1.1879 6.0765 2.6205 6.0765 0.72969 0 0.57911-1.4952-0.33465-3.3228zm43.95-1.9847c-2.8032-5.0073-4.375-6.5609-4.3627-4.3123 0.00764 1.3985 5.6097 9.6198 6.555 9.6198 0.42847 0-0.55806-2.3884-2.1923-5.3074zm-49.239 1.0394c-1.0448-0.95211-1.723-1.0304-1.723-0.19904 0 0.75411 0.43682 1.7692 0.97072 2.2557s1.3092 0.57609 1.723 0.19902-0.02305-1.3921-0.97071-2.2557zm15.8-2.451c1.1938-2.0328 1.1611-3.2296-0.12706-4.644-3.5417-3.8889-5.797-0.39148-3.4071 5.2837 1.1505 2.7322 1.6018 2.6505 3.5342-0.63971zm-13.967-8.7862c-2.5735-2.3253-2.6298-2.3245-1.6537 0.02321 0.55583 1.3368 1.0106 3.0982 1.0106 3.9142 0 1.0801 0.44986 1.0738 1.6537-0.02323 1.2342-1.1247 0.97785-2.1176-1.0106-3.9142zm33.721-18.638c-0.69478-0.63312-5.2603 9.905-5.1751 11.945 0.03746 0.89744 1.3321-1.3184 2.8769-4.9241s2.579-6.7652 2.2982-7.0211zm36.029 10.866c-0.47423-1.1261-1.1745-1.763-1.5562-1.4152s-0.26207 1.2692 0.26579 2.0475c1.4358 2.117 2.2749 1.7057 1.2904-0.63238zm-66.266-22.329 3.8806-3.8098-4.6036 2.1247c-4.4315 2.0452-10.685 8.0332-10.685 10.231 0 0.58385 0.72649 2.7424 1.6144 4.7968l1.6144 3.7353 2.1492-6.6343c1.1821-3.6489 3.8955-8.3487 6.0299-10.444zm44.708 3.478 2.5769-3.6489-3.1375 2.5277c-1.7256 1.3902-3.1375 3.0322-3.1375 3.6489 0 1.9462 1.041 1.2347 3.6981-2.5277zm16.165-19.294c-1.2363-4.4888-6.5284-10.232-9.4126-10.214-1.714 0.01033-1.0644 1.0046 2.1781 3.3337 2.5512 1.8325 5.0586 5.1368 5.5988 7.3779 0.53805 2.2324 1.3222 3.7455 1.7426 3.3625s0.37228-2.12-0.10693-3.8599zm-24.679-3.2376c-0.36916-1.291-0.6955-0.556-0.72517 1.6333s0.27237 3.2456 0.67122 2.3473 0.42313-2.6896 0.05395-3.9806zm25.2-8.1712c0-1.3787-1.2988-3.9163-2.8861-5.6392l-2.8861-3.1324 2.5221 5.6257c2.8343 6.322 3.2501 6.7245 3.2501 3.1459zm2.9121-11.263c0-0.27552-1.1466-1.3204-2.5481-2.322-2.3094-1.6505-2.3609-1.6035-0.54976 0.50097 1.9022 2.2102 3.0978 2.9131 3.0978 1.821zm-9.8007-7.0037c-0.98578-0.36345-2.9515-0.38556-4.3682-0.04916s-0.61013 0.63379 1.7924 0.66084 3.5616-0.24822 2.5758-0.61168zm-351.51 167.29c-2.1373-1.9477-2.1426-2.5052-0.06067-6.3264 1.2558-2.3047 3.1412-4.9795 4.1899-5.9438s1.9067-3.1682 1.9067-4.8974 0.72517-3.5525 1.6115-4.0517c1.1265-0.63443 1.0169-1.2917-0.36403-2.1837-1.4342-0.92641-1.0778-1.0968 1.3006-0.62178 2.5611 0.51152 3.2761 0.06382 3.2761-2.0513 0-1.4881 1.1539-3.6713 2.5642-4.8515 6.9277-5.7977 16.054-21.226 13.781-23.298-0.53468-0.48721-0.26868-1.3012 0.59107-1.8088 2.0407-1.2049 5.8674-12.421 7.1052-20.826 0.81604-5.541 2.0012-7.509 7.1912-11.942 6.7279-5.7463 11.218-12.835 15.482-24.443 3.3965-9.245 3.4299-10.718 0.24295-10.724-1.4015-0.00272-4.8414-1.2578-7.6443-2.789-13.486-7.3672-23.862-20.728-26.29-33.852-1.1684-6.3155-2.6041-9.7915-4.6559-11.273-2.4904-1.7978-2.8395-3.1692-2.1747-8.5439 0.44271-3.5792 1.8025-7.0758 3.0837-7.9296 3.447-2.2969 7.2567-24.402 6.1675-35.786-1.1188-11.695-3.9092-22.016-6.1656-22.805-0.9534-0.3334-3.9792-0.04111-6.724 0.64952-2.823 0.7103-8.414 0.80272-12.873 0.21277-4.3353-0.57361-10.995-1.4308-14.799-1.9048-4.7515-0.59207-6.9163-1.4838-6.9163-2.8491 0-1.1794-0.6925-1.5973-1.7035-1.0279-1.1275 0.63503-1.4048 0.25-0.81996-1.1388 0.50594-1.2015-8e-5 -2.4071-1.1841-2.8212-1.2451-0.43539-1.7165-1.6667-1.185-3.0953 0.64232-1.7264 0.22836-1.5745-1.5204 0.55764-1.3794 1.6817-3.3166 2.6104-4.5474 2.1801-2.5294-0.88451-2.6095-0.42691-0.71868 4.105 1.0679 2.5595 0.81752 4.5788-0.9977 8.0476-2.6129 4.9931-3.4906 5.3607-7.7907 3.2636-2.0647-1.0069-3.9611-0.82152-7.1977 0.7037-5.8269 2.7459-8.6948 1.2187-12.879-6.858-1.8264-3.5259-3.9814-7.5154-4.7889-8.8655-3.5718-5.9725 1.61-16.876 14.44-30.385 2.9814-3.139 6.8395-7.4823 8.5737-9.6517s3.6259-3.5134 4.2039-2.9867-1.3672 3.5111-4.3226 6.6319c-6.2166 6.5645-5.6966 5.96-14.492 16.848-6.7929 8.4088-7.8942 12.005-5.3962 17.623 0.74542 1.6763 1.7143 4.5406 2.153 6.365s2.3849 5.1052 4.3247 7.2906c3.498 3.9409 3.5522 3.9527 6.6054 1.4347 1.6931-1.3963 3.518-4.9756 4.0553-7.9541 0.88185-4.8884 1.0781-5.0925 2.0169-2.0982l1.04 3.3172 0.14514-3.505c0.11123-2.6862-0.70526-3.6995-3.495-4.3376-2.8252-0.64617-3.6076-1.6438-3.495-4.4562l0.14514-3.6236 1.1658 3.3172c0.64118 1.8244 1.2311 2.7962 1.3109 2.1596s1.041-0.48007 2.136 0.34807c1.511 1.1428 2.4156 1.0393 3.7529-0.42905 1.313-1.4417 2.6852-1.6149 5.3842-0.6798 6.5002 2.2521 7.1084 1.7262 6.5473-5.661l-0.52545-6.9176-4.829 4.8018c-2.6559 2.641-5.2042 4.4598-5.6628 4.0419s-0.83386 0.32783-0.83386 1.6572c0 2.333-0.10125 2.3336-2.9121 0.0155-4.0879-3.3712-3.6246-4.9121 1.3345-4.4381 2.6267 0.25106 5.4038-0.54847 7.2803-2.096 3.5954-2.9651 4.1313-5.8889 0.59531-3.2482-2.0538 1.5338-2.0104 1.1932 0.2752-2.1596 4.2463-6.2289 11.062-11.661 12.728-10.143 0.79113 0.72092 2.3414 0.995 3.4451 0.60907s2.0066 0.06335 2.0066 0.99841c0 1.0046 1.4892 0.42522 3.6402-1.4162 2.0021-1.714 3.6402-2.5151 3.6402-1.7802s-2.4571 3.1161-5.4602 5.2916c-7.0948 5.1397-9.8693 6.657-8.5114 4.6548 0.57142-0.84253 0.34504-1.5319-0.50306-1.5319s-1.542 1.0748-1.542 2.3884-0.78628 3.1049-1.7473 3.9806c-1.359 1.2384-1.3398 1.9608 0.08627 3.2508 1.4708 1.3305 1.6235 1.1562 0.77179-0.8811-0.72339-1.7304-0.53775-2.2446 0.58253-1.6136 0.90436 0.50933 2.9201 0.19998 4.4795-0.68744 2.2363-1.2727 4.5012-1.2493 10.722 0.11061 10.386 2.2704 16.256-0.12144 18.519-7.5455 2.4632-8.0825 1.6053-18.597-1.3802-16.915-0.63299 0.3565-1.5397-0.27503-2.0148-1.4034-0.49471-1.1748-0.24878-1.7051 0.57546-1.2409 1.2764 0.71884 1.703-0.20467 1.315-2.8465-0.06841-0.46572 0.6568-1.2867 1.6115-1.8244 1.2457-0.70159 1.2809-1.2339 0.12436-1.8852-1.4284-0.80449-2.2467 0.79139-1.8014 3.5136 0.08523 0.52107-0.73918 0.63474-1.832 0.25259-1.2161-0.42526-2.3252 0.49416-2.8588 2.3698-1.0535 3.703-9.6716 13.101-9.6765 10.552-0.00215-1.1239-0.90161-1.4864-2.3935-0.96477-2.0269 0.7088-2.1018 0.51922-0.49255-1.2477 1.2498-1.3722 2.2265-1.5984 2.8613-0.66243 0.62363 0.91951 1.747 0.59049 3.1832-0.93236 3.257-3.4535 4.8784-6.2552 3.0117-5.2038-0.85618 0.4822-1.8329 0.42518-2.1704-0.1267s-0.43247-0.30071-0.21091 0.55816-0.54106 2.2754-1.6947 3.1479-2.0976 1.1416-2.0976 0.59797-0.95414-0.26676-2.1203 0.6152c-2.6104 1.9742-5.332 0.67383-4.2027-2.0081 0.85951-2.0411 4.9086-2.1183 6.505-0.12406 0.50051 0.62524 1.3582 0.47597 1.906-0.33173s0.26339-1.4685-0.63196-1.4685c-0.91482 0-1.1489-0.72654-0.53446-1.6586 0.74299-1.127 0.30384-1.0749-1.3701 0.16246-3.8912 2.8764-2.876 0.95615 1.9046-3.6025 5.0531-4.8184 5.6697-7.3984 1.4783-6.1862-1.879 0.54345-4.5531-0.29217-7.6443-2.3887-9.6996-6.5785-12.424-7.8017-13.581-6.0965-0.73726 1.087-0.47359 1.258 0.81818 0.5305 1.2612-0.71029 1.5545-0.5552 0.86706 0.45842-0.57141 0.84254-1.9831 1.5319-3.1371 1.5319-2.758 0-2.6987 2.1598 0.08592 3.1336 1.2013 0.42007 2.1841 0.24928 2.1841-0.37952s1.0755-1.5194 2.39-1.979c1.953-0.68294 2.0689-0.4832 0.63402 1.0924-1.4206 1.5598-1.1603 2.2187 1.363 3.4493 2.0003 0.97558 2.7998 2.2795 2.2288 3.6353-0.48965 1.1628-0.04905 2.6364 0.97911 3.2746 1.2725 0.78996 0.70717 1.0786-1.7708 0.90395-2.0021-0.14108-4.8151 0.20458-6.2511 0.76813s-3.0349 0.63824-3.5532 0.16595-1.7472 0.79741-2.7311 2.8215c-1.4924 3.0705-1.8253 3.2406-2.0094 1.0265-0.21819-2.6248-0.23282-2.6252-1.3428-0.0371-1.0128 2.3615-1.1947 2.2709-1.8661-0.92975-0.63956-3.0487 2.1423-10.911 4.5874-12.965 0.43429-0.36488 0.97933-1.4806 1.2112-2.4793 0.42322-1.8231 7.3466-10.811 9.3905-12.19 0.60073-0.40547 1.8435-4.2865 2.7616-8.6246 1.7147-8.1018 3.9684-11.95 5.2024-8.8826 0.82047 2.0391 5.1054 2.1699 7.244 0.2211 1.1326-1.0321 2.3978-0.63511 4.4861 1.4075l2.9086 2.845 1.5536-4.0613c2.9779-7.7844 6.5447-3.3984 5.741 7.0595-0.42977 5.5925-0.18437 5.7494 10.76 6.8807 2.9323 0.30311 7.1913 1.2527 9.4644 2.1103s4.4605 1.632 4.8609 1.721c6.6196 1.472 8.7401 2.3762 8.7586 3.7346 0.01441 1.0553 0.52182 0.92895 1.4338-0.35698 1.0256-1.4462 1.4176-1.5155 1.4338-0.25342 0.01226 0.9553 0.67752 1.3679 1.4784 0.91684s1.4561-0.18773 1.4561 0.58513 1.2404 1.4052 2.7563 1.4052 3.1358 0.90116 3.5996 2.0026 1.3529 1.8524 1.9758 1.6689c1.6835-0.49605 7.811 3.7324 6.7757 4.6758-0.48981 0.44636 0.82481 1.2039 2.9214 1.6834s3.812 1.3318 3.812 1.8939 2.0272 1.7872 4.5048 2.7224c3.847 1.4521 5.1024 1.3787 8.597-0.50245 7.9206-4.2636 9.3103-1.7564 4.4424 8.0148l-2.7767 5.5736 7.6321-5.5736c7.3158-5.3426 7.5378-5.6919 5.3568-8.4291-1.2514-1.5705-2.5222-2.6392-2.8239-2.3749s-2.4312-0.40658-4.7322-1.4909c-4.639-2.1861-5.3238-4.6966-1.9724-7.2313 1.83-1.384 3.4937-0.94579 9.6511 2.5422 4.0919 2.318 7.5696 4.0423 7.7281 3.8319s1.786-4.2102 3.6167-8.8882 4.4735-10.221 5.8729-12.318c1.8981-2.8443 2.2807-5.1265 1.5063-8.9857-0.77293-3.8518-0.46643-5.694 1.2-7.2125 1.5836-1.4431 2.129-4.1852 1.865-9.3778-0.21999-4.3279 0.23652-7.3384 1.1129-7.3384 1.0023 0 0.99026-1.2956-0.03687-3.9806-0.83752-2.1893-1.9745-3.9806-2.5267-3.9806-2.2349 0-1.5062-7.6465 0.91922-9.6465 2.158-1.7795 2.5119-4.2306 2.2841-15.82-0.14824-7.5428-1.068-15.497-2.0438-17.676s-1.952-4.7627-2.1693-5.7418-0.87622-2.1733-1.4643-2.6537-0.65783 0.17133-0.15495 1.4484c1.0864 2.7591-2.6441 3.2882-3.8017 0.53913-0.57742-1.3712-7.7583-1.9966-31.097-2.7081-16.69-0.50887-32.687-1.2586-35.548-1.6662l-5.2018-0.741 3.6679-3.8091c2.0173-2.095 3.9868-3.5184 4.3767-3.1631s-0.0665 1.3525-1.0142 2.2161c-2.8771 2.6218-1.9631 3.6931 3.1507 3.6931 3.5914 0 5.3107-0.7855 6.5346-2.9854l1.661-2.9854-0.34641 3.3172c-0.3374 3.2311-0.07236 3.3273 10.21 3.707 10.51 0.38813 10.556 0.37474 10.556-3.0638 0-2.149 0.59794-3.1168 1.5829-2.5621 0.87059 0.49032 1.2595 2.0183 0.86434 3.3955-0.59778 2.0831 0.09475 2.504 4.12 2.504 2.6612 0 5.169-0.74637 5.573-1.6586 0.43875-0.99083 0.7807-0.72373 0.84937 0.66343 0.16647 3.3625 13.866 3.3625 16.015 0 1.4135-2.2114 1.4863-2.2114 1.5284 0 0.0336 1.7615 1.2745 2.322 5.1405 2.322 4.1255 0 5.0962-0.50546 5.0962-2.6537 0-1.4595 0.65523-2.6537 1.4561-2.6537s1.4561 1.1942 1.4561 2.6537c0 2.2008 0.97071 2.6537 5.6879 2.6537 4.9711 0 5.592-0.33445 4.9264-2.6537-0.42576-1.4837-0.04467-2.6537 0.86435-2.6537 0.89425 0 1.6259 1.1942 1.6259 2.6537 0 2.2932 0.97072 2.6537 7.144 2.6537 6.6245 0 7.0982-0.2171 6.5142-2.9854l-0.62975-2.9854 1.7166 2.9854c1.2694 2.2077 3.0118 2.9854 6.6884 2.9854 4.448 0 4.8784-0.31452 4.0849-2.9854-0.81364-2.7389-0.71088-2.7115 1.2442 0.33171l2.1311 3.3172-13.112 0.38297c-10.635 0.31061-13.691 0.87463-16.177 2.9854-1.686 1.4314-3.9247 2.6025-4.9749 2.6025s-1.9095 1.1942-1.9095 2.6537-0.56497 2.6537-1.2555 2.6537-1.1819 2.9029-1.092 6.4509l0.16345 6.4508 5.972-4.4589c7.8534-5.8636 16.794-7.1135 26.425-3.6943 3.804 1.3505 7.2587 2.3726 7.6769 2.2714s3.9716 2.3545 7.8964 5.4573c5.0804 4.0163 6.8668 6.2806 6.2016 7.8605-1.2932 3.071-5.5039 2.7863-6.4282-0.43466-1.2466-4.3439-3.334-3.0156-3.334 2.1215 0 4.7758-3.7644 13.801-5.7564 13.801-1.8879 0-4.1973 6.1662-2.9811 7.9595 0.97696 1.4405 2.767 1.4379 10.28-0.01508 8.8424-1.71 9.1726-1.6745 11.786 1.266 1.4786 1.6639 2.6883 4.1886 2.6883 5.6104s0.65209 2.2178 1.4491 1.7689c2.2555-1.2703 28.623 22.814 35.552 32.473 7.2106 10.052 12.136 22.493 23.464 59.264 2.2208 7.209 3.0349 8.285 7.0599 9.3303 3.6379 0.94481 4.6248 1.9708 4.9249 5.12 0.20644 2.1661 0.72796 6.4149 1.1589 9.4418l0.78359 5.5035 11.218 2.838c6.1697 1.5609 21.374 5.2223 33.786 8.1363s23.716 5.6194 25.117 6.0117c1.5139 0.42385 2.5481 2.0234 2.5481 3.9411 0 4.2222-3.5534 4.2268-18.475 0.02405-6.2559-1.7621-21.53-5.6971-33.943-8.7446s-26.033-6.6811-30.268-8.0746-9.7633-2.5338-12.286-2.5338c-4.2306 0-14.199 4.8068-14.222 6.8578-0.00549 0.48781 2.1969 2.1298 4.8941 3.6489 4.7917 2.6986 18.393 3.9916 18.393 1.7484 0-0.55744-4.0454-2.6428-8.9898-4.6342s-8.6812-3.9019-8.3041-4.2455c0.90256-0.82247 41.329 11.455 47.879 14.54 8.1849 3.856 16.055 10.213 19.71 15.919 4.2742 6.6737 6.7641 12.605 5.2913 12.605-0.62013 0-1.9337-2.0317-2.9191-4.5149s-3.1767-6.1196-4.8697-8.0809c-5.5389-6.4168-22.906-17.777-19.5-12.756 0.44238 0.65228-0.76654 1.1001-2.6865 0.99515s-3.2022-0.61684-2.8494-1.1376c0.93562-1.381-4.9125-6.351-7.4731-6.351-4.109 0-2.3596 3.9738 1.8201 4.1345 2.4534 0.0943 3.0194 0.38857 1.4614 0.75978-2.0626 0.49147-2.2465 1.1102-0.97405 3.2769 0.86277 1.4691 1.9425 2.3304 2.3994 1.914 1.1153-1.0163 4.7576 5.5238 4.7576 8.5427 0 3.9865 12.317 28.586 12.882 25.727 0.65032-3.2927 3.1268-5.7682 3.1571-3.1558 0.01898 1.6363 0.23335 1.6264 1.4338-0.06633 1.7201-2.4255 1.7201-0.33051 0 3.3172-0.85127 1.8052-1.2982 2.0174-1.398 0.66343-0.11674-1.5849-0.44966-1.5161-1.6344 0.33764-1.9358 3.029 6.386 17.782 14.702 26.064 6.2815 6.2556 6.7645 9.3028 0.64406 4.0631-6.4152-5.492-17.56-22.697-23.3-35.968-4.6761-10.812-5.845-12.52-7.5226-10.991s-1.607 3.0024 0.45422 9.4842c3.4902 10.975 11.659 23.698 23.622 36.794 3.2975 3.6095 5.6174 6.8935 5.1553 7.2978-1.3493 1.1804-16.299-14.469-21.048-22.033-4.5213-7.2013-11.516-24.448-11.516-28.396 0-1.2478-1.8019-3.3286-4.0042-4.624s-11.724-7.6335-21.159-14.085c-16.118-11.02-17.585-11.729-24.268-11.729-4.3875 0-7.3443-0.63407-7.7178-1.655-0.74834-2.0458-3.9713 3.168-4.9269 7.9703-0.37526 1.8858-3.2962 6.2738-6.4911 9.7511s-6.7058 9.1963-7.8022 12.709c-6.7244 21.545-6.8502 22.133-5.3703 25.092 0.81618 1.6323 1.9476 12.582 2.5142 24.332l1.0303 21.364 3.788 0.74252c4.6245 0.90645 10.551 3.4398 9.7518 4.1683-0.32125 0.29273-3.273-0.20189-6.5595-1.0992s-6.3961-1.248-6.9103-0.77945 0.59322 6.6331 2.4609 13.699c3.6304 13.734 7.0075 19 20.086 31.319 3.68 3.4664 5.7853 6.3026 4.6784 6.3026s-5.3699-3.2875-9.4734-7.3056c-5.8838-5.7613-8.2939-7.2427-11.401-7.0084-2.1672 0.16345-3.9404 0.69112-3.9404 1.1726 0 2.4945 4.7535 10.769 5.584 9.7199 1.8874-2.3833 5.0164-2.1151 3.982 0.34128-0.541 1.2847-0.51074 1.9049 0.06722 1.3782s2.4145 0.08862 4.0811 1.3673c3.0292 2.3241 3.0293 2.3239 0.24842-0.66867-4.187-4.5057-1.6344-5.1552 4.6538-1.1841 3.0607 1.9328 6.3487 3.5143 7.3067 3.5143s1.7418 0.66098 1.7418 1.4688c0 0.85106-1.0717 1.097-2.5481 0.58482-2.0431-0.70878-2.1874-0.55284-0.72804 0.78684 2.795 2.5658 2.1604 4.0532-1.0593 2.483-2.4505-1.1951-2.7352-1.0539-1.9115 0.94847 0.87943 2.1377 0.7178 2.1708-1.7683 0.36242-1.5918-1.1579-2.2789-1.2966-1.6427-0.33172 2.407 3.6509-1.9655 1.342-6.9173-3.6527-2.8961-2.9212-5.2656-4.8166-5.2656-4.2119s1.6381 2.5017 3.6402 4.2157 3.6402 3.7305 3.6402 4.4812-2.56-0.91307-5.6888-3.6972c-5.6947-5.0674-7.8043-9.118-12.501-24.004-1.3816-4.3786-3.4497-10.59-4.5959-13.804s-2.4702-8.4104-2.9423-11.549l-0.85839-5.7069-5.2715 2.4466c-7.0054 3.2514-20.581 6.8647-22.253 5.923-0.73352-0.41311-8.1688-0.75112-16.523-0.75112-12.764 0-15.756-0.40599-18.737-2.5432-1.9513-1.3987-4.9514-2.5432-6.6667-2.5432s-4.9861-0.87992-7.2683-1.9554c-3.9108-1.8429-4.1069-1.8067-3.4078 0.6294 0.42843 1.493-1.1828 5.6924-3.8143 9.9414l-4.556 7.3566 3.2588 5.1598c3.053 4.8341 3.1514 5.731 1.5578 14.209-1.3655 7.2643-1.3274 9.4476 0.19279 11.069 1.0416 1.1112 2.6254 7.6445 3.5196 14.518 1.4458 11.114 2.1146 12.958 6.0406 16.649 4.4148 4.1507 5.7008 7.3416 2.9588 7.3416-3.3308 0-1.0941 5.2441 3.6402 8.5347 2.8029 1.9482 5.0962 4.0045 5.0962 4.5696 0 2.295-13.564 16.75-15.718 16.75-1.2759 0-3.5361-1.8977-5.0226-4.217-2.344-3.6573-2.836-6.8138-2.5485-16.349 0.13591-4.5076-4.2767-27.713-6.5601-34.498-1.3507-4.0138-4.443-10.265-6.872-13.892-4.2403-6.3319-4.3872-7.0578-3.6888-18.22 1.0267-16.409-0.55471-17.913-9.5146-9.0497-3.7741 3.7336-6.8621 7.816-6.8621 9.0719s-1.6381 4.4803-3.6401 7.1652-3.6402 5.1614-3.6402 5.5033-4.5511 8.3825-10.114 17.868c-9.2707 15.809-9.979 17.571-8.4982 21.146 2.1189 5.1155 0.58058 9.2757-2.5535 6.9055-1.2111-0.91597-2.4773-1.4146-2.8137-1.108s-1.3362 5.8708-2.2218 12.365-1.9436 12.299-2.3512 12.9-2.3018 1.0927-4.2094 1.0927-3.8209 0.51997-4.252 1.1555-2.5992 1.4893-4.8181 1.8974-5.029 1.0929-6.2445 1.522-3.2648-0.18106-4.5539-1.3558zm12.254-4.1468c2.2189-0.40802 4.3491-1.2058 4.7336-1.7728s1.9544-0.7318 3.4885-0.36621c2.4495 0.58374 2.7893-0.078 2.7893-5.432 0-4.3754-0.58241-6.0967-2.0627-6.0967-1.1345 0-2.0728-0.74637-2.0851-1.6586-0.01381-1.0272-0.42954-1.1535-1.092-0.33173-0.58837 0.72978-2.3802 1.5329-3.9819 1.7847-4.1375 0.65051-4.6962 1.5324-0.97071 1.5324 2.1841 0 3.1548 0.81653 3.1548 2.6537 0 1.4596-0.6939 2.6537-1.542 2.6537s-1.1059 0.64297-0.57296 1.4288c0.64082 0.94485-0.50748 1.2168-3.3902 0.80274-3.5586-0.51109-4.6567-0.03097-5.9793 2.6142-2.1813 4.3626-2.0559 4.8798 0.92797 3.8279 1.4015-0.49407 4.3636-1.2322 6.5826-1.6402zm95.568-5.2706c2.478-3.4091 4.5003-6.5438 4.494-6.966s-1.6165-1.4459-3.5783-2.2748c-3.4087-1.4403-3.6716-1.2201-5.9242 4.9601-1.2965 3.557-2.9731 6.8141-3.7257 7.238s-0.99152 1.3266-0.53077 2.0059c1.8022 2.6573 4.9526 0.96966 9.265-4.9632zm-8.412-0.76768c1.5829-2.7071 1.5198-2.8156-0.67681-1.1644-1.3324 1.0016-2.4225 2.345-2.4225 2.9854 0 2.0268 1.2939 1.2665 3.0993-1.821zm0.36072-9.222c-0.98472-1.452-1.0454-1.4009-3.4746 2.9193-1.8603 3.3085-1.8571 3.3106 1.2245 0.81782 1.6993-1.3746 2.7119-3.0564 2.2502-3.7372zm-77.164-3.1204c0.49724-1.1808 0.25313-1.7134-0.57223-1.2486-0.79168 0.44585-1.4394 1.3725-1.4394 2.0592 0 1.9086 1.0437 1.488 2.0116-0.81066zm172.72-63.454c0-0.27313-1.0465-3.1093-2.3255-6.3026-6.1649-15.392-7.848-28.259-7.8614-60.097-0.00908-21.603-1.0299-13.913-1.9549 14.726-0.70548 21.843-0.45417 28.079 1.3637 33.835 3.9299 12.444 6.7548 18.335 8.7918 18.335 1.0924 0 1.9863-0.22347 1.9863-0.49661zm-119.36-21.828c-2.6959-0.81888-5.4194 0.74217-6.2314 3.5716-0.76012 2.6488-0.69156 2.645 3.5222-0.19387 2.3636-1.5924 3.5827-3.1124 2.7092-3.3777zm4.3544 4.0802c0.01708-1.7782 0.3106-1.9076 1.2534-0.55218 0.99124 1.425 1.4036 1.3603 2.1161-0.33172 0.48674-1.1558 1.8884-2.1015 3.1148-2.1015 1.2591 0 2.2298-1.1553 2.2298-2.6537 0-3.56-1.7559-3.3436-7.5326 0.92854-2.6641 1.9702-5.0733 3.7218-5.3537 3.8923s-0.07791 0.94687 0.44996 1.7252c1.4939 2.2027 3.6976 1.6658 3.7223-0.90687zm15.985-11.325c0.00757-1.8658-0.54387-2.0988-2.5974-1.0973-1.6917 0.82504-2.7252 3.0542-2.9437 6.3493l-0.33672 5.0779 2.9341-3.9806c1.6138-2.1893 2.9384-5.0465 2.9437-6.3493zm4.8399-8.8841c0.65458-0.01407 0.79175 1.1183 0.30478 2.5165-0.9791 2.8112-0.37124 3.3365 5.2829 4.5659 3.8075 0.82784 3.8428 0.77238 2.3416-3.6848-1.214-3.6046-2.467-4.6865-6.1588-5.3176-6.8788-1.176-13.01-7.5694-13.77-14.36-0.06128-0.54732-1.946-0.99514-4.1884-0.99514-7.7099 0-10.018-6.0956-4.6594-12.304 3.5192-4.077 4.0266-10.559 0.73639-9.4087-1.1966 0.41845-1.7261 1.4446-1.1766 2.2804s-0.10944 0.70008-1.4644-0.3015c-1.4583-1.0779-2.4636-1.2453-2.4636-0.41002 0 0.77607 0.65523 1.78 1.4561 2.2311s1.4415 1.5312 1.4237 2.4003c-0.03278 1.6-5.6997-4.277-5.7595-5.973-0.01781-0.50543 1.2677-0.6908 2.8566-0.41196s3.4498-0.40601 4.1351-1.5219 1.8314-1.9399 2.5468-1.8311c1.1888 0.1808 4.8953-10.396 4.9616-14.159 0.01543-0.87657-5.0499 1.1812-11.256 4.5729-14.958 8.1743-26.765 13.596-29.623 13.602-1.2772 0.00275-6.009-1.1034-10.515-2.4581l-8.1932-2.4631 0.78283 4.7851c1.6201 9.9031 3.6038 14.259 9.3958 20.634 11.291 12.426 19.694 17.154 25.06 14.1 2.8308-1.611 2.9144-1.4559 2.0064 3.7186-0.82315 4.691-0.62814 5.288 1.486 4.5487 1.6384-0.57293 2.0895-0.34376 1.3807 0.70137-0.57907 0.8538-0.39759 1.5524 0.40323 1.5524s1.823-0.54103 2.2715-1.2023 2.0072-0.9183 3.4638-0.57118 3.5018-0.30604 4.545-1.4514 2.4716-2.0825 3.1744-2.0825c2.5745 0 1.161 2.7932-3.4544 6.8261-2.6027 2.2742-3.5856 3.3869-2.1841 2.4726 2.4782-1.6168 3.3262-0.71601 2.7428 2.9138-0.08255 0.51377 4.5902-2.3109 10.384-6.277s11.07-7.2227 11.724-7.2367zm-29.478-6.1754c-1.6598-1.9228-3.0178-4.3032-3.0178-5.2896s-2.2499-2.6502-4.9997-3.6972c-6.1634-2.3467-12.45-10.691-13.517-17.94-0.62895-4.2732-0.33114-5.4024 1.4249-5.4024 2.7926 0 4.2481 3.2125 2.2715 5.0137-1.0141 0.92409-0.23127 3.3116 2.4557 7.4897 4.138 6.4345 8.2183 9.3568 13.093 9.3775 2.2218 0.0094 2.9121 0.90101 2.9121 3.7612 0 4.2235 3.9204 7.5295 8.9287 7.5295 1.8018 0 3.6809 0.5971 4.1758 1.3269 0.54244 0.79982-1.4057 1.3269-4.9046 1.3269-4.5364 0-6.4638-0.76377-8.8223-3.4961zm-13.938-4.3829c-6.7181-4.3602-11.834-10.255-13.198-15.208-1.177-4.2732 1.6608-4.7008 3.085-0.46483 1.6729 4.9755 11.017 14.466 16.178 16.431 5.3605 2.041 6.2071 3.1713 2.3073 3.0808-1.4015-0.03254-5.169-1.7602-8.3724-3.8393zm11.036-21.312c-0.29698-3.0736-0.4124-3.1223-1.5719-0.66345-0.82513 1.7498-1.2786 1.9758-1.3314 0.66345-0.10459-2.6008 2.3696-6.1306 3.5459-5.0586 0.50423 0.45948 0.63803 2.532 0.29735 4.6056-0.58459 3.5582-0.63746 3.5836-0.93993 0.45303zm2.9112-0.77401c0.06986-1.5457 0.41489-1.8601 0.87969-0.80165 0.42062 0.95784 0.36889 2.1023-0.11494 2.5432s-0.82798-0.34279-0.76475-1.7415zm-7.2803-6.6343c0.06987-1.5457 0.41489-1.8601 0.8797-0.80164 0.4206 0.95783 0.3689 2.1023-0.11495 2.5432s-0.82797-0.34278-0.76475-1.7415zm3.5252-1.8797c-0.54666-1.5696-0.6663-3.1522-0.26589-3.5171s1.1753 0.62073 1.722 2.1903 0.66631 3.1523 0.26589 3.5171-1.1753-0.62074-1.722-2.1903zm3.1397-2.9275c-1.1831-4.1227-0.28052-4.3339 1.6888-0.39528 0.91376 1.8275 1.0966 3.3228 0.40635 3.3228s-1.6331-1.3174-2.0951-2.9275zm2.7782-1.991c-0.79017-1.891-0.62294-2.0435 0.8151-0.74278 0.9951 0.90006 1.4425 1.9707 0.99416 2.3792s-1.2625-0.3279-1.8093-1.6365zm8.8854-3.9272c-0.53389-0.48651-0.97072-1.5016-0.97072-2.2557 0-0.8314 0.6782-0.75306 1.723 0.19903 0.94766 0.86357 1.3845 1.8786 0.97071 2.2557s-1.1891 0.2875-1.723-0.19902zm49.488 62.252c-0.37142-0.54732 6.306-0.99515 14.839-0.99515 14.326 0 16.183-0.3049 24.25-3.9806 6.4747-2.9501 8.8623-4.7917 9.2229-7.1138 0.2676-1.7233-0.06002-2.887-0.72803-2.586-16.146 7.2746-15.032 7.0461-34.338 7.0461-19.673 0-21.143 0.54518-16.059 5.9557 2.4698 2.6286 4.1323 3.6178 2.8131 1.6738zm-7.7231-4.3123c-2.1164-3.8661-4.878-5.3582-4.878-2.6357 0 2.2636 3.5097 6.6163 5.3349 6.6163 1.2241 0 1.0919-1.1514-0.45689-3.9806zm-6.334-1.1721c0-2.8292-0.83687-4.0253-3.2126-4.5914-4.5779-1.0909-4.8137-0.24483-1.2153 4.3602 3.9195 5.016 4.4279 5.0426 4.4279 0.23116zm48.229-6.7288c8.4329-2.9199 12.926-6.6113 12.926-10.62 0-1.8744-0.94967-2.7092-3.0819-2.7092-2.3936 0-2.907-0.60961-2.2986-2.7296 0.66873-2.3304 0.45606-2.4821-1.4542-1.0374-1.897 1.4347-2.1535 1.2948-1.6856-0.91931 0.81764-3.869 6.4416-3.5178 5.9894 0.37395-0.20468 1.7619 0.44916 2.9854 1.5954 2.9854 1.4631 0 2.1692-4.0094 2.8625-16.254 0.50613-8.9397 1.9177-19.716 3.1368-23.948s2.2122-8.4114 2.207-9.288c-0.01531-2.5438-5.6406 5.9417-6.6127 9.9751-1.1612 4.8179-2.0823 5.1846-8.5085 3.3874-5.2816-1.4771-5.3951-1.6437-4.4804-6.5773 0.88295-4.7624 0.71932-5.0618-2.7668-5.0618h-3.7052l5.0596 12.737c2.7828 7.0054 5.703 13.833 6.4894 15.172 1.9941 3.3954 1.9814 3.4158-3.3024 5.3138-2.6027 0.93495-6.6979 2.9831-9.1004 4.5514-11.379 7.4279-15.042 8.8801-18.34 7.2715-2.426-1.1832-5.1688-1.1583-11.707 0.10607-8.293 1.6037-10.18 2.8612-6.9909 4.6575 0.8513 0.47946 2.6881-0.06861 4.0817-1.218 2.5159-2.0748 5.7059-2.7645 10.921-2.3611 1.9465 0.15056 2.505 0.95217 1.9677 2.8245-0.58953 2.0544-0.0802 2.5517 2.3783 2.322 2.1919-0.20475 3.0679 0.40292 2.9263 2.0298-0.11123 1.2771 0.38019 2.322 1.092 2.322s1.2943-1.1136 1.2943-2.4748c0-5.6023 10.419-12.973 12.237-8.6569 1.0957 2.6019-0.52434 5.8243-2.9282 5.8243-1.1156 0-2.0283 0.64088-2.0283 1.4241 0 3.0779 5.1111 0.3098 6.3284-3.4273 1.9805-6.0804 3.268-7.9483 5.4788-7.9483 1.3423 0 2.0775 1.6781 2.1798 4.9757 0.08495 2.7367-0.48837 4.9758-1.2741 4.9758-0.81892 0-1.0457-1.7441-0.53144-4.0872 0.64389-2.9338 0.3871-3.9346-0.91005-3.5465-0.9939 0.29736-2.0257 2.2859-2.2929 4.4189-0.58614 4.679-4.0803 8.5223-7.7482 8.5223-3.3573 0-3.503-3.6129-0.27669-6.8616 1.3254-1.3346 1.7066-2.4265 0.84712-2.4265-3.9717 0-6.2552 1.9983-7.6404 6.6862-1.1371 3.8482-2.2043 5.0383-4.384 4.8887-3.3036-0.22678-3.606-1.0954-1.158-3.3262 2.7546-2.5101 0.02876-3.5964-2.9208-1.1639-1.4694 1.2118-3.9305 2.1655-5.4691 2.1192-2.4439-0.07346-2.3834-0.23576 0.47867-1.2841 1.8019-0.66001 3.2761-1.5874 3.2761-2.061s-1.4742-0.5166-3.2761-0.09575c-3.1624 0.73863-3.1498 0.67593 0.364-1.806l3.6402-2.5712-4.2743-0.02948c-2.3509-0.01623-5.7078 1.1977-7.4598 2.6976-2.9733 2.5454-3.3472 2.5798-5.6126 0.51531-1.8894-1.7218-5.4783-2.2524-16.201-2.3954-7.5756-0.10099-13.774 0.14708-13.774 0.55126s2.1318 2.6179 4.7375 4.9193c5.2357 4.6244 14.363 8.062 24.384 9.1836 3.6038 0.40338 6.8253 0.96169 7.159 1.2407s7.3703 0.50734 15.637 0.50734c11.389 0 16.845-0.6284 22.52-2.5935zm-55.509-11.339c4.7684-2.484 6.6305-2.484 4.3682 0-0.99695 1.0947-3.2067 1.9691-4.9105 1.9433-2.918-0.04427-2.8866-0.15707 0.54229-1.9433zm-12.377-7.2978c-1.6017-0.62721-3.895-1.1732-5.0962-1.2133-1.9414-0.06485-1.9414 0.06996 0 1.2133 1.2012 0.70742 3.4945 1.2534 5.0962 1.2133 2.9121-0.07294 2.9121-0.07294 0-1.2133zm20.719 0.52521c-0.48384-0.4409-1.7397-0.48803-2.7908-0.10474-1.1615 0.42355-0.81652 0.73797 0.87972 0.80164 1.5349 0.05761 2.3949-0.25599 1.9111-0.6969zm11.779-2.5669c8.3007-2.2463 9.0062-3.1224 4.5546-5.6558-2.5772-1.4667-2.929-1.4005-2.5481 0.47919 0.30465 1.5036-1.5926 2.9398-6.1104 4.6254-8.0712 3.0114-6.0101 3.2883 4.1039 0.55124zm-3.7399-1.9483c6.2712-2.7304 5.1236-5.9444-2.7055-7.577-5.9074-1.2319-7.779-1.0048-15.653 1.8989-10.284 3.7925-12.918 5.4475-11.649 7.3187 1.2501 1.8432 24.986 0.54547 30.007-1.6406zm23.62-4.9595c-1.0142-10.835-4.1538-24.226-5.2957-22.586-0.71423 1.0254-1.18-0.22946-1.1936-3.2159-0.02363-5.1932-2.3103-8.0136-3.304-4.0752-0.32447 1.286-1.1003-1.6471-1.7242-6.5182s-0.78728-9.6478-0.36324-10.615 0.83619 0.62986 0.9159 3.549c0.13372 4.898 0.47957 4.4069 4.4831-6.3664 4.8752-13.119 4.8171-12.873 3.04-12.873-0.71403 0-1.7776 1.642-2.3636 3.6489l-1.0654 3.6489-1.3561-3.5347c-1.3877-3.6171-4.7862-5.6852-7.1526-4.3524-0.72857 0.41033-1.4352 9.5179-1.5704 20.239l-0.24577 19.493-0.97321-19.903c-0.59293-12.126-0.42722-20.551 0.42405-21.562 0.90954-1.0796 0.86914-1.6586-0.11576-1.6586-2.4694 0-2.821 2.5991-2.3335 17.249 0.30381 9.131 0.04085 12.56-0.7631 9.9515-0.93701-3.0407-1.338-1.0042-1.6984 8.6246l-0.47169 12.605-0.48893-11.837c-0.26891-6.5102-0.09431-12.774 0.388-13.919 1.0046-2.3857 1.755-26.739 0.79686-25.862-0.34701 0.31764-1.4815-1.2658-2.521-3.5188s-2.5129-3.7455-3.2741-3.3168-1.5925-0.87262-1.8472-2.8919c-0.43516-3.4499-1.4381-3.9228-6.7316-3.1738-1.5372 0.21749-1.204 13.062 0.37342 14.396 0.6694 0.566 0.81321-0.90491 0.31954-3.2687-0.99775-4.7773 0.08247-8.6875 2.0879-7.558 0.71691 0.40376 1.3552-0.34602 1.4185-1.6662s0.39765-1.7846 0.74316-1.032-0.61837 5.8278-2.142 11.278c-2.1156 7.5685-2.9497 9.1263-3.5298 6.5929l-0.75959-3.3172 0.23853 3.3172c0.18912 2.6304 0.91679 3.2312 3.5146 2.902 2.733-0.3463 3.2724 0.20362 3.2538 3.3172-0.01733 2.9032-0.3374 3.2901-1.4407 1.742-0.94515-1.3262-1.1029 1.5107-0.47263 8.5025 0.70343 7.8039 0.51292 10.249-0.74337 9.5415-1.205-0.6786-1.6892 1.1856-1.6892 6.503 0 4.6317 0.55135 7.1439 1.4561 6.6343s1.4561 1.9504 1.4561 6.4777c0 7.4409 2.1901 11.257 3.3378 5.8155 0.54376-2.578 0.66203-2.4819 0.83213 0.67659 0.1423 2.6419 1.2531 4.0472 3.9332 4.9757 2.0542 0.71172 3.9804 1.294 4.2803 1.294s0.80238-2.2391 1.1165-4.9757l0.57116-4.9757 0.24478 5.4335c0.15143 3.3616 1.2643 6.2743 2.9184 7.6384 2.5804 2.128 2.6601 1.707 2.2864-12.068l-0.38725-14.273 1.4496 14.446c1.437 14.32 2.207 16.204 7.7791 19.034 4.0248 2.0444 4.8955 1.1226 4.3586-4.614zm-6.5116-4.3191c-1.0281-4.4148-1.5379-8.3289-1.1328-8.698s1.5264 2.9877 2.4918 7.4596 1.4752 8.386 1.1328 8.698-1.4637-3.0448-2.4918-7.4596zm-27.435-25.21c0-1.8244 0.3305-2.5708 0.73443-1.6586s0.40392 2.4049 0 3.3172-0.73443 0.16586-0.73443-1.6586zm4.1383-3.9023c0-2.1462 0.65523-4.2713 1.4561-4.7223 0.86652-0.48803 1.456 1.0919 1.456 3.9023 0 2.5973-0.65523 4.7223-1.456 4.7223s-1.4561-1.756-1.4561-3.9023zm3.1815-17.551c-0.14814-3.4067-0.69339-7.2878-1.2117-8.6246-0.71587-1.8464-0.52089-2.0775 0.81134-0.96143 1.0972 0.91914 1.5508 4.1478 1.2117 8.6246l-0.54198 7.1555-0.26935-6.1941zm12.924-3.7574c0-3.7887 0.27334-4.2164 1.4841-2.322 1.0081 1.5773 1.0081 3.0667 0 4.644-1.2108 1.8944-1.4841 1.4667-1.4841-2.322zm2.9385-3.4277c0.06986-1.5457 0.41489-1.8602 0.87969-0.80167 0.42061 0.95784 0.3689 2.1023-0.11495 2.5432s-0.82796-0.34278-0.76474-1.7415zm-14.457-5.4201c-0.12-1.5823-0.64221-3.9707-1.1605-5.3075-0.72474-1.8693-0.53034-2.0849 0.84187-0.93358 0.98131 0.82332 1.5035 3.2117 1.1605 5.3075-0.43945 2.6847-0.68815 2.9606-0.84186 0.93358zm-5.8125-4.4208c0-1.8244 0.3305-2.5708 0.73442-1.6586s0.40393 2.4049 0 3.3172-0.73442 0.16586-0.73442-1.6586zm35.44 60.557c-1.3101-4.1068-1.9388-8.7393-1.3972-10.295 0.59754-1.7156 0.42396-2.5118-0.44138-2.0244-1.4575 0.82087-3.2091-6.1157-3.2379-12.823-0.00923-2.144-0.63449-3.3789-1.4721-2.9071-2.0046 1.129-1.7831 7.6648 0.60782 17.942 3.6368 15.632 5.3344 20.297 6.8756 18.892 0.95885-0.87377 0.64338-3.8383-0.93487-8.7856zm-48.41 5.266c2.5433-1.7593 3.5952-7.441 1.3777-7.441-0.64374 0-3.3932 2.0898-6.1099 4.644-4.8664 4.5754-4.8868 4.6434-1.3777 4.6018 1.959-0.02322 4.7084-0.8354 6.1099-1.8049zm54.388-9.6377c-1.2017-4.2651-2.6317-12.334-3.1777-17.93-0.66929-6.86-1.5411-9.9834-2.6757-9.5866-2.9508 1.0318 0.7861 25.449 5.2662 34.409 2.7199 5.4398 3.0315 1.7824 0.58726-6.8926zm-63.824 2.3621c3.4192-2.4255 7.1586-4.0807 8.3098-3.6781 1.6676 0.58315 1.8226 0.08345 0.76213-2.4582-1.0118-2.4252-0.87821-3.0318 0.5573-2.5298 1.0385 0.36316 2.8071-0.34863 3.9302-1.5818 1.848-2.0291 1.6972-2.1479-1.5868-1.251-1.9958 0.54508-5.7957 2.1239-8.4442 3.5086s-5.4332 2.5175-6.1882 2.5175c-1.9556 0-1.6972-4.239 0.57667-9.4577 1.8812-4.3177 2.1365-13.798 0.41384-15.368-0.92523-0.84312-1.0538-0.53721-4.5784 10.894-1.3501 4.3787-3.0421 9.6923-3.76 11.808s-1.3052 5.4296-1.3052 7.3641c0 3.6532 2.8739 7.4505 4.2873 5.6649 0.44491-0.56212 3.6065-3.0066 7.0256-5.4321zm-6.3207-0.16543c0-1.4769 0.67862-2.4792 1.5081-2.2272s1.5081 1.2542 1.5081 2.2272-0.67864 1.9753-1.5081 2.2272-1.5081-0.7503-1.5081-2.2272zm77.573 2.322c-1.0376-4.0223-8.1126-21.798-8.2203-20.653-0.13435 1.4289 3.983 18.736 5.0712 21.317 1.431 3.3934 4.0531 2.841 3.1491-0.66343zm-49.075 1.0418c0-0.33923-1.245-1.2239-2.7666-1.966-2.0944-1.0214-2.9677-0.87158-3.5944 0.61674-0.59358 1.4096 0.18946 1.966 2.7666 1.966 1.977 0 3.5945-0.27754 3.5945-0.61675zm-2.9121-10.201v-5.5105l-2.9121 3.0598c-1.6017 1.6829-2.9121 3.5358-2.9121 4.1177 0 0.85477 4.0008 3.6414 5.4602 3.8032 0.20022 0.02219 0.36402-2.4394 0.36402-5.4701zm-41.862-10.052c4.6048-2.4931 8.3724-4.8471 8.3724-5.2313s-2.4571 0.63546-5.4602 2.2658c-11.087 6.019-25.954 12.885-29.609 13.675-3.4695 0.74957-7.7124 0.04967-15.165-2.5017-2.1999-0.75308-2.5248-0.61238-1.3284 0.57528 0.87107 0.8647 4.8024 2.3192 8.7364 3.2323 6.9474 1.6125 7.4241 1.529 16.617-2.911 5.2054-2.5142 13.232-6.6109 17.837-9.104zm-20.18 6.2863c1.0939-0.99688 0.27601-1.0336-2.7865-0.12512-2.3842 0.7073-5.6454 1.6004-7.2471 1.9847s-0.34776 0.44059 2.7864 0.1251 6.3954-1.2086 7.2471-1.9847zm-28.274-0.93036c-1.9801-1.2348-4.0559-2.8595-4.613-3.6104s-1.5384-0.85455-2.1841-0.22697c-0.64415 0.6261-0.44508 1.3767 0.44238 1.668s2.8532 1.3848 4.3682 2.4299 3.3918 1.9192 4.1706 1.9424-0.20404-0.96811-2.1841-2.2029zm75.667-3.4295c1.8141-3.9238 2.0279-4.0304 2.5899-1.2914 0.67297 3.2799 0.71418 3.305 3.7079 2.2581 1.6355-0.5719 1.9312-2.8406 1.3837-10.615-0.51537-7.3181-0.22768-9.8876 1.107-9.8876 0.99182 0 1.478 0.77264 1.0803 1.717s-0.22606 5.2732 0.38133 9.6198l1.1044 7.9028 0.20693-8.6246c0.11382-4.7436 0.63623-11.013 1.1609-13.932 0.8706-4.8436 0.74195-5.1483-1.4721-3.4864-1.3343 1.0016-2.426 2.37-2.426 3.0409s-1.325 2.5158-2.9443 4.0998-3.3447 5.1616-3.8341 7.9502-1.2502 4.7417-1.6907 4.3402c-0.77689-0.70795-3.2181 3.7696-5.2748 9.6747-1.61 4.6226 2.5974 2.2567 4.9198-2.7665zm-58.35-4.4828c-3.1371-8.6654-3.4127-14.618-1.0145-21.912 2.2976-6.9883 3.9615-3.9582 2.1795 3.9692-1.1044 4.913-0.89365 8.1181 0.93598 14.235l2.3613 7.8946-0.79501-6.8408c-1.566-13.474 7.6397-31.46 20.625-40.296 3.7266-2.5358 8.1293-6.3359 9.7838-8.4445l3.0082-3.8339 1.8761 6.4877c2.387 8.2545 2.3606 8.6087-0.30692 4.1263-1.2072-2.0286-2.8118-3.3409-3.5657-2.9163-0.78685 0.44316-0.389 2.1374 0.93406 3.9774 1.2676 1.763 1.9597 3.9709 1.5379 4.9066-0.46531 1.0321-1.213 0.39652-1.9011-1.6161l-1.1342-3.3172-1.0984 3.9806c-0.9666 3.503-1.028 3.3835-0.51144-0.99515 0.32283-2.7367 0.12504-4.9757-0.43956-4.9757-3.0128 0-12.029 7.2862-16.686 13.484-5.7279 7.6238-9.0771 17.884-10.243 31.377l-0.72314 8.3723 4.602-0.88822c2.5311-0.48852 5.1678-0.97205 5.8594-1.0745s2.6746-1.293 4.4068-2.6456c2.9055-2.2688 27.194-16.084 29.94-17.029 0.66195-0.22798 0.49053-3.5528-0.38094-7.3885-1.187-5.2248-1.1467-8.0772 0.16092-11.373 0.95997-2.4192 1.7454-5.7206 1.7454-7.3364 0-5.0166 4.4708-9.4891 13.698-13.703 4.8788-2.2282 9.0868-4.2273 9.351-4.4424 1.2842-1.0454-4.8028-7.3009-6.52-6.7005-1.0828 0.37863-1.9687 0.12883-1.9687-0.55514s-1.0096-0.89053-2.2436-0.45902c-1.4278 0.4993-2.0896 0.12232-1.8201-1.0368 0.23297-1.0018-0.44418-1.6573-1.5047-1.4568s-1.5479-0.1963-1.083-0.88183 0.11141-1.4693-0.7856-1.7418c-0.96084-0.29186-0.06719-2.1889 2.175-4.6172 3.8836-4.2058 4.9658-6.5389 2.3499-5.0656-0.80083 0.45102-1.476 0.03846-1.5003-0.91684-0.02751-1.0794-0.60228-0.8641-1.5184 0.56886-0.81079 1.2681-2.8356 2.9697-4.4996 3.7812-1.7307 0.84407-2.6423 0.91054-2.1301 0.1553 0.49246-0.72611-0.11195-1.6725-1.3432-2.103-1.7084-0.59738-1.888-1.3796-0.75846-3.3029 1.1918-2.0292 0.99851-2.4854-0.99222-2.3417-1.5444 0.11144-2.4862-0.80249-2.5093-2.4351-0.04922-3.4727-6.8757-3.7125-7.4316-0.26104-0.30861 1.916 0.01501 2.0605 1.7224 0.76922 1.1563-0.87451 2.4437-1.2789 2.861-0.89871 0.9041 0.82388-9.4627 6.4847-17.362 9.4807-3.1183 1.1827-7.3245 1.7905-9.4644 1.3676-2.8125-0.55577-3.2931-0.40456-1.7814 0.56052 1.5896 1.0148 0.62597 1.6761-4.1512 2.8483-3.4217 0.83963-6.5875 1.193-7.035 0.78516s1.3374-1.1334 3.9664-1.6126l4.78-0.87119-8.3668-3.1382 5.8242-1.655c11.74-3.3362 24.096-8.5478 23.596-9.9525-0.28271-0.79368-2.3314-2.2499-4.5528-3.2361-3.4685-1.5399-3.9564-2.4352-3.456-6.3416 0.45506-3.5521 0.08743-4.4746-1.678-4.211-3.3204 0.4959-5.8944-1.3848-4.9535-3.6192 1.337-3.1749-0.91642-2.215-2.4359 1.0376-1.3743 2.9419-1.3895 2.9371-1.0451-0.33172 0.31951-3.0322 0.88104-3.2866 6.5378-2.9614 3.5029 0.20141 6.1883-0.23337 6.1883-1.0019 0-5.4106-46.274-27.385-56.365-26.765-2.7972 0.17168-5.8612-0.27431-6.8089-0.99106-1.2809-0.96873-1.8018 0.34456-2.0297 5.1172-0.21749 4.5551 0.30149 6.6329 1.7864 7.1522 1.1511 0.40254 2.0817 1.8088 2.0681 3.1251s0.66399 4.7816 1.5059 7.7007c2.0797 7.2105 1.9889 14.92-0.18353 15.58-1.1283 0.34274-1.6752 2.8171-1.4881 6.7334 0.23383 4.896 1.445 7.5458 5.788 12.664 5.7626 6.7907 10.411 8.4394 23.693 8.4042 4.7375-0.01255 4.8458 0.07499 1.5374 1.2438-2.1966 0.77602-5.9484 0.79282-9.8017 0.04392-3.4848-0.67728-5.8951-0.70049-5.4556-0.05252 0.433 0.63846 0.14108 1.1608-0.64868 1.1608-1.4622 0-1.0442 6.9581 0.56009 9.3235 2.6538 3.9129 3.4452 25.338 1.3956 37.78-3.0549 18.545-2.876 21.397 1.5057 24.013 3.2586 1.9457 13.099 5.6304 15.444 5.7827 0.49305 0.03204-0.32598-3.3184-1.8201-7.4455zm10.503-2.5583c0.06986-1.5457 0.41489-1.8601 0.8797-0.80165 0.42062 0.95784 0.36889 2.1023-0.11495 2.5432s-0.82797-0.34278-0.76475-1.7415zm15.902-3.1743c0-0.83368 0.60563-1.1747 1.3459-0.75777s1.6564-0.15665 2.0359-1.2746c0.53373-1.5722 0.64115-1.5257 0.47422 0.20553-0.24094 2.4988-3.856 4.2114-3.856 1.8268zm-12.99-8.7675c0.06988-1.5457 0.41489-1.8601 0.8797-0.80165 0.42064 0.95784 0.36889 2.1023-0.11493 2.5432s-0.82799-0.34278-0.76477-1.7415zm5.2829-1.548c-0.42125-2.0069-0.18993-4.5445 0.51401-5.6392 0.88076-1.3696 1.2937-0.23184 1.3242 3.6489 0.05072 6.4615-0.72369 7.3-1.8382 1.9903zm8.2739 0.42822c-0.43861-1.0416-0.55337-3.2807-0.25502-4.9757 0.39908-2.2673 0.73711-1.7667 1.2788 1.8938 0.76238 5.1515 0.35901 6.3658-1.0238 3.082zm-4.5976-3.4137c0-2.5542 0.29966-3.5991 0.66591-2.322s0.36622 3.3669 0 4.644-0.66591 0.2322-0.66591-2.322zm11.024 1.6567c-0.58295-1.9406-0.35443-2.6815 0.65227-2.1145s1.2386-0.23158 0.65039-2.3202l-0.89925-3.1929 2.8216 3.3172c3.302 3.8819 3.7951 6.3197 0.8239 4.0726-1.6394-1.2398-2.1741-1.069-2.607 0.83268-0.45869 2.0153-0.68603 1.9215-1.4419-0.59481zm7.8154-3.9788c-1.344-2.3813-0.77829-5.6392 0.97917-5.6392 0.54146 0 1.7877 1.1721 2.7695 2.6046 1.549 2.2602 1.4509 2.4906-0.7418 1.7419-2.2106-0.75478-2.2767-0.58258-0.52843 1.376 1.232 1.3802 1.3913 2.2387 0.41524 2.2387-0.87072 0-2.1729-1.0449-2.8936-2.322zm-20.611-5.2291c-0.01226-1.5989 0.63293-3.2762 1.4338-3.7272 1.8538-1.0441 1.8538 2.0299 0 4.644-1.1475 1.6181-1.4156 1.4466-1.4338-0.91683zm5.3166 1.3591c-0.5339-0.48651-0.95079-1.83-0.92643-2.9854 0.03636-1.7253 0.3205-1.668 1.5895 0.32067 1.5679 2.4569 1.1133 4.2836-0.66309 2.6648zm3.5124-3.87c0.06986-1.5457 0.41489-1.8602 0.8797-0.80167 0.42061 0.95784 0.36889 2.1023-0.11495 2.5432s-0.82797-0.34278-0.76475-1.7415zm2.8639-1.7661c-0.89446-1.523-1.0176-2.7674-0.27375-2.7674 1.4965 0 3.5624 4.0189 2.5434 4.9476-0.35439 0.32295-1.3757-0.65816-2.2696-2.1802zm9.3192-4.2098c-1.807-2.6643 1.6858-4.114 3.8531-1.5992 1.9074 2.2133 1.8539 2.2402-0.77114 0.38796-2.5642-1.8093-2.7339-1.7792-1.8658 0.3317 1.06 2.5776 0.30556 3.1232-1.2161 0.87954zm-14.482-1.2112c0.49494-0.72979 1.1888-1.3269 1.542-1.3269s0.6421 0.59709 0.6421 1.3269-0.6939 1.3268-1.542 1.3268-1.137-0.59708-0.64209-1.3268zm-40.315-32.751c1.0511-0.38329 2.3069-0.33616 2.7908 0.10474s-0.37617 0.75451-1.9111 0.6969c-1.6962-0.06366-2.0412-0.37807-0.87971-0.80164zm4.6412-4.4011c-1.8665-1.0992-1.8136-1.2892 0.36402-1.3066 1.4015-0.01117 2.5481 0.57678 2.5481 1.3066 0 1.6183-0.16425 1.6183-2.9121 0zm64.067-0.91556c0-0.72978 1.3105-2.4076 2.9121-3.7285s2.9121-1.8045 2.9121-1.0747-1.3105 2.4076-2.9121 3.7285-2.9121 1.8045-2.9121 1.0747zm-58.515-1.3177c1.0511-0.38329 2.307-0.33616 2.7908 0.10475s-0.37616 0.7545-1.9111 0.69688c-1.6962-0.06366-2.0412-0.37807-0.87973-0.80163zm-20.759-20.323c1.3647-6.4312 5.033-16.329 6.614-17.846 2.2769-2.185 1.4102 2.2648-1.6305 8.3715-1.5841 3.1812-2.8902 6.7638-2.9024 7.9612s-0.70725 3.0728-1.5444 4.1674c-1.1203 1.4649-1.262 0.76436-0.53663-2.6537zm-3.4516-10.838c-0.14814-3.4068-0.69339-7.2878-1.2117-8.6246-0.71588-1.8464-0.52089-2.0775 0.81134-0.96142 1.0972 0.91915 1.5508 4.1478 1.2117 8.6246l-0.54197 7.1555-0.26936-6.1941zm9.2783 109.11c-2.5658-2.4405-3.7645-4.7021-3.2012-6.0398 0.52355-1.2433 0.29796-1.7991-0.53887-1.3278-2.7145 1.5288-1.4378 5.7412 2.5648 8.4625 5.595 3.804 5.9642 3.46 1.1753-1.0949zm126.87-3.7028c-0.36917-1.291-0.6955-0.556-0.72517 1.6333s0.27236 3.2456 0.67123 2.3473 0.42311-2.6896 0.05394-3.9806zm-65.076-5.6644c2.8029-1.3984 4.293-2.5675 3.3113-2.5981s-3.9302 1.1363-6.5523 2.5931c-6.0704 3.3727-3.5172 3.3766 3.241 0.00497zm18.201-8.8564c2.4025-4.8507 4.419-10.365 4.4812-12.255s0.54727-6.1225 1.0781-9.4064l0.96515-5.9709-1.9186 4.5969c-1.8467 4.4246-1.9533 4.4765-2.8405 1.3848-0.50697-1.7667-0.62015-3.487-0.2515-3.8229s0.71411 0.23507 0.7677 1.2689c0.09171 1.7702 4.2013-8.9251 4.2487-11.057 0.01216-0.54732-0.92725-0.99515-2.0876-0.99515-1.2809 0-3.103 2.8715-4.6382 7.3096-2.4329 7.0332-4.9695 7.7316-4.776 1.315 0.07823-2.594 0.10499-2.5956 1.1891-0.07105 1.0316 2.4024 1.173 2.3601 2.024-0.6055 0.50319-1.7535 0.61329-3.463 0.24464-3.799s-0.67029 0.12105-0.67029 1.0155-0.65645 1.2566-1.4588 0.80474-2.1128 0.74593-2.9121 2.6618c-1.9015 4.5574-1.856 7.2261 0.07903 4.6375 1.066-1.4261 1.2113-0.48571 0.51258 3.3172-1.0611 5.7749-2.045 7.7587-2.045 4.1234 0-1.2594-0.65522-1.9207-1.4561-1.4697-2.0637 1.1622-1.8916 14.02 0.182 13.6 0.90095-0.18244 1.9688 0.49776 2.373 1.5116 0.45009 1.1289 0.09741 1.4842-0.91005 0.91684-1.9111-1.0763-2.1281 0.46253-0.41261 2.9263 1.9673 2.8255 4.8431-8.417 3.9313-15.369-0.53064-4.0453-0.37809-5.3068 0.43363-3.5865 1.2011 2.5456 1.2971 2.5249 2.3548-0.50703 0.85228-2.4431 1.392-2.7444 2.3772-1.3269 0.70103 1.0086 1.2071 3.3266 1.1246 5.151-0.13836 3.0602-0.23607 3.0088-1.2615-0.66343l-1.1115-3.9806-0.17227 3.5706c-0.09474 1.9638 0.51856 3.9596 1.3629 4.4352 1.0214 0.57526 0.78329 1.9103-0.7116 3.9894-1.2357 1.7186-1.8152 4.1496-1.2878 5.4023 0.61064 1.4501 0.3917 1.958-0.60262 1.398-0.90123-0.50759-2.2374 0.88693-3.1596 3.2975-1.897 4.959-1.9124 5.1132-0.50584 5.0894 0.60062-0.01019 3.0577-3.9873 5.4602-8.8379zm43.596 3.3072c1.2554-2.2933 2.0302-4.3996 1.7216-4.6808-1.047-0.95409-5.2753 3.7729-5.3782 6.0125-0.08252 1.7962-0.34449 1.7137-1.3537-0.4265-1.4136-2.9977-1.9361-0.69354-0.57547 2.5376 1.1429 2.714 2.7614 1.7164 5.5858-3.4428zm17.222 4.6789c-0.9858-0.36345-2.9515-0.38557-4.3682-0.04916s-0.61013 0.63379 1.7924 0.66084 3.5616-0.24821 2.5758-0.61168zm0.70033-2.698c-1.4015-0.33372-3.6948-0.33372-5.0962 0s-0.25481 0.60682 2.5481 0.60682 3.9496-0.27306 2.5481-0.60682zm2.6543-2.7545c1.8119-1.1306 3.8632-5.6189 2.5681-5.6189-1.2059 0-10.683 5.3929-10.683 6.0791 0 0.93973 6.4579 0.57344 8.1145-0.46026zm-10.714-1.7071c3.3434-1.3882 9.3715-9.2192 7.0967-9.2192-1.9338 0-8.7593 5.3019-10.381 8.0641-1.724 2.9354-1.3336 3.0727 3.2848 1.1552zm3.3947-18.479c9.4244-8.3573 10.553-9.8651 9.4173-12.586-0.7094-1.7003-0.84021-3.5471-0.29073-4.104s0.10988-0.54355-0.97697 0.02972c-1.5202 0.8019-1.7561 0.31532-1.0225-2.1093 0.80986-2.6768 0.7118-2.8002-0.65086-0.81908-0.88241 1.2829-1.2338 2.879-0.7808 3.5469 1.012 1.4921-10.282 13.015-13.736 14.013-1.3743 0.39747-3.3728 3.2492-4.4411 6.3373s-2.6435 6.4817-3.5003 7.5416c-3.1554 3.9032 5.2194-2.3067 15.982-11.85zm-6.4609 0.23422c1.0349-1.5101 3.0608-3.0266 4.5019-3.3701 3.7067-0.8833 3.2761-0.15222-1.8816 3.1945-4.3706 2.836-4.447 2.8411-2.6203 0.17555zm20.77 6.8108 2.7269-3.3603-3.4549 1.7426c-1.9002 0.95845-3.855 1.6435-4.3441 1.5224s-1.6099 1.2212-2.4908 2.983c-1.5017 3.0035-1.4009 3.1181 1.6172 1.8379 1.7703-0.75093 4.4459-2.8775 5.9457-4.7257zm93.001 2.8783c-0.38273-1.8244-1.6023-3.3172-2.7102-3.3172-2.4775 0-2.6305 2.8884-0.26707 5.0421 2.7219 2.4804 3.7362 1.8928 2.9773-1.7249zm-111.6 0.06554c2.3253-1.0586 5.4509-3.9986 6.9456-6.5334 1.7546-2.9753 3.4613-4.3486 4.8159-3.8749 1.154 0.40355 1.7534 1.5523 1.3322 2.5528s-0.20147 1.8191 0.48856 1.8191c1.3515 0 3.0362-3.2277 2.9999-5.7477-0.01319-0.9167-0.65975-0.73682-1.5824 0.44024-1.2755 1.6272-1.4406 1.486-0.90551-0.77399 0.39328-1.6609-0.08207-2.7643-1.1909-2.7643-1.0408 0-1.4807 0.86634-1.0088 1.9868 0.47828 1.1358 0.21317 1.6357-0.619 1.167-0.80061-0.45089-4.9847 2.4366-9.2981 6.4167-8.3743 7.7272-8.5969 8.3253-1.9774 5.3117zm103.23-3.3921c-0.49843-0.73493 0.11264-1.6925 1.3579-2.128 2.8353-0.99147 0.83695-4.8095-2.7698-5.2918-2.2906-0.30635-2.298-0.15413-0.10076 2.0584 2.0854 2.0999 2.1062 2.4824 0.17241 3.1586-1.2102 0.42319-2.5854 0.20163-3.0561-0.49237-1.007-1.4849-6.5178-4.3264-6.5178-3.3608 0 0.63634 10.368 7.3923 11.344 7.3923 0.26177 0 0.06813-0.6013-0.4303-1.3362zm-73.525-4.5867c0 0.61748 1.0363-0.03633 2.303-1.4529 2.271-2.5398 2.29-2.5387 1.3698 0.07811-0.71182 2.0243-0.52835 2.2878 0.7735 1.1108 0.93867-0.84863 1.2817-2.1696 0.76231-2.9354-1.328-1.9581-7.0389 0.59208-9.4975 4.2411-1.9363 2.8739-1.9294 2.8761 1.1705 0.36336 1.7151-1.3902 3.1184-2.0224 3.1184-1.405zm4.1283-10.453c1.0783-2.0502 1.6996-3.9655 1.3805-4.2562s-4.1461 2.8468-8.5047 6.9723l-7.9246 7.5009 6.5441-3.2447c3.5993-1.7846 7.4264-4.9221 8.5047-6.9723zm11.907 3.4483c3.4-3.9389 3.2913-10.638-0.23554-14.511-1.5991-1.7559-2.0385-1.7118-3.7106 0.37199-1.0432 1.3001-1.8671 3.8916-1.831 5.759 0.06551 3.3861 0.07136 3.3845 2.1659-0.58532l2.1002-3.9806-0.88752 4.644c-0.48815 2.5542-2.1525 6.9209-3.6986 9.7038-2.7922 5.0258-2.7918 5.0504 0.06477 3.6573 1.5817-0.77139 4.2963-3.0481 6.0324-5.0594zm-27.691-2.6125c-1.5865-2.2547-1.6276-2.2518-0.83108 0.05853 0.46088 1.3368 0.88971 3.1281 0.95293 3.9806 0.08296 1.1188 0.31419 1.1025 0.83107-0.05852 0.39388-0.88472-0.03494-2.676-0.95292-3.9806zm80.818 2.3644c0-3.0354-3.2018-3.0901-4.0686-0.0694-0.60198 2.0977-0.19848 2.6798 1.6347 2.3581 1.3387-0.23495 2.434-1.2649 2.434-2.2887zm-61.927-3.4096c0-0.72977-0.63514-0.43123-1.4115 0.66344s-1.4114 2.5874-1.4114 3.3172 0.63514 0.43124 1.4114-0.66342 1.4115-2.5874 1.4115-3.3172zm55.375 3.3172c0-0.72979-2.332-1.3269-5.1821-1.3269-3.084 0-4.8178 0.53722-4.2822 1.3269 0.49495 0.72977 2.8269 1.3268 5.1822 1.3268s4.2822-0.59708 4.2822-1.3268zm-117.62-7.8755c-1.3492-2.1422-2.7179-3.6536-3.0416-3.3586-0.63829 0.58165 3.8393 7.2535 4.8679 7.2535 0.3447 0-0.47713-1.7527-1.8263-3.8949zm85.08 2.3902c-1.9268-1.0206-3.1437-1.0091-4.2954 0.04036-1.1719 1.0679-0.44402 1.4534 2.6884 1.424 3.7655-0.03537 3.9638-0.216 1.607-1.4644zm-5.2272-14.376c1.7784-9.0684 1.7475-9.2872-1.6887-11.96-1.9251-1.4974-4.8107-3.3713-6.4124-4.1644s-0.51274 0.41127 2.4198 2.6764c3.6753 2.8387 5.2124 5.0459 4.9472 7.1035-1.1242 8.7229-2.6755 14.192-3.8393 13.537-0.72069-0.4059-0.92159 0.18522-0.44643 1.3136 1.5453 3.6698 3.1726 0.91229 5.0197-8.5061zm-7.3957 3.2502c-1.5038-1.6512-1.3406-2.5499 0.90333-4.9758 2.4564-2.6555 2.3302-2.6317-1.225 0.23041-3.6752 2.9588-3.7804 3.3178-1.4456 4.9335 3.3661 2.3295 3.9989 2.2621 1.7673-0.1882zm-75.645-6.5396c-4.3437-6.4046-5.314-5.9988-1.2066 0.50472 1.8127 2.8702 3.5451 4.9914 3.8497 4.7138s-0.88478-2.6259-2.6431-5.2185zm-164.87-2.3918c2.2425-4.022 0.2578-12.114-3.1164-12.706-2.2664-0.39774-2.4449 0.31584-1.5746 6.2946 0.76777 5.2742 0.54425 6.7476-1.026 6.7635-1.5882 0.01607-1.5513 0.28904 0.17643 1.3066 3.128 1.8421 3.6812 1.6765 5.5406-1.6586zm154.81-4.0027c-1.438-1.3007-1.6053-1.1483-0.8151 0.74278 0.5468 1.3086 1.361 2.045 1.8093 1.6365s9.4e-4 -1.4792-0.99417-2.3792zm51.809-5.2853c-0.34706-1.642-0.63102-0.29855-0.63102 2.9854s0.28396 4.6274 0.63102 2.9854 0.34706-4.3289 0-5.9709zm-179.76 4.7604c-1.001-0.36809-2.6391-0.36809-3.6402 0s-0.18201 0.66926 1.8201 0.66926 2.8211-0.30117 1.8201-0.66926zm30.605 0.00841c-0.9858-0.36345-2.9515-0.38557-4.3682-0.04917s-0.61013 0.63379 1.7924 0.66084 3.5616-0.24819 2.5758-0.61167zm-36.793-3.2298c-1.6454-1.0591-0.92717-1.2271 2.9121-0.68118 7.8079 1.1102 28.935 1.4127 30.014 0.42965 1.0671-0.9724-1.8687-5.3658-6.6271-9.9176-1.7197-1.6451-3.021-3.7349-2.8918-4.644 0.68063-4.7888-0.14806-5.1652-5.1588-2.3432-4.9703 2.7993-5.1744 2.8073-13.148 0.51674-7.9775-2.2916-8.1456-2.2848-11.141 0.44489-2.8432 2.5909-2.9182 3.2095-1.1515 9.4914 1.0985 3.9058 2.8478 6.9548 4.1773 7.2809 4.2103 1.0327 5.2174 0.83979 3.0154-0.57759zm78.627-6.5147c-1.2012-0.70742-3.1669-1.2534-4.3682-1.2133-1.4401 0.04811-1.1921 0.46138 0.72803 1.2133 4.0028 1.5675 6.3018 1.5675 3.6402 0zm180.26-4.3123c-2.0411-5.5134-3.3208-6.7442-2.0693-1.9903 1.0662 4.0501 0.6185 4.3126-3.7345 2.1896-2.2512-1.0979-2.7314-1.0749-1.9394 0.09298 0.96149 1.4177 5.8548 3.7316 8.3233 3.9359 0.55897 0.04626 0.29788-1.8564-0.58018-4.2282zm-167.08 0.96107c2.3627-1.1134 4.2959-2.3286 4.2959-2.7004s-1.2674-0.05795-2.8164 0.6975c-3.5443 1.7285-4.8916 1.7508-3.7462 0.06188 0.53189-0.78427-0.13575-0.95312-1.6605-0.41992-1.8032 0.63056-1.9904 1.0618-0.63889 1.4723 1.5528 0.47167 1.5389 0.79547-0.07363 1.7265-3.3421 1.9295 0.07767 1.312 4.6398-0.83781zm114.96-0.62936c-2.0021-1.4271-4.2954-2.6041-5.0962-2.6155s0.50961 1.1655 2.9121 2.6155c5.5904 3.3738 6.9173 3.3738 2.1841 0zm-216.95-0.66343c0-1.0947-0.63467-1.9903-1.4104-1.9903s-1.0332 0.89563-0.57224 1.9903 1.0956 1.9903 1.4104 1.9903 0.57226-0.89563 0.57226-1.9903zm197.53-2.322c-0.40393-0.91222-0.73441-0.16587-0.73441 1.6586s0.33048 2.5708 0.73441 1.6586 0.40393-2.4049 0-3.3172zm-215.01 1.6586c0-0.72978-0.6939-1.3269-1.542-1.3269s-1.137 0.59709-0.6421 1.3269 1.1888 1.3269 1.542 1.3269 0.64209-0.59708 0.64209-1.3269zm136.59-4.6791c-0.44831-0.40853-1.2625 0.32788-1.8093 1.6365-0.79018 1.891-0.62293 2.0434 0.8151 0.74278 0.9951-0.90006 1.4425-1.9707 0.99417-2.3792zm6.1054 0.0351c-0.99694-1.0946-2.4678-1.9903-3.2687-1.9903-0.81223 0-0.65455 0.88005 0.35658 1.9903 0.99695 1.0947 2.4678 1.9903 3.2687 1.9903 0.81223 0 0.65454-0.88007-0.35659-1.9903zm121.58-0.04791c-2.4025-1.0025-5.351-1.8042-6.5523-1.7816s0.10921 0.84589 2.9121 1.8295c6.6479 2.333 9.2636 2.2985 3.6402-0.04791zm18.783-7.1171c-0.53361-3.041-1.2756-5.2507-1.6489-4.9106s-0.22098 3.0873 0.33846 6.1048 1.3014 5.2272 1.6489 4.9106 0.19516-3.0638-0.33847-6.1048zm-148.62 3.1435c3.3371-0.18474 6.5721-0.40039 7.189-0.47919 2.0754-0.26509-4.5573-10.331-8.2668-12.546-2.02-1.2061-4.1873-2.1838-4.8161-2.1727s-0.21358 0.55656 0.92271 1.212c1.4657 0.84541 0.06979 1.4644-4.8043 2.1305-8.5673 1.1708-13.932 5.4971-9.743 7.8565 0.74319 0.41856 1.823-0.5911 2.3995-2.2437 1.0132-2.9042 1.0864-2.9159 2.1866-0.35098 0.62605 1.4596 1.1843 1.9074 1.2406 0.99514s0.80173-1.6586 1.6565-1.6586c0.94315 0 1.1533 1.1737 0.53452 2.9854l-1.0197 2.9854 6.825-5.3074-2.491 3.6022c-3.083 4.4583-3.1144 5.1572-0.18597 4.1331 1.2677-0.44332 5.0353-0.95719 8.3724-1.142zm120.37 1.4302c0-0.84839-10.627-3.4258-11.362-2.7558-0.33305 0.30351 1.5958 1.1291 4.2863 1.8346 5.9201 1.5525 7.076 1.703 7.076 0.92112zm-240.27-3.9292c-0.94296-0.85929-1.9275-0.85929-2.8705 0s-0.45069 1.3079 1.4353 1.3079 2.3782-0.44861 1.4352-1.3079zm227.17 0.04103c0-0.27978-1.3114-0.82119-2.9141-1.2031s-2.5469-0.15304-2.0982 0.50868c0.78372 1.1556 5.0123 1.7414 5.0123 0.69445zm-71.347-2.646c0-0.27553-1.1466-1.3204-2.5481-2.322-2.3094-1.6504-2.3609-1.6035-0.54974 0.50097 1.9022 2.2102 3.0978 2.9131 3.0978 1.821zm7.2803-0.8462c1.9414-1.1614 1.9414-1.4517 0-2.6131-1.2012-0.7186-3.1669-1.2975-4.3682-1.2865-1.6197 0.01486-1.4806 0.39251 0.53871 1.4616 2.1985 1.164 2.3387 1.6633 0.72802 2.5931-1.0971 0.63335-1.3395 1.1515-0.5387 1.1515s2.4389-0.58793 3.6401-1.3065zm46.417-7.9409c-0.02482-1.0947-0.92825 0.09952-2.0076 2.6537-2.5601 6.0581-2.5223 8.4416 0.05258 3.3172 1.1001-2.1893 1.9799-4.8762 1.9551-5.9709zm-198.54 5.5637c-0.4483-0.40852-1.6232-8.4e-4 -2.6109 0.90597-1.4273 1.3104-1.2601 1.4628 0.8151 0.74278 1.436-0.49829 2.2441-1.2402 1.7958-1.6488zm216.37-1.2514c1.8112-2.1045 1.7596-2.1514-0.54973-0.50097-1.4015 1.0016-2.5481 2.0465-2.5481 2.322 0 1.0921 1.1957 0.38919 3.0978-1.821zm-99.198 0.563c0-0.23767-1.8019-1.8797-4.0042-3.6489l-4.0042-3.2167 3.5299 3.6489c3.2993 3.4104 4.4784 4.2574 4.4784 3.2167zm-87.825-7.7778c-0.4648-1.0585-0.80984-0.74409-0.87969 0.80165-0.06322 1.3987 0.2809 2.1824 0.76474 1.7415s0.53557-1.5853 0.11495-2.5432zm65.713-4.8402c-0.35262-4.2011-0.91064-5.1919-2.4359-4.325-1.449 0.82352-1.7007 2.6227-0.94046 6.7233 1.3204 7.122 4.0148 5.2082 3.3764-2.3983zm6.4589 0.65216c3.1517-8.7464 3.1522-8.7274-0.19384-7.93-1.8158 0.43269-3.0399 2.2956-3.6241 5.515-2.0999 11.572 0.03228 12.921 3.818 2.4151zm90.906 4.188c-0.46481-1.0585-0.80983-0.74409-0.8797 0.80165-0.06322 1.3987 0.28091 2.1824 0.76477 1.7415s0.53553-1.5853 0.11493-2.5432zm61.155 0c-0.4648-1.0585-0.80984-0.74409-0.87969 0.80165-0.06323 1.3987 0.2809 2.1824 0.76474 1.7415s0.53556-1.5853 0.11495-2.5432zm-50.644-7.3807c1.657-3.8313 2.6714-6.966 2.2543-6.966-0.93996 0-6.4793 11.627-6.4793 13.6 0 2.3595 1.0453 0.71836 4.225-6.6338zm46.833-4.5593c-1.7133-4.6077-4.108-9.8704-5.3214-11.695-2.6467-3.9794-2.5211-3.5478 2.9908 10.273 5.0304 12.614 6.921 13.767 2.3306 1.4217zm-55.888 5.3056c-0.4648-1.0585-0.80983-0.74407-0.87969 0.80165-0.06322 1.3987 0.28089 2.1824 0.76474 1.7415s0.53556-1.5853 0.11495-2.5432zm-75.068-2.0732c1.8112-2.1045 1.7597-2.1514-0.54974-0.50097-1.4015 1.0016-2.5481 2.0465-2.5481 2.322 0 1.0921 1.1957 0.38917 3.0978-1.821zm18.349 1.5204c-0.48385-0.4409-1.7397-0.48804-2.7908-0.10475-1.1615 0.42356-0.81653 0.73799 0.8797 0.80165 1.5349 0.0576 2.3949-0.25599 1.9111-0.6969zm22.398-1.9718c2.5903-1.4949-5.9043-1.4764-13.995 0.03047-5.5091 1.026-5.3428 1.0861 3.0748 1.1104 4.8945 0.01411 9.8087-0.49926 10.92-1.1408zm-171.27-6.029c1.2307-0.43035 3.2279-0.03349 4.4383 0.88193s2.6753 1.2319 3.2553 0.70338c1.5108-1.3767-4.0062-4.7246-7.7857-4.7246-2.0794 0-3.498 1.0406-4.07 2.9854-1.3365 4.5446-0.91072 7.3689 0.59563 3.9512 0.73084-1.6582 2.3357-3.367 3.5664-3.7973zm207.04 1.9194c-0.46482-1.0585-0.80983-0.74408-0.8797 0.80165-0.06323 1.3987 0.2809 2.1824 0.76475 1.7415s0.53555-1.5853 0.11495-2.5432zm-174.66-0.55287c-0.48385-0.44089-1.7397-0.48802-2.7908-0.10473-1.1615 0.42356-0.81653 0.73797 0.87972 0.80163 1.5349 0.05761 2.3949-0.25597 1.9111-0.6969zm97.903-3.2595c-0.83117-1.4153-2.471-2.5732-3.6441-2.5732s-2.1329-0.63233-2.1329-1.4052-0.77921-0.96632-1.7316-0.42996c-1.1754 0.66199-0.68842 1.3994 1.5162 2.2958 1.8832 0.76576 2.9236 2.0903 2.4763 3.1526-0.4243 1.0076-0.12374 1.4672 0.66792 1.0213s1.4394-0.14309 1.4394 0.67283 0.65702 1.1135 1.46 0.66122c0.97092-0.5468 0.95375-1.6843-0.05123-3.3955zm-98.703-0.29568c-0.98326-1.0796-1.0567-2.4154-0.20058-3.6489 1.0981-1.5822 1.3761-1.4499 1.4877 0.70793 0.07768 1.5019 0.46309 1.9145 0.88799 0.95053 0.4129-0.93674-0.05982-2.5932-1.0505-3.6809s-1.4033-2.3404-0.91693-2.7836 0.23265-1.9154-0.56383-3.2716c-1.0529-1.7929-0.8171-3.3434 0.86418-5.6816 1.5211-2.1154 2.1587-5.4119 1.8634-9.6333l-0.44893-6.4174-5.0184 7.9152c-2.7601 4.3534-4.9186 9.1225-4.7966 10.598 0.18374 2.2228-0.0386 2.3444-1.2961 0.70944-1.2308-1.6002-1.3975-1.4626-0.88148 0.72756 0.46006 1.9527-0.11012 2.7011-2.0578 2.7011-2.2856 0-3.2775-1.5981-2.9706-4.7862 0.03764-0.39096-1.1471-0.71082-2.6328-0.71082s-2.3142 0.57061-1.8412 1.268c0.48948 0.72172-0.1839 0.903-1.563 0.42075-1.3326-0.46599-2.4229-0.33365-2.4229 0.29411s1.6381 1.516 3.6402 1.9739 3.6401 1.3248 3.6401 1.9265 3.2749 3.1279 7.2775 5.6139 7.2788 4.9678 7.2803 5.5151 0.73827 0.99515 1.6372 0.99515c1.1652 0 1.1891-0.48894 0.08329-1.7031zm176.92-1.1994c-0.4648-1.0585-0.80984-0.74407-0.87969 0.80166-0.06322 1.3987 0.2809 2.1824 0.76475 1.7415s0.53555-1.5853 0.11494-2.5432zm-184.46-0.29016c0-0.89968-14.806-10.295-15.388-9.7645-0.29806 0.27161 2.5508 2.688 6.3309 5.3697 6.2936 4.465 9.0569 5.8058 9.0569 4.3947zm96.726-4.9189c-1.429-2.107-3.3625-1.24-3.1434 1.4096 0.16066 1.9434 0.67697 2.2358 2.0776 1.1765 1.0251-0.77526 1.5047-1.939 1.0659-2.5861zm-98.644-13.367c-0.4648-1.0585-0.80984-0.74409-0.87969 0.80164-0.06323 1.3987 0.2809 2.1824 0.76474 1.7415s0.53556-1.5853 0.11495-2.5432zm-2.7319-1.7766c-0.44831-0.40853-1.2625 0.32788-1.8093 1.6365-0.79017 1.891-0.62292 2.0434 0.81511 0.74278 0.9951-0.90008 1.4425-1.9707 0.99417-2.3792zm226.53-1.3332c-1.3282-1.8472-2.7589-3.045-3.1794-2.6619-0.70026 0.63812 3.822 6.0204 5.0584 6.0204 0.29477 0-0.55077-1.5114-1.879-3.3586zm-231.21-2.4636c-0.454-1.5414-0.88045-3.3996-0.94767-4.1293-0.18111-1.9662-2.6082 3.6055-2.7273 6.261-0.06954 1.5494 0.63531 2.0224 2.1991 1.4756 1.5134-0.5292 2.0188-1.7644 1.4759-3.6072zm4.129 0.66506c0.43887-0.6471-0.12614-1.8754-1.2556-2.7296-1.6779-1.269-1.9102-1.0538-1.2702 1.1765 0.86488 3.0139 1.3378 3.3047 2.5258 1.553zm8.1583-2.1406c1.9759-2.4547 1.945-2.5172-0.41202-0.83268-1.4014 1.0016-2.5481 2.4445-2.5481 3.2066s0.18541 1.1368 0.41202 0.83267 1.3732-1.747 2.5481-3.2066zm131.87-13.388c2.8149-6.1393 2.5827-7.1784-1.6046-7.1784-2.8886 0-3.6402 0.66865-3.6402 3.2388 0 1.7814 0.65523 3.6079 1.4561 4.0589s1.456 1.5013 1.456 2.334c0 1.0905-0.48869 1.0686-1.7473-0.0783-3.0771-2.8041-5.8127-1.9203-3.075 0.99351 2.9585 3.1487 4.4993 2.4233 7.1549-3.3685zm9.3158-3.1695c0-5.4086 4.9338-10.16 13.123-12.639 7.0818-2.1435 9.1166-4.1272 5.4418-5.3052-4.3927-1.4081-9.8485-1.7039-10.614-0.57551-0.45802 0.67537-2.2706 1.926-4.0278 2.7792-2.9988 1.4559-3.0636 1.3952-1.0547-0.98802 1.1772-1.3966 3.3067-3.6074 4.7322-4.913 2.8608-2.62 3.4691-8.254 1.0389-9.6226-2.4578-1.3842-3.4159 0.45004-1.3944 2.6696 1.4939 1.6403 1.3907 2.6347-0.55409 5.3395-1.3144 1.8281-3.1316 3.3238-4.0381 3.3238-0.9492 0-0.62621-1.029 0.7616-2.4265 3.5888-3.6137 3.1407-6.5488-0.53677-3.516-2.2588 1.8629-3.3463 2.0657-4.6594 0.86909s-1.3051-1.5609 0.03441-1.5609c0.961 0 1.7473-0.63693 1.7473-1.4154s1.7158-3.4654 3.813-5.9709 3.284-4.5555 2.6376-4.5555 0.17603-1.1473 1.8278-2.5497c2.7387-2.3251 5.877-11.531 4.3922-12.884-0.34197-0.31162-3.5829-0.84468-7.202-1.1846-4.7127-0.44261-7.093-0.05503-8.3868 1.3656-0.99359 1.091-2.6645 1.9836-3.7132 1.9836-4.6618 0-10.724 13.207-6.1091 13.309 1.0101 0.02239 0.68612 0.64222-0.72803 1.3928-3.4666 1.84-3.2036 3.6018 0.61398 4.1137 1.7392 0.2332 3.4299 1.165 3.7572 2.0707 0.41987 1.1618-0.62827 1.4238-3.5596 0.88954-3.0551-0.55681-4.8669-0.04-6.8459 1.9527-2.9868 3.0075-2.196 7.1656 1.1407 5.9988 1.5786-0.55202 1.9272-0.02894 1.3414 2.0127-0.61751 2.1518-0.11378 2.7585 2.2903 2.7585 3.7321 0 3.8693 0.98848 0.59505 4.2855-3.5393 3.5638-0.84822 6.8814 6.0109 7.4101 4.0613 0.31308 5.0455 0.82097 3.9409 2.0338-0.80972 0.88908-2.1025 3.1271-2.8728 4.9734-1.3229 3.1707-1.166 3.3255 2.8279 2.7914 3.4924-0.4671 4.2285-1.2011 4.2285-4.2166zm18.929 3.9939c0-0.70687-0.98285-0.94154-2.1841-0.52148s-2.1841 0.99841-2.1841 1.2852 0.98284 0.52147 2.1841 0.52147 2.1841-0.57835 2.1841-1.2852zm16.381-4.9821c-2.6027-0.29434-6.8617-0.29434-9.4644 0s-0.47322 0.53516 4.7322 0.53516 7.3349-0.24082 4.7322-0.53516zm9.434 0.1582c-0.48385-0.44091-1.7397-0.48804-2.7908-0.10474-1.1616 0.42356-0.81653 0.73797 0.8797 0.80164 1.5349 0.05761 2.3949-0.25598 1.9111-0.6969zm-64.134-69.771c-0.4648-1.0585-0.80983-0.74407-0.87969 0.80166-0.06322 1.3987 0.28089 2.1824 0.76475 1.7415s0.53555-1.5853 0.11494-2.5432zm12.11 1.2439c7e-5 -1.0338-1.7826-1.5721-4.7322-1.429-6.5599 0.31826-6.8462 0.59527-1.8202 1.7607 6.402 1.4845 6.5522 1.4769 6.5524-0.33171zm119.4 350.88c0-1.1134 0.8808-1.5578 2.1841-1.1021 1.3304 0.46523 2.1841 0.0021 2.1841-1.1849 0-2.7035 3.913-2.446 5.6731 0.37336 1.1568 1.853 1.3388 1.518 0.90071-1.6586-0.30193-2.1893-0.59411-4.4284-0.64927-4.9757s-1.0832-0.99515-2.2844-0.99515-2.193-0.74636-2.204-1.6586-0.41497-3.002-0.89787-4.644c-1.2968-4.4099 2.8818-3.8448 4.9061 0.66343l1.6384 3.6489-0.74709-3.9806c-0.57494-3.0633-0.38957-3.5219 0.80442-1.9903 1.3792 1.7692 1.5565 1.7692 1.5961 0 0.03812-1.7011 0.23598-1.7147 1.3619-0.09337 0.72454 1.0433 2.3557 2.0358 3.6248 2.2055s1.9381-0.23606 1.4866-0.90176-0.17504-1.2104 0.61432-1.2104 1.6471-0.98831 1.906-2.1962c0.36099-1.6841 0.94653-1.385 2.511 1.2827 1.9118 3.2601 1.7515 3.748-2.5481 7.7556-2.5236 2.3521-4.5883 4.8335-4.5883 5.514s-0.93129 0.53312-2.0696-0.32772c-1.6841-1.2737-1.9364-1.1014-1.3548 0.92538 0.93754 3.2671-1.8643 5.1796-8.5881 5.8621-4.0093 0.40696-5.4602 0.05843-5.4602-1.3116zm112.12 1.1421-3.6402-0.99205 3.6402-0.62913 3.6402-0.6291-4.0042-1.5309c-5.9419-2.2717-4.8656-2.7349 2.6927-1.1588 6.01 1.2533 6.3496 1.5135 3.3112 2.5378-2.7801 0.93716-3.0012 1.3628-1.2366 2.3797 2.4851 1.4321 0.80055 1.4407-4.4032 0.02249zm-120.75-7.9209c0.09163-3.0691 0.22498-3.1501 1.2746-0.774 1.0942 2.477 1.2197 2.4328 1.8834-0.66344 0.63806-2.9761 0.73157-2.8966 0.90947 0.77401 0.13728 2.8323-0.47375 4.0912-1.9858 4.0912-1.4042 0-2.1475-1.224-2.0817-3.4277zm6.6105-0.774c1.2258-4.994 1.3865-5.1507 4.2524-4.1485 2.7934 0.9768 2.1238 5.6565-0.72589 5.0736-1.0803-0.22096-2.5356 0.37613-3.2339 1.3269-0.77047 1.049-0.88553 0.16354-0.29261-2.252zm110.27-4.2816c-1.5508-1.294-1.942-1.8108-0.86926-1.1484 1.2404 0.76591 2.5905 0.61066 3.7088-0.4265 1.3774-1.2775 1.2996-1.5384-0.35953-1.2043-1.1648 0.23457-2.2296-0.31988-2.3661-1.2321-0.51798-3.4615-0.69734-3.5966-2.2014-1.6586-1.2597 1.6232-1.4401 1.6381-0.9779 0.0806 0.31169-1.0503-1.6041-5.1948-4.2573-9.21s-4.7951-7.9325-4.7597-8.7052 1.4346 0.98343 3.1094 3.9025c4.3377 7.5606 11.269 15.259 13.739 15.259 1.1591 0 2.4831 0.89221 2.9423 1.9827s1.5853 1.6 2.5024 1.1322c1.1219-0.57217 1.191-0.40141 0.21145 0.52192-2.9506 2.781-7.5611 3.0934-10.422 0.70622zm-7.1105-8.4119c-0.52786-0.77832-0.64748-1.6997-0.2658-2.0475s1.0819 0.289 1.5562 1.4151c0.98457 2.3381 0.14539 2.7493-1.2904 0.63238zm-4.0656-0.7963c-0.53389-0.48651-0.97071-1.5016-0.97071-2.2557 0-0.83141 0.67818-0.75307 1.723 0.19903 0.94767 0.86357 1.3845 1.8786 0.97072 2.2557s-1.1891 0.2875-1.723-0.19902zm11.556-0.22113c-0.41245-0.60816 0.17528-1.1057 1.3061-1.1057s1.7185 0.49758 1.3061 1.1057-1.0002 1.1057-1.3061 1.1057-0.89363-0.49758-1.3061-1.1057zm-143.21-12.708c-4.3115-8.1075-4.4569-20.008-0.33444-27.372 1.6179-2.89 3.5836-5.2546 4.3682-5.2546 2.152 0 1.7346 2.1395-1.4856 7.6146-3.5572 6.048-3.8713 17.364-0.64009 23.058 1.2496 2.2021 2.0686 4.9287 1.8201 6.0592-0.25678 1.1678-1.8667-0.60489-3.7281-4.1052zm60.366-15.527c-3.3173-3.8626-3.8719-7.8115-1.0971-7.8115 1.2108 0 6.1654 10.806 5.3114 11.584-0.30065 0.27397-2.1971-1.4236-4.2143-3.7724zm-42.156-28.007c-2.8696-2.8754-4.8172-3.7713-6.9163-3.1819l-6.0289 1.6851c-2.2778 0.63387-2.9275 0.36826-2.4343-0.99515 0.41126-1.1369 3.1939-2.0124 7.1586-2.2524 5.3402-0.32326 7.0837 0.1873 9.8706 2.8906 1.8616 1.8058 3.1507 3.8621 2.8647 4.5697s-2.3175-0.51467-4.5144-2.716zm16.486-15.962c0.06322-3.1016 0.47014-4.8253 0.90427-3.8305 0.6375 1.4608 1.0132 1.4787 1.9527 0.09338 0.63985-0.94343 2.2017-1.8542 3.4708-2.024s1.938 0.23607 1.4866 0.90176c-0.74306 1.0956 1.2752 1.7716 4.0832 1.3675 0.60062-0.08641 1.092 0.73851 1.092 1.8332s0.80349 1.841 1.7855 1.6586 1.9964 0.91407 2.2541 2.4367c0.36441 2.1526-0.2518 2.72-2.7704 2.5509-1.7815-0.11961-3.7326-1.3654-4.3359-2.7684-1.0634-2.473-1.1044-2.4699-1.3444 0.10278-0.21022 2.2542-0.42296 2.1544-1.4133-0.66344-1.0571-3.0079-1.1793-3.052-1.3109-0.47367-0.12027 2.3563-2.645 4.4543-5.3604 4.4543-0.33491 0-0.5572-2.5376-0.49398-5.6392zm43.797-6.3026c0-1.8244 0.3305-2.5708 0.73443-1.6586s0.40392 2.4049 0 3.3172-0.73443 0.16586-0.73443-1.6586zm-33.399-1.6797c-3.3108-3.2115-4.3699-5.7519-1.7929-4.3006 0.79732 0.44905 1.0847-0.03157 0.64429-1.0775-0.43732-1.0385 0.22354-2.8164 1.4686-3.9509s1.8678-3.0028 1.384-4.1517-0.23068-2.0889 0.56247-2.0889 1.7514 1.4746 2.1295 3.277 0.17029 2.9858-0.46175 2.6298c-1.2507-0.70438-0.94163 4.6926 0.3868 6.7546 0.45025 0.69891 0.3895 2.3446-0.13503 3.6571-0.87688 2.1942-1.214 2.1339-4.186-0.74894zm31.165-8.3231c-0.49935-1.1858-0.86638-2.8536-0.8156-3.7061s0.72006-0.11993 1.4873 1.628 1.1343 3.4157 0.81561 3.7061-0.98799-0.44221-1.4873-1.628zm2.6724-2.0273c-0.52786-0.77833-0.64748-1.6997-0.2658-2.0475s1.0819 0.28899 1.5562 1.4151c0.98456 2.3381 0.14539 2.7493-1.2904 0.63238zm-9.9773-7.1181c-0.58601-2.1277-0.40573-4.3745 0.41067-5.1185 0.96956-0.88354 1.1973-0.26598 0.68233 1.8505-0.48631 1.9987-0.30256 2.5812 0.49553 1.5709 0.93668-1.1858 1.7345-0.92553 3.0508 0.99515 1.0686 1.5593 1.1944 2.6008 0.31396 2.6008-0.80761 0-1.5144-0.74637-1.5707-1.6586s-0.60534-0.48617-1.2202 0.94679c-0.99821 2.3266-1.2296 2.1995-2.1624-1.1871zm-40.455-3.5175c-2.5274-5.2192-8.9487-10.506-12.76-10.506-1.3381 0-4.6531 1.4927-7.3668 3.3172-5.2906 3.5569-8.0181 4.1228-9.4802 1.967-1.3223-1.9497 10.691-6.5476 17.197-6.5818 10.744-0.05659 16.729 5.211 15.267 13.436-0.50732 2.8539-0.75126 2.7145-2.8564-1.6326zm46.822 2.0672c-2.8136-3.0894-0.806-3.6716 2.2052-0.6395 1.4539 1.464 1.967 2.6619 1.1401 2.6619s-2.3323-0.91006-3.3453-2.0224zm-88.288-13.294c-0.47421-1.1261-0.53687-2.344-0.13922-2.7064s1.0725 0.55903 1.4996 2.0475c0.90734 3.1618-0.10081 3.6501-1.3604 0.65884zm2.4097-3.2599c-0.85719-1.4596-1.2309-2.6537-0.8305-2.6537s1.4294 1.1942 2.2866 2.6537 1.2309 2.6537 0.83048 2.6537-1.4294-1.1942-2.2865-2.6537zm14.739 0.95889c-0.89907-0.81931-1.6246-2.4151-1.6124-3.5463 0.01965-1.8122 0.19004-1.8201 1.4338-0.06634 0.77632 1.0947 1.4215 1.4694 1.4338 0.83268s0.9817-0.43204 2.1543 0.45479c1.808 1.3674 2.0454 0.98874 1.5621-2.4913-0.69036-4.9708 0.53201-5.1615 5.0422-0.78651 3.8924 3.7757 2.489 4.4744-2.0694 1.0303-1.6647-1.2577-2.2077-1.4369-1.2067-0.39805 2.5489 2.6451 2.3076 3.3833-1.6415 5.023-2.5129 1.0434-3.9095 1.029-5.0962-0.05239zm-9.5494-4.5505c-0.79017-1.891-0.62293-2.0434 0.8151-0.74278 0.99511 0.90006 1.4425 1.9707 0.99418 2.3792s-1.2625-0.32789-1.8093-1.6365zm2.9984-1.1037c-1.4051-3.3366-0.99056-4.1976 0.72589-1.5078 0.84989 1.3318 1.2385 2.701 0.86365 3.0427s-1.0902-0.34909-1.5895-1.5349zm18.611-0.80521c-2.7545-2.827-2.7516-2.8362 0.42127-1.3197 3.5393 1.6916 5.7186 4.1665 3.6688 4.1665-0.72397 0-2.5645-1.2811-4.0901-2.8468zm-23.887-5.1144c0-0.74724 4.0969-1.3269 9.3784-1.3269 5.1582 0 9.7834 0.59709 10.278 1.3269 0.56748 0.8367-2.897 1.3268-9.3785 1.3268-5.8815 0-10.278-0.5676-10.278-1.3268zm-232.87-15.741c-1.6576-2.9608-2.9317-7.3475-2.8314-9.7483 0.17058-4.0859 0.24512-4.0154 1.1648 1.1019 0.54041 3.0069 2.1488 7.089 3.5742 9.0714s2.2574 3.909 1.8489 4.2813-2.099-1.7456-3.7565-4.7063zm10.661 3.5661c-0.41687-0.61467-0.3614-2.2562 0.12327-3.6478s0.18868-2.9202-0.65779-3.397-1.1582-1.4284-0.69264-2.1148-0.51581-2.8261-2.1807-4.7549c-4.7713-5.5275-2.6322-4.9365 4.4097 1.2185 6.6868 5.8445 6.9803 6.4619 5.2518 11.049-1.0407 2.7621-4.8219 3.7578-6.2536 1.6467zm5.2542-1.7573c0-0.20873-0.87363-0.685-1.9414-1.0584s-1.9414 0.10288-1.9414 1.0584 0.87363 1.4318 1.9414 1.0584 1.9414-0.84967 1.9414-1.0584zm0-2.4481c0-0.25179-1.4742-1.5952-3.2761-2.9854l-3.2762-2.5277 2.7738 2.9854c2.6067 2.8056 3.7785 3.5895 3.7785 2.5277zm-48.48-13.244c-0.50075-1.1891 0.08583-1.8286 1.5811-1.7237 1.3074 0.09175 2.6141-0.8781 2.9038-2.1552 0.34768-1.5332-0.37536-2.3289-2.1283-2.3423-2.2033-0.01687-2.2906-0.23029-0.51294-1.2547 1.1781-0.67892 1.6853-1.6505 1.1272-2.1591s-1.955-0.21348-3.1044 0.65572c-2.947 2.2288-4.156-0.13802-2.9825-5.8383 1.3292-6.4567 4.2691-7.9012 3.1365-1.5411-0.74049 4.1583-0.4686 4.8503 1.9056 4.8503 3.7874 0 5.8929 4.078 4.5203 8.7552-1.2185 4.1521-5.1501 5.8313-6.4463 2.7532zm29.666-4.3212c0.06985-1.5457 0.41489-1.8601 0.87969-0.80167 0.42061 0.95785 0.36889 2.1023-0.11495 2.5432s-0.82796-0.34279-0.76474-1.7415zm18.991-24.331c-1.1216-0.63493-1.5229-1.8492-0.91003-2.7529 0.84354-1.2438 1.3854-1.2014 2.3484 0.18337 0.68844 0.99013 1.2618 1.1534 1.274 0.36281s1.0051-1.4374 2.2064-1.4374 2.1841 0.49758 2.1841 1.1057-0.92824 1.1057-2.0628 1.1057-2.2812 0.57796-2.5481 1.2843c-0.28283 0.74842-1.3227 0.81032-2.492 0.14836zm-14.338-11.204c-0.47483-0.7001 0.6868-2.4168 2.5814-3.8148 3.2962-2.4323 3.5267-2.4396 5.3475-0.1705 1.0466 1.3043 1.6757 2.9926 1.3981 3.7519-0.63867 1.7467-8.1727 1.9352-9.3269 0.23336zm20.291-2.6996c1.0326-1.0211 2.1069-1.6579 2.3873-1.4151 0.86365 0.74763-1.3252 3.2716-2.8372 3.2716-0.78515 0-0.58267-0.8354 0.44993-1.8565zm-26.516-7.9403c0-0.27982 1.6182-0.79065 3.5961-1.1352s3.2496-0.1156 2.8262 0.50877c-0.74562 1.0994-6.4223 1.6531-6.4223 0.62643zm195.84-125.61c-2.3971-0.88189-2.0834-1.0878 1.7744-1.1646 3.7758-0.07513 4.5308-0.54446 3.8853-2.4153-0.76305-2.2114-0.70123-2.2114 1.2983 0 2.6742 2.9577 10.482 3.2337 9.2583 0.32732-0.74281-1.764-0.46229-1.7692 2.425-0.04527 4.1217 2.461 10.65 1.3078 8.1483-1.4393-0.99441-1.0919-1.0786-1.8282-0.20897-1.8282 0.80082 0 2.2959 0.9222 3.3224 2.0493 1.9939 2.1894 10.017 1.4872 11.777-1.0308 0.57473-0.82215 1.277-0.76072 1.906 0.1667 1.2448 1.8354 7.619 1.9309 8.8388 0.1323 0.49842-0.73495-0.11812-1.6944-1.3701-2.1323s-2.2764-1.3471-2.2764-2.0206 1.8376 0.01347 4.0837 1.5267c2.487 1.6756 5.0734 2.4052 6.6151 1.8661 2.3831-0.83334 2.3865-1.0311 0.05883-3.375-3.211-3.2333-1.3574-3.1845 3.7004 0.09736 2.4609 1.5969 5.2166 2.2941 7.1992 1.8217 3.042-0.72491 3.0814-0.89715 0.74423-3.2506-2.9316-2.9519-0.85058-3.3049 3.1653-0.53699 3.1787 2.1909 9.3787 2.701 9.3787 0.77155 0-0.6935-1.1412-1.8429-2.536-2.5542s-2.0705-1.7175-1.5015-2.236 2.6699 0.03384 4.6688 1.2274 4.7205 2.17 6.048 2.17c3.6192 0-0.04361-3.5494-7.0001-6.7834-6.5019-3.0227-22.512-7.7699-26.289-7.7949-1.4215-0.00941-6.313-1.2113-10.87-2.6708s-10.494-2.6537-13.193-2.6537c-5.0239 0-13.712-1.706-38.272-7.5153-9.2441-2.1865-15.653-3.0117-18.978-2.4433-3.4588 0.5913-7.3502 0.02109-12.514-1.8338l-7.4945-2.692-8.4732 3.0934c-5.7066 2.0834-13.136 3.3929-22.753 4.0106-7.8539 0.50445-17.027 1.8026-20.385 2.8847s-11.347 2.3209-17.753 2.7527c-6.7085 0.4522-15.662 2.139-21.113 3.9775-13.305 4.4876-26.296 8.3705-28.219 8.4341-2.1993 0.07273-12.159 7.9073-10.052 7.9073 0.91357 0 2.6439-0.89564 3.8451-1.9903s3.0499-1.9704 4.1082-1.9462c1.153 0.02646 0.63602 1.0239-1.2901 2.489-1.7678 1.3447-2.8053 2.8175-2.3054 3.273 1.8987 1.7302 7.3574 0.72242 9.8878-1.8256 1.4495-1.4596 3.3033-2.6537 4.1196-2.6537s-0.05468 1.4927-1.9355 3.3172l-3.4197 3.3172h4.8922c3.0351 0 6.26-1.1333 8.4953-2.9854 3.8149-3.1609 3.8274-3.0853 0.65726 3.9806-1.3352 2.9761 6.5136 1.8785 8.9158-1.2468 1.2282-1.598 2.696-2.4836 3.2616-1.9682s0.25312 1.6438-0.69455 2.5074c-2.5438 2.3181-2.1011 3.6931 1.1891 3.6931 1.6017 0 2.9121 0.59708 2.9121 1.3268 0 1.634-1.97 1.6306-9.4644-0.01643-3.2033-0.70401-9.1004-1.6271-13.105-2.0514-9.5938-1.0165-22.179-4.2453-23.366-5.9944-1.8639-2.7484 11.289-11.841 17.129-11.841 1.0384 0 7.7806-2.1091 14.983-4.687 8.6943-3.112 17.254-5.0925 25.471-5.8938 6.8071-0.66372 15.653-2.1253 19.657-3.248s13.177-2.3909 20.385-2.8183c8.4501-0.50105 16.923-1.9948 23.854-4.2056 10.496-3.3476 10.908-3.3767 17.473-1.2328 3.6977 1.2076 10.851 2.1927 15.896 2.1891s10.942 0.79903 13.105 1.7836 8.1908 2.518 13.396 3.4075 12.212 2.1737 15.569 2.8538 8.5531 1.2366 11.545 1.2366c8.4857 0 50.612 12.061 57.836 16.559 3.9017 2.4292 8.1491 8.8192 5.6354 8.4782-0.57118-0.07748-1.3661-0.02447-1.7665 0.11777s-1.7109 0.43924-2.9121 0.65996c-18.677 3.4317-27.17 4.7108-35.673 5.3729-5.6058 0.43645-16.089 1.3378-23.297 2.0028-22.718 2.0964-29.038 2.3409-32.033 1.239z"/> </g> </svg>