<svg width="789" height="789" viewBox="0 0 789 789" fill="none" xmlns="http://www.w3.org/2000/svg">
<ellipse cx="268.5" cy="642.5" rx="76.5" ry="82.5" fill="white"/>
<ellipse cx="290.5" cy="625.5" rx="76.5" ry="82.5" fill="white"/>
<ellipse cx="370.5" cy="577.5" rx="76.5" ry="82.5" fill="white"/>
<ellipse cx="415.5" cy="603.5" rx="76.5" ry="82.5" fill="white"/>
<ellipse cx="494.5" cy="585.5" rx="76.5" ry="82.5" fill="white"/>
<ellipse cx="516.5" cy="585.5" rx="76.5" ry="82.5" fill="white"/>
<ellipse cx="519.5" cy="514.5" rx="76.5" ry="82.5" fill="white"/>
<ellipse cx="545.5" cy="529.5" rx="76.5" ry="82.5" fill="white"/>
<ellipse cx="592.5" cy="475.5" rx="76.5" ry="82.5" fill="white"/>
<ellipse cx="659" cy="511" rx="23" ry="21" fill="white"/>
<ellipse cx="632.994" cy="449.055" rx="69.0566" ry="51.799" transform="rotate(-1.04913 632.994 449.055)" fill="white"/>
<ellipse cx="592.994" cy="387.055" rx="69.0566" ry="51.799" transform="rotate(-1.04913 592.994 387.055)" fill="white"/>
<ellipse cx="532.994" cy="309.055" rx="69.0566" ry="51.799" transform="rotate(-1.04913 532.994 309.055)" fill="white"/>
<ellipse cx="619.994" cy="321.055" rx="69.0566" ry="51.799" transform="rotate(-1.04913 619.994 321.055)" fill="white"/>
<ellipse cx="605.994" cy="284.055" rx="69.0566" ry="51.799" transform="rotate(-1.04913 605.994 284.055)" fill="white"/>
<ellipse cx="509.993" cy="239.055" rx="69.0566" ry="51.799" transform="rotate(-1.04913 509.993 239.055)" fill="white"/>
<ellipse cx="567.994" cy="203.055" rx="69.0566" ry="51.799" transform="rotate(-1.04913 567.994 203.055)" fill="white"/>
<ellipse cx="369.993" cy="181.29" rx="149.663" ry="74.043" transform="rotate(-1.04913 369.993 181.29)" fill="white"/>
<ellipse cx="511.5" cy="126.883" rx="71.6225" ry="48.5795" transform="rotate(-1.04913 511.5 126.883)" fill="white"/>
<ellipse cx="400.5" cy="108.883" rx="71.6225" ry="48.5795" transform="rotate(-1.04913 400.5 108.883)" fill="white"/>
<ellipse cx="282.589" cy="129.68" rx="55.3575" ry="48.5795" transform="rotate(-1.04913 282.589 129.68)" fill="white"/>
<ellipse cx="209.302" cy="263.5" rx="100.842" ry="80.6672" transform="rotate(-1.04913 209.302 263.5)" fill="white"/>
<ellipse cx="130.5" cy="203.846" rx="23.1454" ry="19.5806" transform="rotate(-1.04913 130.5 203.846)" fill="white"/>
<ellipse cx="294.302" cy="188.5" rx="100.842" ry="80.6672" transform="rotate(-1.04913 294.302 188.5)" fill="white"/>
<ellipse cx="225.79" cy="137" rx="27.3095" ry="26.5044" transform="rotate(-1.04913 225.79 137)" fill="white"/>
<ellipse cx="193.258" cy="117.5" rx="17.4838" ry="12.1819" transform="rotate(-1.04913 193.258 117.5)" fill="white"/>
<ellipse cx="183.5" cy="307.206" rx="96.2994" ry="66.4543" transform="rotate(-1.04913 183.5 307.206)" fill="white"/>
<ellipse cx="144.5" cy="379.206" rx="96.2994" ry="66.4543" transform="rotate(-1.04913 144.5 379.206)" fill="white"/>
<ellipse cx="174.5" cy="447.206" rx="96.2994" ry="66.4543" transform="rotate(-1.04913 174.5 447.206)" fill="white"/>
<ellipse cx="229" cy="519.263" rx="101.724" ry="70.6112" transform="rotate(-1.04913 229 519.263)" fill="white"/>
<ellipse cx="388.042" cy="397.704" rx="161.458" ry="160.124" fill="white" stroke="#1C1C1C" stroke-width="14" stroke-linecap="round"/>
<ellipse cx="388.042" cy="397.702" rx="96.875" ry="96.0744" fill="#993331" stroke="#1C1C1C" stroke-width="14" stroke-linecap="round"/>
<path d="M397 558C390.024 611.771 353.859 721.85 265 732" stroke="#1C1C1C" stroke-width="14" stroke-linecap="round"/>
<path d="M484.993 526C485.473 607.334 461.947 748.383 364 661.9" stroke="#1C1C1C" stroke-width="14" stroke-linecap="round"/>
<path d="M532.891 470.079C563.973 510.857 613.475 610.992 562.824 685.309" stroke="#1C1C1C" stroke-width="14" stroke-linecap="round"/>
<path d="M549.7 394.819C591.739 398.648 677.854 436.045 686 555" stroke="#1C1C1C" stroke-width="14" stroke-linecap="round"/>
<path d="M533.021 317.969C588.247 308.396 690.771 324.577 659.05 465.874" stroke="#1C1C1C" stroke-width="14" stroke-linecap="round"/>
<path d="M490 273C514.966 247.743 586.117 207.523 671 248.696" stroke="#1C1C1C" stroke-width="14" stroke-linecap="round"/>
<path d="M694.813 308.033C694.274 327.781 685.125 365.677 652.833 359.272" stroke="#1C1C1C" stroke-width="14" stroke-linecap="round"/>
<path d="M401 233C417.465 166.225 469.516 43.281 546 85.7027" stroke="#1C1C1C" stroke-width="14" stroke-linecap="round"/>
<path d="M320.423 247C307.758 206.97 297.943 115.129 360 67.9998" stroke="#1C1C1C" stroke-width="14" stroke-linecap="round"/>
<path d="M249 316C225.818 299.365 187.182 249.285 218.091 182.046C256.727 97.9959 166.576 92.7427 164 119.008" stroke="#1C1C1C" stroke-width="14" stroke-linecap="round"/>
<path d="M222 407C172.579 403.427 76.8052 371.624 89.0752 273" stroke="#1C1C1C" stroke-width="14" stroke-linecap="round"/>
<path d="M249 486.999C221.745 513.665 147.788 544.998 70 457" stroke="#1C1C1C" stroke-width="14" stroke-linecap="round"/>
<path d="M310.747 538.632C269.021 542.024 189.037 565.677 202.903 633.144" stroke="#1C1C1C" stroke-width="14" stroke-linecap="round"/>
<path d="M459.083 663.758C480.332 673.982 534.621 682.162 581.792 633.084" stroke="#1C1C1C" stroke-width="14" stroke-linecap="round"/>
<path d="M581.792 637.889C589.865 602.128 620.542 529.645 678.667 525.802" stroke="#1C1C1C" stroke-width="14" stroke-linecap="round"/>
<path d="M673.823 495.378C701.271 478.832 737.76 436.452 664.135 399.304" stroke="#1C1C1C" stroke-width="14" stroke-linecap="round"/>
<ellipse cx="696.427" cy="591.453" rx="40.3646" ry="40.031" fill="#993331" stroke="#1C1C1C" stroke-width="14" stroke-linecap="round"/>
<ellipse cx="560.802" cy="722.754" rx="40.3646" ry="40.031" fill="white" stroke="#1C1C1C" stroke-width="14" stroke-linecap="round"/>
<ellipse cx="741.636" cy="447.341" rx="40.3646" ry="40.031" fill="#1C1C1C" stroke="#1C1C1C" stroke-width="14" stroke-linecap="round"/>
<path d="M213.667 652.3C213.667 674.408 195.595 692.331 173.302 692.331C151.009 692.331 132.938 674.408 132.938 652.3C132.938 630.191 151.009 612.269 173.302 612.269C195.595 612.269 213.667 630.191 213.667 652.3Z" fill="#1C1C1C" stroke="#1C1C1C" stroke-width="14" stroke-linecap="round"/>
<ellipse cx="47.3646" cy="431.328" rx="40.3646" ry="40.031" fill="#993331" stroke="#1C1C1C" stroke-width="14" stroke-linecap="round"/>
<ellipse cx="160.386" cy="155.915" rx="40.3646" ry="40.031" fill="white" stroke="#1C1C1C" stroke-width="14" stroke-linecap="round"/>
<ellipse cx="86.1151" cy="239.18" rx="40.3646" ry="40.031" fill="#1C1C1C" stroke="#1C1C1C" stroke-width="14" stroke-linecap="round"/>
<ellipse cx="396.115" cy="47.031" rx="40.3646" ry="40.031" fill="#993331" stroke="#1C1C1C" stroke-width="14" stroke-linecap="round"/>
<ellipse cx="560.802" cy="117.485" rx="40.3646" ry="40.031" fill="#1C1C1C" stroke="#1C1C1C" stroke-width="14" stroke-linecap="round"/>
<ellipse cx="699.657" cy="271.204" rx="40.3646" ry="40.031" fill="#993331" stroke="#1C1C1C" stroke-width="14" stroke-linecap="round"/>
<ellipse cx="228.198" cy="741.969" rx="40.3646" ry="40.031" fill="#993331" stroke="#1C1C1C" stroke-width="14" stroke-linecap="round"/>
<path d="M207.209 588.25C185.143 588.25 136.813 570.316 120.021 498.58" stroke="#1C1C1C" stroke-width="14" stroke-linecap="round"/>
<path d="M195 682L207 702" stroke="#1C1C1C" stroke-width="14" stroke-linecap="round"/>
<path d="M585.021 144.707C607.087 151.645 646.698 178.973 628.615 232.775" stroke="#1C1C1C" stroke-width="14" stroke-linecap="round"/>
<path d="M436 63.0283C446.615 62.5526 468.677 67.8809 472 93" stroke="#1C1C1C" stroke-width="14" stroke-linecap="round"/>
<path d="M223.354 114.284C240.577 88.6638 286 50.234 329.917 101.474" stroke="#1C1C1C" stroke-width="14" stroke-linecap="round"/>
<path d="M49.6517 391C39.2481 375.119 33.3527 339.484 93 324" stroke="#1C1C1C" stroke-width="14" stroke-linecap="round"/>
<path d="M107.096 210C106.434 200.842 108.886 182.221 124 181" stroke="#1C1C1C" stroke-width="14" stroke-linecap="round"/>
</svg>
