<svg width="242" height="242" viewBox="0 0 242 242" fill="none" xmlns="http://www.w3.org/2000/svg">
<path d="M118.984 74.5C145.467 74.5002 166.9 95.7861 166.9 122C166.9 148.214 145.467 169.5 118.984 169.5C92.5004 169.5 71.0667 148.214 71.0667 122C71.0667 95.786 92.5004 74.5 118.984 74.5Z" stroke="#993331" stroke-width="5"/>
<path d="M118.983 94.5C134.329 94.5 146.733 106.832 146.733 122C146.733 137.168 134.329 149.5 118.983 149.5C103.638 149.5 91.2334 137.168 91.2334 122C91.2334 106.832 103.638 94.5 118.983 94.5Z" fill="#993331" stroke="#993331" stroke-width="5"/>
<path d="M149.738 160C149.89 186.446 142.44 232.308 111.423 204.188" stroke="#993331" stroke-width="4" stroke-linecap="round"/>
<path d="M214.775 94C214.607 100.167 211.75 112 201.667 110" stroke="#993331" stroke-width="4" stroke-linecap="round"/>
<path d="M141.167 205.078C147.802 208.271 164.754 210.825 179.483 195.5" stroke="#993331" stroke-width="4" stroke-linecap="round"/>
<path d="M179.483 197C182.004 185.833 191.583 163.2 209.733 162" stroke="#993331" stroke-width="4" stroke-linecap="round"/>
<path d="M168.392 122C181.332 122.667 208.221 133.6 212.254 172" stroke="#993331" stroke-width="4" stroke-linecap="round"/>
<path d="M215.279 172C221.151 172 225.883 176.717 225.883 182.5C225.883 188.283 221.151 193 215.279 193C209.407 193 204.675 188.283 204.675 182.5C204.675 176.717 209.407 172 215.279 172Z" fill="#993331" stroke="#993331" stroke-width="4"/>
<path d="M163.15 145C172.958 157.593 188.96 188.822 174.506 213" stroke="#993331" stroke-width="4" stroke-linecap="round"/>
<path d="M172.929 213C178.801 213 183.533 217.717 183.533 223.5C183.533 229.283 178.801 234 172.929 234C167.057 234 162.325 229.283 162.325 223.5C162.325 217.717 167.057 213 172.929 213Z" stroke="#993331" stroke-width="4"/>
<path d="M160.829 96.5C179.651 93.6666 214.472 99.1 203.179 143.5" stroke="#993331" stroke-width="4" stroke-linecap="round"/>
<path d="M208.221 152.5C216.792 147.333 228.186 134.1 205.196 122.5" stroke="#993331" stroke-width="4" stroke-linecap="round"/>
<path d="M229.396 127C235.268 127 240 131.717 240 137.5C240 143.283 235.268 148 229.396 148C223.524 148 218.792 143.283 218.792 137.5C218.792 131.717 223.524 127 229.396 127Z" fill="#181818" stroke="#993331" stroke-width="4"/>
<path d="M95.7917 164.5C82.3361 165.613 56.5427 173.371 61.0141 195.5" stroke="#993331" stroke-width="4" stroke-linecap="round"/>
<path d="M51.9294 191C57.8015 191 62.533 195.717 62.533 201.5C62.533 207.283 57.8015 212 51.9294 212C46.0572 212 41.325 207.283 41.325 201.5C41.325 195.717 46.0572 191 51.9294 191Z" fill="#181818" stroke="#993331" stroke-width="4"/>
<path d="M12.6045 122C18.4765 122 23.208 126.717 23.208 132.5C23.208 138.283 18.4765 143 12.6045 143C6.73229 143 2 138.283 2 132.5C2 126.717 6.73229 122 12.6045 122Z" fill="#993331" stroke="#993331" stroke-width="4"/>
<path d="M79.1543 149.81C70.0959 158.086 45.5158 167.81 19.6626 140.5" stroke="#993331" stroke-width="4" stroke-linecap="round"/>
<path d="M78.146 96.5C70.171 91.2967 56.8793 75.6319 67.5126 54.5996C80.8043 28.3091 49.7904 26.666 48.9043 34.8817" stroke="#993331" stroke-width="4" stroke-linecap="round"/>
<path d="M47.8962 36C53.7683 36.0002 58.4998 40.7167 58.4998 46.5C58.4998 52.2833 53.7683 56.9998 47.8962 57C42.024 57 37.2917 52.2834 37.2917 46.5C37.2917 40.7166 42.024 36 47.8962 36Z" stroke="#993331" stroke-width="4"/>
<path d="M69.5752 125C53.2122 123.88 21.502 113.912 25.5645 83" stroke="#993331" stroke-width="4" stroke-linecap="round"/>
<path d="M24.7046 62C30.5766 62.0002 35.3081 66.7167 35.3081 72.5C35.3081 78.2833 30.5766 82.9998 24.7046 83C18.8324 83 14.1001 78.2834 14.1001 72.5C14.1001 66.7166 18.8324 62 24.7046 62Z" fill="#181818" stroke="#993331" stroke-width="4"/>
<path d="M97.9099 79C93.7401 65.5823 90.5085 34.7975 110.941 19" stroke="#993331" stroke-width="4" stroke-linecap="round"/>
<path d="M121.505 2C127.377 2.00017 132.108 6.71673 132.108 12.5C132.108 18.2833 127.377 22.9998 121.505 23C115.632 23 110.9 18.2834 110.9 12.5C110.9 6.71663 115.632 2 121.505 2Z" fill="#993331" stroke="#993331" stroke-width="4"/>
<path d="M122.008 74C127.275 51.7417 143.926 10.7603 168.392 24.9009" stroke="#993331" stroke-width="4" stroke-linecap="round"/>
<path d="M172.929 24C178.801 24.0002 183.533 28.7167 183.533 34.5C183.533 40.2833 178.801 44.9998 172.929 45C167.057 45 162.325 40.2834 162.325 34.5C162.325 28.7166 167.057 24 172.929 24Z" fill="#181818" stroke="#993331" stroke-width="4"/>
<path d="M148.729 84.5001C156.796 75.6667 179.786 61.6001 207.213 76.0001" stroke="#993331" stroke-width="4" stroke-linecap="round"/>
<path d="M216.288 72C222.16 72.0002 226.891 76.7167 226.891 82.5C226.891 88.2833 222.16 92.9998 216.288 93C210.416 93 205.683 88.2834 205.683 82.5C205.683 76.7166 210.416 72 216.288 72Z" fill="#993331" stroke="#993331" stroke-width="4"/>
<path d="M122.008 170.5C119.824 187.806 108.497 223.233 80.6667 226.5" stroke="#993331" stroke-width="4" stroke-linecap="round"/>
<path d="M69.0713 219C74.9433 219 79.6748 223.717 79.6748 229.5C79.6748 235.283 74.9433 240 69.0713 240C63.1991 240 58.4668 235.283 58.4668 229.5C58.4668 223.717 63.1991 219 69.0713 219Z" fill="#993331" stroke="#993331" stroke-width="4"/>
<path d="M62.5167 181.5C55.6265 181.5 40.5351 175.9 35.2917 153.5" stroke="#993331" stroke-width="4" stroke-linecap="round"/>
<path d="M56.9709 210.5L63.0209 220.5" stroke="#993331" stroke-width="4" stroke-linecap="round"/>
<path d="M180.492 43C187.382 45.1667 199.751 53.7 194.104 70.5" stroke="#993331" stroke-width="4" stroke-linecap="round"/>
<path d="M132.092 17.5C135.957 17.3334 143.99 19.2 145.2 28" stroke="#993331" stroke-width="4" stroke-linecap="round"/>
<path d="M67.5583 33.5C72.9361 25.5 87.12 13.5 100.833 29.5" stroke="#993331" stroke-width="4" stroke-linecap="round"/>
<path d="M14.1167 121.5C11.0917 116.167 9.37752 104.2 26.7209 99" stroke="#993331" stroke-width="4" stroke-linecap="round"/>
<path d="M31.2584 63.5C30.9223 60.5 32.1659 54.4 39.8292 54" stroke="#993331" stroke-width="4" stroke-linecap="round"/>
</svg>
