<svg width="256" height="256" viewBox="0 0 256 256" fill="none" xmlns="http://www.w3.org/2000/svg">
<rect width="256" height="256" rx="50" fill="white"/>
<ellipse cx="126.417" cy="128.785" rx="39.5833" ry="39.2562" fill="white" stroke="#1C1C1C" stroke-width="4"/>
<ellipse cx="126.417" cy="128.785" rx="23.75" ry="23.5537" fill="#993331" stroke="#1C1C1C" stroke-width="4"/>
<path d="M128.792 166.864C127.076 180.451 118.183 208.266 96.3333 210.831" stroke="#1C1C1C" stroke-width="4"/>
<path d="M150.563 158.62C150.682 179.383 144.833 215.391 120.481 193.313" stroke="#1C1C1C" stroke-width="4"/>
<path d="M161.093 146.843C168.793 156.73 181.357 181.249 170.009 200.231" stroke="#1C1C1C" stroke-width="4"/>
<path d="M165.208 128.785C175.368 129.308 196.479 137.892 199.646 168.041" stroke="#1C1C1C" stroke-width="4"/>
<path d="M159.271 108.764C174.049 106.54 201.388 110.806 192.521 145.665" stroke="#1C1C1C" stroke-width="4"/>
<path d="M149.771 99.343C156.104 92.4077 174.154 81.3637 195.687 92.6695" stroke="#1C1C1C" stroke-width="4"/>
<path d="M201.625 106.802C201.493 111.643 199.25 120.934 191.333 119.364" stroke="#1C1C1C" stroke-width="4"/>
<path d="M128.792 91.0992C132.927 73.6237 146 41.4482 165.208 52.5503" stroke="#1C1C1C" stroke-width="4"/>
<path d="M109.871 95.0248C106.598 84.4902 104.06 60.3203 120.102 47.9174" stroke="#1C1C1C" stroke-width="4"/>
<path d="M94.3541 108.764C88.0927 104.679 77.6571 92.3805 86.0056 75.8675C96.4412 55.2262 72.0915 53.9361 71.3958 60.3865" stroke="#1C1C1C" stroke-width="4"/>
<path d="M87.6248 131.14C74.7779 130.261 49.8814 122.435 53.071 98.1653" stroke="#1C1C1C" stroke-width="4"/>
<path d="M95.1456 150.62C88.0336 157.117 68.7352 164.752 48.4373 143.31" stroke="#1C1C1C" stroke-width="4"/>
<path d="M107 163C97.087 163.826 78.0846 169.582 81.3788 186" stroke="#1C1C1C" stroke-width="4"/>
<path d="M143.833 194.012C149.042 196.518 162.352 198.524 173.917 186.492" stroke="#1C1C1C" stroke-width="4"/>
<path d="M173.917 187.669C175.896 178.902 183.417 161.132 197.667 160.19" stroke="#1C1C1C" stroke-width="4"/>
<path d="M196.479 152.731C203.208 148.675 212.154 138.285 194.104 129.178" stroke="#1C1C1C" stroke-width="4"/>
<ellipse cx="202.021" cy="176.285" rx="9.89583" ry="9.81405" fill="#993331" stroke="#1C1C1C" stroke-width="4"/>
<ellipse cx="168.771" cy="208.475" rx="9.89583" ry="9.81405" stroke="#1C1C1C" stroke-width="4"/>
<ellipse cx="213.104" cy="140.955" rx="9.89583" ry="9.81405" fill="#1C1C1C" stroke="#1C1C1C" stroke-width="4"/>
<ellipse cx="73.7708" cy="191.202" rx="9.89583" ry="9.81405" fill="#1C1C1C" stroke="#1C1C1C" stroke-width="4"/>
<ellipse cx="42.8958" cy="137.029" rx="9.89583" ry="9.81405" fill="#993331" stroke="#1C1C1C" stroke-width="4"/>
<ellipse cx="70.6041" cy="69.5083" rx="9.89583" ry="9.81405" stroke="#1C1C1C" stroke-width="4"/>
<ellipse cx="52.3956" cy="89.9215" rx="9.89583" ry="9.81405" fill="#1C1C1C" stroke="#1C1C1C" stroke-width="4"/>
<ellipse cx="128.396" cy="42.8141" rx="9.89583" ry="9.81405" fill="#993331" stroke="#1C1C1C" stroke-width="4"/>
<ellipse cx="168.771" cy="60.0868" rx="9.89583" ry="9.81405" fill="#1C1C1C" stroke="#1C1C1C" stroke-width="4"/>
<ellipse cx="202.812" cy="97.7727" rx="9.89583" ry="9.81405" fill="#993331" stroke="#1C1C1C" stroke-width="4"/>
<ellipse cx="87.2291" cy="213.186" rx="9.89583" ry="9.81405" fill="#993331" stroke="#1C1C1C" stroke-width="4"/>
<path d="M82.0833 175.5C76.6735 175.5 64.8249 171.103 60.7083 153.517" stroke="#1C1C1C" stroke-width="4"/>
<path d="M77.7292 198.269L82.4792 206.12" stroke="#1C1C1C" stroke-width="4"/>
<path d="M174.708 66.7603C180.118 68.4614 189.829 75.1611 185.396 88.3512" stroke="#1C1C1C" stroke-width="4"/>
<path d="M136.708 46.7397C139.743 46.6089 146.05 48.0744 147 54.9835" stroke="#1C1C1C" stroke-width="4"/>
<path d="M86.0417 59.3016C90.264 53.0206 101.4 43.5991 112.167 56.1611" stroke="#1C1C1C" stroke-width="4"/>
<path d="M44.0834 128.393C41.7084 124.205 40.3626 114.81 53.9793 110.727" stroke="#1C1C1C" stroke-width="4"/>
<path d="M57.5416 82.8554C57.2777 80.5 58.2541 75.7108 64.2707 75.3967" stroke="#1C1C1C" stroke-width="4"/>
</svg>
