<svg width="1254" height="1254" viewBox="0 0 1254 1254" fill="none" xmlns="http://www.w3.org/2000/svg">
<path d="M855.972 843.979C866.178 833.613 876.237 823.095 886.633 812.923C896.583 803.187 907.005 793.934 916.989 784.231C923.476 777.926 929.38 771.021 935.856 764.702C942.217 758.493 949.024 752.744 955.532 746.682C959.613 742.882 963.46 738.833 967.49 734.977C973.535 729.193 980.05 723.833 985.551 717.577C988.026 714.762 989.211 710.324 989.815 706.441C991.82 693.539 993.159 680.535 995.005 667.606C997.537 649.876 1000.35 632.186 1002.93 614.462C1003.81 608.419 1004.33 602.326 1005.02 596.255C1005.58 596.155 1006.14 596.055 1006.69 595.956C1008.99 599.322 1011.4 602.62 1013.57 606.066C1023.73 622.172 1033.81 638.322 1043.94 654.449C1053.63 669.893 1063.33 685.334 1073.05 700.764C1077.02 707.072 1081.11 713.305 1084.99 719.671C1085.98 721.302 1086.36 723.308 1086.74 725.692C1085.76 727.561 1084.98 728.844 1084.37 730.205C1066.22 770.934 1048.09 811.677 1029.9 852.388C1029.13 854.114 1028.07 856.252 1026.55 857.021C1009.2 865.794 991.733 874.339 973.358 883.409C978.346 860.766 983.125 839.072 988.024 816.83C986.838 817.335 986.23 817.512 985.705 817.828C969.025 827.885 952.333 837.922 935.719 848.088C934.452 848.863 933.403 850.424 932.836 851.851C920.923 881.875 909.089 911.932 897.262 941.991C896.685 943.457 896.311 945.004 895.621 947.227C898.791 945.646 901.13 944.413 903.524 943.297C923.397 934.031 946.98 938.573 960.608 954.505C971.668 967.434 975.065 982.1 969.017 998.269C963.694 1012.5 953.096 1020.61 938.067 1022.39C925.224 1023.91 910.989 1015.66 909.56 1001.23C908.94 994.976 910.914 989.726 916.623 986.371C920.533 984.073 924.609 983.714 928.428 986.254C933.183 989.416 934.791 994.013 933.07 999.651C945.578 997.754 950.662 983.957 943.039 973.505C936.631 964.719 924.714 961.129 912.961 964.445C892.177 970.309 880.246 993.383 886.528 1015.11C889.249 1024.53 894.639 1032.06 902.312 1038.66C887.932 1045.55 874.145 1052.17 860.343 1058.76C845.187 1066 830.016 1073.2 814.99 1080.05C828.622 1050.41 842.285 1021.21 855.552 991.833C864.778 971.402 873.472 950.73 882.375 930.153C884.04 926.303 879.802 912.297 876.343 910.083C875.976 909.848 875.364 909.996 875.087 909.687C875.459 907.538 876.235 905.448 875.667 903.83C869.425 886.053 862.923 868.369 856.649 850.603C855.931 848.569 856.174 846.195 855.972 843.979Z" fill="#993331"/>
<path d="M814.545 1080.35C829.709 1073.13 844.88 1065.93 860.035 1058.69C873.838 1052.1 887.624 1045.48 902.005 1038.59C894.331 1031.99 888.942 1024.46 886.221 1015.04C879.938 993.313 891.87 970.239 912.654 964.375C924.407 961.059 936.324 964.649 942.732 973.435C950.355 983.887 945.27 997.684 932.763 999.581C934.484 993.943 932.876 989.345 928.121 986.183C924.302 983.644 920.226 984.003 916.316 986.301C910.607 989.656 908.633 994.906 909.253 1001.16C910.682 1015.59 924.917 1023.84 937.76 1022.32C952.789 1020.54 963.386 1012.43 968.71 998.199C974.758 982.029 971.361 967.364 960.301 954.435C946.673 938.503 923.09 933.961 903.216 943.227C900.823 944.343 898.483 945.576 895.314 947.157C896.004 944.934 896.378 943.387 896.955 941.92C908.782 911.862 920.616 881.805 932.529 851.781C933.095 850.353 934.145 848.793 935.411 848.018C952.025 837.852 968.718 827.815 985.398 817.758C985.922 817.442 987.813 816.504 989 815.999C984.1 838.242 978.488 860.357 973.5 882.999C991.875 873.93 1008.89 865.724 1026.24 856.951C1027.76 856.182 1028.82 854.044 1029.59 852.318C1047.79 811.607 1065.91 770.864 1084.06 730.135C1084.67 728.774 1085.7 726.992 1086.71 725.5C1087.32 728.408 1086.71 731.5 1086.71 735.5C1086.28 738.392 1086.68 740.854 1086.71 742.99C1087.01 765.994 1087.33 788.997 1087.77 811.998C1087.8 813.319 1087.77 816.999 1087.77 817.758C1087.81 819.808 1087.73 821.999 1087.77 824.499C1088 836.999 1088 846.869 1088 858.499C1088 864.499 1087.99 867.999 1088 868.999C1088.1 879.984 1087.82 883.516 1088 894.499C1088.21 907.771 1088.01 920.729 1088 933.999C1088 936.526 1088 936.499 1087 941.999C1076.33 955.015 1067.23 967.027 1056.33 979.853C1048.2 989.415 1039.92 998.842 1031.79 1008.41C1015.77 1027.27 999.813 1046.2 983.807 1065.09C977.396 1072.65 970.926 1080.17 963.703 1087.83C936.043 1087.62 909.165 1087.16 882.284 1086.96C859.851 1086.8 837.416 1086.91 814.982 1086.97C813.565 1086.97 812.149 1087.5 810.733 1087.79C808.325 1087.86 805.917 1087.94 803 1087.67C802.796 1086.81 802.979 1086.07 803.425 1085.84C807.104 1083.96 810.832 1082.17 814.545 1080.35Z" fill="#993331"/>
<path d="M451.852 994.915C466.389 982.891 480.926 970.866 495.922 958.977C497.249 959.013 498.304 959.195 498.954 958.769C502.567 956.401 506.103 953.916 509.626 951.416C519.765 944.219 528.194 929.412 538.5 922.5C539.076 924.349 542.145 933.525 542.5 935.5C547.739 964.291 551.988 992.623 557.363 1020.97C558.58 1027.39 560.3 1033.71 561.789 1040.52C561.85 1042.61 561.697 1044.31 562.004 1045.92C566.209 1067.95 570.469 1089.98 574.734 1112C576.261 1119.88 576.285 1119.87 584.142 1121.28C584.438 1121.34 584.729 1121.81 585 1122C582.504 1122.11 579.967 1122.05 577.42 1122.16C578.284 1126.11 579.138 1129.91 579.939 1133.71C580.927 1138.4 578.365 1141.95 573.471 1141.97C550.856 1142.08 528.24 1142.05 505.625 1141.99C501.644 1141.97 499.669 1139.29 498.252 1135.89C496.808 1132.43 495.032 1129.1 493.585 1125.32C493.728 1123.19 494.119 1121.31 493.58 1119.75C484.254 1092.73 474.808 1065.75 465.401 1038.75C460.549 1024.83 455.723 1010.9 451 996.712C451.361 995.939 451.606 995.427 451.852 994.915Z" fill="#993331"/>
<path d="M711.167 956.496C726.684 969.121 742.202 981.746 757.96 994.933C758.46 995.981 758.719 996.468 758.713 997.192C757.23 1000.69 755.98 1003.94 754.799 1007.21C749.112 1022.97 743.419 1038.73 737.777 1054.51C730.458 1074.97 723.147 1095.44 715.995 1115.96C715.614 1117.06 716.734 1118.67 717.155 1120.05C715.778 1122.2 714.111 1124.23 713.098 1126.55C711.892 1129.3 711.246 1132.3 710.361 1135.2C708.783 1140.35 705.115 1142.09 699.957 1142.06C679.674 1141.96 659.39 1142.04 639.106 1142.01C630.946 1142 628.39 1138.7 630.335 1130.93C631.031 1128.15 631.559 1125.33 632.281 1121.99C630.132 1121.99 627.247 1121.83 625.5 1121.5C627.632 1120.95 631.172 1120.89 633.486 1120.67C633.723 1119.79 633.929 1119.18 634.055 1118.55C637.038 1103.49 640.103 1088.45 642.958 1073.37C645.074 1062.19 646.913 1050.96 649.024 1039.41C653.098 1018.2 657.091 997.363 660.927 976.493C663.712 961.342 664 930.713 669.065 930.89C669.171 930.801 669.373 930.61 669.761 930.713C671 929.5 675.586 933.319 678 935C688.268 942.148 698.228 949.722 708.511 956.849C709.054 957.225 710.266 956.636 711.167 956.496Z" fill="#993331"/>
<path d="M452.599 995.008C452.724 995.427 452.481 995.939 451.775 996.756C447.536 1001.38 443.588 1005.57 440.014 1010.05C425.455 1028.31 410.971 1046.63 396.547 1065C391.876 1070.95 387.475 1077.11 382.951 1083.18C380.671 1076.98 378.108 1070.87 376.167 1064.57C371.396 1049.09 366.937 1033.51 362.307 1017.99C352.643 985.581 342.945 953.184 333.296 920.772C333.022 919.851 333.155 918.808 332.916 917.12C332.583 915.818 332.431 915.217 332.279 914.617C332.427 914.366 332.478 914.097 332.369 913.611C334.077 914.165 336.047 914.634 337.591 915.713C374.133 941.251 410.624 966.863 447.152 992.421C448.708 993.51 450.531 994.216 452.599 995.008Z" fill="#993331"/>
<path d="M717 1120C716.2 1118.63 715.619 1116.09 716 1114.99C723.152 1094.47 730.463 1074 737.782 1053.54C743.425 1037.76 749.118 1022 754.804 1006.24C755.985 1002.97 757.235 999.72 759.029 996.378C763.277 1002.94 767.024 1009.54 770.608 1016.22C781.278 1036.13 791.874 1056.08 802.534 1075.99C803.432 1077.67 804.595 1079.21 806 1081.37C807.879 1077.36 809.594 1074.17 810.901 1070.82C825.378 1033.74 839.766 996.618 854.234 959.53C860.729 942.88 867.348 926.279 873.911 909.655C873.947 909.327 874.121 909.11 874.653 909C875.37 909.026 875.981 908.878 876.348 909.113C879.808 911.327 885.165 926.15 883.5 930C874.598 950.577 865.726 971.069 856.5 991.5C843.233 1020.88 829.132 1051.73 815.5 1081.37C811.649 1083.56 807.679 1084.12 804 1086C803.554 1086.23 803.5 1086.5 802.862 1086.73C795.329 1089.73 787.68 1092.26 780.157 1095.12C759.382 1103.03 738.121 1112 717 1120Z" fill="#993331"/>
<path d="M383 1083C387.372 1076.6 391.876 1070.95 396.547 1065C410.971 1046.63 425.455 1028.31 440.014 1010.05C443.588 1005.57 447.375 1001.37 451.5 997C456.645 1010.88 461.592 1024.83 466.404 1038.75C475.732 1065.75 485.099 1092.73 494.347 1119.75C494.881 1121.31 494.493 1123.19 494.193 1124.98C475.709 1118.31 457.561 1111.58 439.424 1104.83C420.696 1097.85 401.875 1090.33 383 1083Z" fill="#993331"/>
<path d="M649 1039.72C647.037 1050.93 645.074 1062.2 642.958 1073.37C640.103 1088.45 637.038 1103.49 634.055 1118.55C633.929 1119.18 633.723 1119.8 633.486 1120.67C631.172 1120.89 628.905 1121.11 626.343 1121.58C612.662 1121.9 598.852 1122.03 585 1122C584.266 1121.73 584.5 1121.5 584.149 1121.28C576 1120 576.013 1119.88 574.5 1112C570.27 1089.98 565.303 1068.58 562 1046C561.695 1044.39 561.107 1042.47 561.5 1040.29C565.332 1039.83 569.479 1039.24 573 1039.5C573.662 1039.56 574.351 1040.2 574.773 1039.98C574.676 1039.9 574.757 1039.67 575.148 1039.86C580.388 1039.9 585.238 1039.75 590.446 1039.59C591.515 1039.66 592.43 1039.21 593.5 1039.5C602 1039.54 609.938 1039.87 618.394 1039.68C619.125 1039.62 619.541 1039.57 620.336 1039.72C625.897 1039.86 631.079 1039.78 636.704 1039.76C641.056 1039.79 645.09 1039.74 649 1039.72Z" fill="#993331"/>
<path d="M873.5 910.5C867.224 926.978 860.571 943.58 854.042 960.229C839.498 997.317 826.053 1034.42 811.5 1071.5C810.186 1074.85 808.5 1079.5 805.555 1082.07C804.143 1079.91 802.974 1078.37 802.07 1076.69C791.354 1056.78 780.703 1036.83 769.977 1016.92C766.374 1010.24 762.608 1003.64 758.604 996.84C758.032 996.197 757.771 995.71 757.414 994.963C758.761 994.097 760.394 993.748 761.617 992.848C798.829 965.48 836.001 938.059 873.5 910.5Z" fill="#993331"/>
<path d="M538 922.5C540.145 924.282 541.216 932.571 542 935C531.913 942.623 520.312 944.22 510.258 951.416C506.764 953.916 503.258 956.401 499.675 958.769C499.031 959.195 497.011 959.207 496 959C509.481 947.037 524.232 934.467 538 922.5Z" fill="#993331"/>
<path d="M711.011 956.225C710.266 956.636 709.054 957.226 708.511 956.849C698.228 949.722 688.052 942.442 677.784 935.294C675.37 933.613 672.701 932.298 669.778 930.299C669.711 927.34 670.195 924.443 670.5 922C674.694 925.174 678.85 928.635 682.875 932.011C692.28 939.897 701.537 947.961 711.011 956.225Z" fill="#993331"/>
<path d="M862.521 510.806C866.447 518.603 870.218 526.484 874.354 534.168C876.928 538.95 878.453 543.379 873.142 547.901C871.864 548.342 871.192 548.519 870.687 548.91C862.072 555.586 853.406 562.199 844.904 569.018C839.393 573.438 834.035 578.062 828.82 582.826C827.442 584.084 826.798 586.173 825.906 587.926C825.088 589.536 824.742 591.53 823.579 592.796C817.112 599.838 814.069 608.113 813.973 617.587C813.947 620.171 813.724 622.753 813.721 625.337C813.718 627.543 813.899 629.749 813.687 632.123C813.094 632.467 812.828 632.677 812.529 632.81C765.496 653.697 718.453 674.56 671.456 695.526C669.638 696.336 668.258 698.13 666.267 699.32C664.588 699.437 663.226 699.491 662.059 699.995C646.826 706.564 631.582 713.108 616.428 719.856C609.841 722.79 603.543 723.844 596.672 720.482C587.885 716.182 578.873 712.329 569.872 708.485C561.518 704.917 553.051 701.614 544.394 697.962C541.989 696.539 539.898 695.187 537.651 694.184C503.322 678.866 468.959 663.627 434.638 648.291C421.995 642.642 409.443 636.79 396.85 631.031C396.572 630.275 396.293 629.52 396.14 628.112C397.483 624.466 400.228 621.116 399.629 618.546C397.91 611.177 395.177 603.978 392.186 596.994C389.829 591.491 384.774 586.651 383.983 581.081C382.632 571.565 374.75 569.113 369.023 564.888C362.198 559.854 353.914 556.787 346.215 552.962C344.565 552.142 342.714 551.726 340.956 551.124C340.7 550.943 340.419 550.789 340.192 550.578C332.844 543.773 335.894 537.293 340.168 530.189C345.595 521.17 350.164 511.634 355.749 502.092C357.323 500.783 358.499 499.831 359.139 498.601C369.191 479.29 379.211 459.961 389.117 440.575C390.146 438.562 390.405 436.156 391.367 433.877C392.117 433.307 392.622 432.843 392.911 432.27C406.988 404.33 421.095 376.405 435.039 348.399C436.555 345.354 438.116 343.938 441.748 344.076C450.401 344.403 459.076 344.263 467.739 344.101C468.734 344.082 469.705 342.725 471.057 342.017C473.542 341.624 475.959 341.723 477.728 340.701C495.494 330.433 513.196 320.054 530.811 309.53C535.088 306.975 538.976 303.77 543.042 300.863C550.76 301.169 558.477 301.716 566.196 301.737C599.9 301.829 633.604 301.778 667.309 301.729C668.896 301.726 670.482 301.249 672.521 301.32C673.632 302.466 674.127 303.548 674.969 304.065C692.788 314.986 710.599 325.924 728.532 336.655C732.709 339.154 737.331 340.91 741.97 343.408C751.821 343.933 761.453 344.229 771.078 344.088C774.335 344.04 776.059 344.836 777.569 347.893C788.393 369.802 799.372 391.637 810.474 413.407C814.059 420.437 818.159 427.204 822.016 434.464C822.659 436.527 823.163 438.293 823.984 439.897C828.44 448.609 833 457.267 837.476 465.969C844.598 479.815 851.635 493.704 858.851 507.5C859.566 508.868 861.274 509.717 862.521 510.806ZM589.081 412.698C586.685 422.808 586.788 432.92 590.095 442.749C594.526 455.915 599.417 468.927 604.11 482.005C604.711 481.892 605.313 481.78 605.914 481.668C613.114 465.646 620.529 449.589 622.858 431.982C625.782 409.867 613.756 391.801 606.033 372.628C605.43 372.542 604.828 372.456 604.226 372.369C599.25 385.543 594.274 398.717 589.081 412.698ZM586.575 618.917C591.7 626.278 596.792 633.661 601.963 640.989C604.722 644.898 606.849 644.916 609.563 641.043C617.187 630.163 624.791 619.268 632.279 608.294C633.087 607.108 633.777 605.012 633.255 603.977C632.713 602.902 630.637 602.058 629.224 602.047C613.597 601.925 597.969 601.936 582.342 602.029C577.93 602.055 576.663 604.454 579.032 608.111C581.288 611.594 583.762 614.935 586.575 618.917ZM482.94 525.584C468.48 523.899 455.394 526.698 445.193 537.838C443.831 539.325 443.958 542.174 443.396 544.393C445.634 544.782 448.283 546.151 450.047 545.411C472.315 536.065 492.334 540.506 510.786 554.884C514.839 558.042 518.378 561.857 522.391 565.073C523.417 565.895 525.795 566.248 526.737 565.611C527.675 564.977 527.908 562.816 527.853 561.347C527.806 560.107 526.975 558.863 526.369 557.684C517.358 540.148 503.442 529.121 482.94 525.584ZM741.354 540.64C748.268 542.346 755.139 544.283 762.124 545.618C764.178 546.01 766.558 544.698 768.788 544.167C768.279 542.067 768.403 539.393 767.128 537.988C764.594 535.197 761.516 532.729 758.268 530.785C741.318 520.643 716.312 524.259 699.789 539.084C692.991 545.183 687.669 552.388 684.518 560.995C684.018 562.362 684.969 564.261 685.249 565.914C686.866 565.511 688.782 565.522 690.038 564.617C692.452 562.877 694.44 560.56 696.694 558.584C709.212 547.611 723.207 540.191 741.354 540.64ZM522.608 447.901C530.012 471.962 548.744 487.422 573.607 491.091C570.004 466.86 542.855 441.592 521.266 442.383C521.235 442.697 521.111 443.036 521.188 443.32C521.538 444.605 521.945 445.875 522.608 447.901ZM650.503 488.044C672.065 479.892 684.712 464.145 690.422 441.881C665.176 444.22 639.301 468.838 637.784 491.856C641.877 490.627 645.816 489.445 650.503 488.044ZM806.939 575.514C807.671 573.985 808.403 572.456 809.439 570.293C790.824 576.721 774.575 585.245 760.391 597.771C769.765 596.74 778.971 595.036 788.223 593.632C795.179 592.576 800.193 589.33 802.888 582.633C803.809 580.345 805.337 578.301 806.939 575.514ZM422.925 578.567C416.48 575.861 410.036 573.156 403.591 570.451C404.283 573.621 405.745 575.695 406.638 577.991C410.822 588.751 418.756 593.891 430.106 594.877C437.545 595.524 444.905 597.08 452.3 598.228C452.54 597.593 452.78 596.957 453.02 596.321C443.219 590.502 433.418 584.683 422.925 578.567ZM453.098 622.566C440.129 613.955 426.505 606.88 410.025 604.002C413.627 609.62 416.416 614.746 420.016 619.22C421.57 621.152 424.694 622.387 427.288 622.806C434.312 623.94 441.431 624.496 448.518 625.221C450.985 625.474 453.47 625.552 455.947 625.71C456.006 625.321 456.065 624.932 456.124 624.543C455.332 624.01 454.539 623.478 453.098 622.566ZM798.191 610.634C799.304 608.583 800.418 606.533 801.872 603.856C784.425 607.516 770.087 615.412 756.497 625.23C763.261 625.217 769.925 624.407 776.605 624.255C786.319 624.034 794.173 621.21 798.191 610.634ZM607.093 528.456C608.783 524.663 610.622 520.928 612.105 517.056C612.972 514.795 614.264 512.009 613.642 509.99C611.606 503.384 608.78 497.021 606.257 490.564C605.806 490.573 605.355 490.581 604.904 490.59C602.512 496.555 600.074 502.502 597.768 508.5C597.314 509.682 596.87 511.257 597.279 512.319C599.7 518.59 602.375 524.763 605.199 531.533C606.095 530.209 606.463 529.666 607.093 528.456Z" fill="#F9F9F9"/>
<path d="M340.5 551C342.136 551.29 344.565 552.142 346.215 552.962C353.914 556.787 362.198 559.855 369.023 564.888C374.75 569.113 382.632 571.565 383.983 581.082C384.774 586.651 389.829 591.492 392.186 596.994C395.177 603.978 397.91 611.177 399.629 618.546C400.228 621.116 397.874 625.186 396.5 628.5C388.705 617.953 380.763 606.304 373.013 595.517C362.489 580.87 351.234 565.897 340.5 551Z" fill="#F9F9F9"/>
<path d="M815.921 632.559C815.445 632.743 814.941 632.547 814.218 632.153C813.899 629.749 813.718 627.542 813.721 625.337C813.724 622.753 813.947 620.171 813.973 617.587C814.069 608.113 817.112 599.838 823.579 592.796C824.741 591.53 825.088 589.536 825.906 587.926C826.798 586.173 827.442 584.084 828.82 582.826C834.035 578.062 839.393 573.438 844.904 569.018C853.406 562.199 862.072 555.586 870.687 548.91C871.192 548.519 871.864 548.342 872.819 548.039C867.781 555.858 862.427 563.734 856.978 571.543C843.812 590.409 830.586 609.234 817.448 628.119C816.645 629.274 816.399 630.817 815.921 632.559Z" fill="#F9F9F9"/>
<path d="M589.19 412.295C594.274 398.717 599.25 385.543 604.226 372.37C604.828 372.456 605.43 372.542 606.033 372.628C613.756 391.802 625.782 409.868 622.858 431.982C620.529 449.589 613.114 465.646 605.914 481.668C605.313 481.78 604.711 481.893 604.11 482.005C599.417 468.927 594.526 455.916 590.095 442.749C586.788 432.92 586.685 422.808 589.19 412.295Z" fill="#F9F9F9"/>
<path d="M586.358 618.628C583.762 614.936 581.288 611.594 579.032 608.111C576.663 604.454 577.93 602.055 582.342 602.029C597.969 601.936 613.597 601.925 629.224 602.047C630.637 602.058 632.713 602.902 633.255 603.977C633.777 605.012 633.087 607.108 632.279 608.294C624.791 619.268 617.187 630.163 609.563 641.043C606.849 644.916 604.722 644.898 601.963 640.989C596.792 633.661 591.7 626.278 586.358 618.628Z" fill="#F9F9F9"/>
<path d="M483.381 525.635C503.442 529.121 517.358 540.148 526.369 557.684C526.975 558.863 527.806 560.107 527.853 561.347C527.908 562.816 527.675 564.977 526.737 565.611C525.795 566.248 523.417 565.895 522.391 565.073C518.378 561.856 514.839 558.042 510.786 554.884C492.334 540.506 472.315 536.065 450.047 545.411C448.283 546.151 445.634 544.782 443.396 544.393C443.958 542.174 443.831 539.324 445.193 537.838C455.394 526.698 468.48 523.899 483.381 525.635Z" fill="#F9F9F9"/>
<path d="M740.881 540.602C723.207 540.191 709.212 547.611 696.694 558.584C694.44 560.56 692.452 562.877 690.038 564.617C688.782 565.522 686.866 565.511 685.249 565.913C684.969 564.261 684.018 562.362 684.518 560.995C687.669 552.388 692.991 545.183 699.789 539.084C716.312 524.259 741.318 520.643 758.268 530.785C761.516 532.728 764.594 535.197 767.128 537.988C768.403 539.393 768.279 542.067 768.788 544.167C766.558 544.698 764.178 546.01 762.124 545.618C755.139 544.283 748.268 542.346 740.881 540.602Z" fill="#F9F9F9"/>
<path d="M522.47 447.526C521.945 445.875 521.538 444.605 521.188 443.32C521.111 443.036 521.235 442.697 521.271 442.384C542.855 441.592 570.004 466.86 573.607 491.091C548.744 487.422 530.012 471.962 522.47 447.526Z" fill="#F9F9F9"/>
<path d="M650.129 488.153C645.816 489.445 641.877 490.627 637.784 491.856C639.301 468.838 665.176 444.22 690.422 441.88C684.712 464.145 672.065 479.892 650.129 488.153Z" fill="#F9F9F9"/>
<path d="M806.763 575.83C805.337 578.301 803.809 580.345 802.888 582.633C800.193 589.33 795.179 592.576 788.223 593.632C778.971 595.036 769.765 596.741 760.391 597.771C774.575 585.245 790.824 576.722 809.439 570.293C808.403 572.456 807.671 573.985 806.763 575.83Z" fill="#F9F9F9"/>
<path d="M423.271 578.715C433.418 584.683 443.219 590.502 453.02 596.321C452.78 596.957 452.54 597.592 452.3 598.228C444.905 597.08 437.545 595.524 430.106 594.877C418.756 593.891 410.822 588.751 406.638 577.991C405.745 575.695 404.283 573.62 403.591 570.451C410.036 573.156 416.48 575.861 423.271 578.715Z" fill="#F9F9F9"/>
<path d="M453.422 622.756C454.539 623.478 455.332 624.01 456.124 624.543C456.065 624.932 456.006 625.321 455.947 625.71C453.47 625.552 450.985 625.474 448.518 625.221C441.431 624.496 434.312 623.94 427.288 622.806C424.694 622.387 421.57 621.152 420.016 619.22C416.416 614.746 413.627 609.62 410.025 604.002C426.505 606.881 440.129 613.955 453.422 622.756Z" fill="#F9F9F9"/>
<path d="M798.01 610.958C794.173 621.209 786.319 624.033 776.605 624.255C769.925 624.407 763.261 625.217 756.497 625.23C770.087 615.412 784.425 607.515 801.872 603.855C800.418 606.533 799.304 608.583 798.01 610.958Z" fill="#F9F9F9"/>
<path d="M606.962 528.79C606.463 529.666 606.095 530.209 605.199 531.533C602.374 524.763 599.7 518.59 597.279 512.319C596.869 511.257 597.314 509.683 597.768 508.5C600.074 502.502 602.512 496.555 604.904 490.59C605.355 490.581 605.806 490.573 606.257 490.564C608.78 497.021 611.606 503.384 613.642 509.99C614.264 512.009 612.972 514.795 612.105 517.056C610.622 520.928 608.783 524.663 606.962 528.79Z" fill="#F9F9F9"/>
<path d="M548.43 707.454C559.258 712.945 570.196 718.762 581.068 724.702C588.191 728.594 595.101 732.895 602.365 736.491C604.253 737.427 607.543 737.205 609.451 736.163C625.15 727.588 640.655 718.659 656.28 709.948C657.926 709.031 660.749 708.814 663 708.5C650.022 738.632 635.884 768.56 622.495 798.462C619.028 806.204 615.463 813.901 611.79 821.991C610.027 822.262 608.417 822.16 606.404 822.134C605.542 822.169 605.084 822.128 603.95 822.097C602.659 822.36 602.045 822.612 601.431 822.863C601.239 822.61 600.532 822.828 600 822.863C582.543 784.629 565.753 746.067 548.43 707.454Z" fill="#F9F9F9"/>
<path d="M666.267 699.32C665.746 701.74 663.955 706.329 662.5 709C661.735 709.762 662.36 707.813 662.122 708.179C662.122 708.179 662.497 708.749 662.111 708.77C659.865 709.327 658 710.5 656.28 709.948C640.655 718.659 623.699 728.925 608 737.5C606.092 738.542 604.253 737.426 602.365 736.491C595.101 732.894 587.932 729.298 581 725C570.128 719.06 559.41 713.869 548.5 708C547.288 705.28 544.751 700.58 543.5 697.5C551.878 700.56 561.518 704.917 569.872 708.485C578.873 712.329 587.885 716.182 596.672 720.482C603.543 723.843 609.841 722.79 616.428 719.856C631.582 713.108 646.826 706.564 662.059 699.995C663.226 699.491 664.588 699.437 666.267 699.32Z" fill="#F9F9F9"/>
<path d="M391.367 433.877C388.515 415.466 385.969 397.005 383.512 378.532C376.951 329.204 370.377 279.877 363.916 230.536C361.086 208.925 358.52 187.28 356.971 165.125C394.7 223.959 433.507 282.985 471.5 342C470.783 342.919 468.734 344.083 467.739 344.101C459.076 344.263 450.401 344.404 441.748 344.076C438.116 343.938 436.555 345.354 435.039 348.399C421.095 376.405 406.988 404.331 392.911 432.27C392.622 432.843 392.117 433.307 391.367 433.877Z" fill="#1C1C1C"/>
<path d="M391.5 434C390.884 436.224 390.146 438.562 389.117 440.575C379.211 459.961 369.191 479.29 359.139 498.601C358.499 499.831 357.323 500.783 356.029 501.864C355.442 492.783 355.219 483.7 355.001 474.618C354.978 473.619 354.986 472.619 354.969 471.62C354.573 448.191 354.197 424.763 353.771 401.335C353.508 386.91 353.186 372.486 352.856 358.063C352.598 346.79 352.297 335.518 351.998 324.245C351.632 310.487 351.259 296.729 350.868 282.972C350.255 261.436 349.573 239.903 349.016 218.366C348.561 200.78 348.27 183.191 347.859 165.604C347.622 155.5 347.274 145.398 347.019 135.294C346.979 133.728 347.165 132.156 347.32 129.171C352.53 133.465 356.813 136.777 360.853 140.363C376.597 154.336 392.188 168.481 407.978 182.401C425.69 198.014 443.574 213.433 461.351 228.973C472.882 239.054 484.32 249.24 495.863 259.306C508.162 270.031 520.545 280.659 532.869 291.354C536.221 294.264 540.072 297.721 543.5 301C539.552 304.227 535.088 306.975 530.811 309.53C513.196 320.054 495.494 330.433 477.728 340.7C475.959 341.723 474.251 342.289 471.5 342.5C433.137 283.457 394.7 223.958 356.971 165.125C358.52 187.28 361.086 208.925 363.916 230.535C370.377 279.877 376.951 329.203 383.512 378.532C385.969 397.005 388.994 415.534 391.5 434Z" fill="#1C1C1C"/>
<path d="M862.352 510.377C861.274 509.717 859.566 508.868 858.85 507.5C851.635 493.704 844.597 479.815 837.476 465.969C833 457.267 828.44 448.609 823.984 439.897C823.163 438.293 822.659 436.527 822.034 434.043C834.369 344.19 845.945 255.039 855.753 165.611C843.931 183.178 832.822 200.934 821.535 218.577C794.985 260.083 768.601 302.026 742 343.5C737.583 341.402 732.709 339.155 728.532 336.655C710.598 325.924 692.788 314.986 674.969 304.065C674.127 303.548 672.693 303.193 672 302C671.964 301.626 672.931 300.958 673.126 300.877C673.622 300.666 673.843 300.453 673.984 300.157C687.401 288.447 700.927 276.861 714.207 264.998C731.889 249.204 749.359 233.172 766.96 217.287C779.959 205.554 793.038 193.911 806.052 182.195C819.198 170.361 832.322 158.502 845.429 146.626C851.53 141.098 857.568 135.502 864.704 128.956C865.259 131.586 865.98 133.384 865.967 135.176C865.704 172.801 865.357 210.425 865.029 248.049C864.694 286.49 864.389 324.931 864.019 363.372C863.73 393.468 863.389 423.564 863.02 453.659C862.79 472.422 862.465 491.185 862.352 510.377Z" fill="#1C1C1C"/>
<path d="M741.97 343.408C768.349 301.535 794.985 260.083 821.536 218.577C832.822 200.934 843.931 183.178 855.753 165.611C845.945 255.039 834.369 344.19 822.041 433.671C818.159 427.204 814.059 420.437 810.474 413.408C799.372 391.637 788.393 369.802 777.569 347.893C776.059 344.836 774.335 344.04 771.078 344.088C761.453 344.23 751.821 343.933 741.97 343.408Z" fill="#1C1C1C"/>
<path d="M618 1039.68C616.904 1027.85 616.516 1016.02 615.734 1004.2C616.228 1004.16 616.722 1004.12 617.215 1004.08C618.142 1015.6 619.474 1027.72 620.382 1039.68C619.947 1040.16 618.73 1039.62 618 1039.68Z" fill="#F5D076"/>
<path d="M590 1039.5C590.935 1029.69 592.675 1019.98 593.968 1010.18C594.325 1010.21 594.682 1010.24 595.039 1010.27C594.346 1019.82 594.204 1029.51 593.5 1039.5C593.5 1040 590 1040 590 1039.5Z" fill="#F5D076"/>
<path d="M542 935C545.244 925.124 553.583 919.888 561.5 914.5C560.041 928.24 561.491 941.564 570.672 952.583C576.028 959.012 582.662 963.506 590.947 966.811C592.066 967.357 592.61 967.641 593.115 968.249C592.953 968.99 592.828 969.407 592.427 970.015C590.828 972.307 588.937 974.245 588.283 976.536C585.508 986.246 582.734 995.984 580.656 1005.86C578.301 1017.05 577.434 1028.22 575.5 1039.5C575.5 1039.5 575.03 1040.1 575 1040C574.382 1040.06 573.44 1040.03 573.027 1040.09C569.648 1040.03 565.333 1040.47 561.5 1040.5C559.571 1034.22 558.801 1027.39 557.594 1020.97C552.265 992.624 547.196 963.791 542 935Z" fill="#F5D076"/>
<path d="M649.714 915.572C652.035 916.517 654.667 917.562 656.681 919.317C660.77 922.879 664.525 926.825 668.688 930.796C666.29 946.153 663.712 961.342 660.927 976.494C657.091 997.364 653.074 1018.8 649 1040C644.942 1040.37 641.33 1040.38 637 1040C636.586 1038.31 636.525 1036.38 636.291 1035.14C633.732 1021.49 631.323 1007.8 628.414 994.224C626.552 985.537 624.749 976.665 618.13 969.556C618.008 968.807 617.824 968.056 618 967.5C617.755 967.753 618.478 967.121 618 967.5C637.833 961.578 653.908 939.871 649.714 915.572Z" fill="#F5D076"/>
<path d="M855.695 843.772C856.174 846.196 855.931 848.57 856.649 850.604C862.923 868.369 869.425 886.054 875.667 903.83C876.235 905.448 875.459 907.538 874.868 909.692C874.116 910.081 873.941 910.298 873.586 910.771C836.282 938.33 799.304 965.752 762.286 993.119C761.069 994.019 759.445 994.368 757.865 994.673C742.202 981.747 726.684 969.122 711.011 956.225C701.537 947.962 692.28 939.898 682.875 932.011C678.85 928.635 674.515 925.628 670.15 922.123C664.613 916.704 659.427 911.406 653.813 906.61C650.743 903.987 646.949 902.213 643.246 899.847C639.973 896.228 636.623 893.207 633.5 889.5C633.085 888.979 633.061 888.652 632.777 888.5C632.823 888.573 632.674 888.356 632.777 887.904C632.966 886.532 632.541 884.849 633 884C635.548 884.89 638.199 886.582 640.413 887.274C655.411 891.963 671.385 885.457 677.32 871.732C682.988 858.628 679.707 847.08 670.176 836.978C671.081 836.504 671.703 836.239 672.245 835.859C682.875 794.5 714.891 775.424 741 757.5C762.156 742.978 792.784 752.9 814.098 738.606C815.031 736.5 815.031 736.5 815.031 735.942C819.09 747.098 823.092 758.273 827.218 769.403C835.895 792.813 844.629 816.202 853.376 839.586C853.894 840.973 854.73 842.241 855.695 843.772Z" fill="#F5D076"/>
<path d="M396.528 631.146C409.444 636.79 421.995 642.642 434.638 648.291C468.959 663.627 503.322 678.866 537.651 694.184C539.898 695.187 541.989 696.539 544.433 698.322C545.925 701.635 547.137 704.355 548.43 707.454C565.753 746.067 582.995 784.301 599.894 822.695C597.07 824.459 594.588 826.063 591.669 827.951C572.017 813.991 551.966 799.996 532.177 785.639C485.135 751.509 438.226 717.197 391.212 683.029C389.821 682.018 387.851 681.804 386.152 681.218C385.289 665.925 385.357 650.771 392.971 636.783C393.99 634.911 395.125 633.101 396.528 631.146Z" fill="#F5D076"/>
<path d="M666.674 699.466C668.258 698.13 669.638 696.336 671.456 695.526C718.453 674.56 765.496 653.697 812.529 632.81C812.828 632.677 813.094 632.467 813.906 632.322C814.941 632.547 815.445 632.743 815.949 632.939C823.332 647.894 827.846 663.399 824.615 680.652C821.202 682.945 818.094 684.76 815.199 686.867C765.001 723.391 714.85 759.982 664.637 796.486C649.718 807.332 634.64 817.957 619.85 828.53C616.907 826.32 614.272 824.342 611.79 821.991C615.463 813.901 619.028 806.204 622.495 798.462C635.884 768.56 649.242 738.644 662.607 708.491C662.602 708.249 662.122 708.179 662.509 708.16C663.06 707.655 663.224 707.169 663.639 706.486C664.818 704.014 665.746 701.74 666.674 699.466Z" fill="#F5D076"/>
<path d="M612 822C614.635 823.978 616.907 826.32 619.85 828.529C634.64 817.957 649.718 807.332 664.637 796.486C714.85 759.982 765.001 723.391 815.199 686.867C818.094 684.76 821.202 682.945 824.563 681.107C823.485 689.981 822.056 698.741 820.359 707.411C819.975 706.427 819.859 705.532 819.681 704.159C761.964 746.064 704.686 787.649 646.798 829.679C651.361 830.278 655.092 830.768 659.093 831.482C662.86 833.516 666.358 835.324 669.856 837.133C679.707 847.079 682.988 858.627 677.32 871.731C671.385 885.457 655.411 891.962 640.413 887.274C638.199 886.582 636.058 885.653 633.299 884.517C628.061 880.558 619.252 874.02 614.776 870.037C616.571 864.761 619.184 860.127 621.111 855.344C623.849 857.574 629.892 862.146 632.5 864.5C637.922 867.414 642.49 870.877 648.018 872.605C654.448 874.615 661.29 870.182 663.412 863.932C665.526 857.705 662.563 851.18 655.85 847.658C650.508 847.374 645.384 846.813 640.424 847.478C635.544 848.132 626.723 852.509 621.923 853.395C620.835 846.657 620.923 842.273 619.85 836C619.85 836 621.075 831.894 620.5 832C620.5 838.456 622.436 844.545 622.5 851C622.506 851.571 621.689 852.453 621.923 853.395C621.847 854.53 621.847 855.29 621.608 856.31C619.234 861.046 617.1 865.523 614.776 870.037C614.586 870.075 614.198 870.08 613.763 870.056C600.443 872.765 592.207 869.742 590.023 856.669C589.968 856.342 589.872 856.022 589.802 855.344C588.7 853.988 587.742 852.672 586.449 852.055C584.067 850.917 581.488 850.19 578.998 848.894C580.233 846.689 581.252 843.573 582.73 843.337C586.228 842.779 586.216 840.402 587.006 838.135C588.042 835.16 589.244 832.242 590.375 829.3C591 828 593.068 825.845 593.5 826C595.831 826 598.639 821.678 598.5 823.5C603.269 819.862 599.5 823.5 603 822C603.758 821.39 605.5 822.122 606.404 822.134C608.417 822.16 610.39 821.898 612 822Z" fill="#F5D076"/>
<path d="M591.669 827.951L590.375 829.3C589.244 832.242 591.036 834.495 590 837.47C589.21 839.737 586.228 842.779 582.73 843.337C581.252 843.573 591.136 853.19 589.5 855.349C581.622 854.117 563.381 843.929 555.239 847.821C548.304 851.552 545.615 857.772 547.906 864.065C550.238 870.467 557.827 874.899 564.503 872.506C569.973 870.546 574.837 866.893 580.276 863.852C583.033 861.656 587.535 856.592 590 855C591.359 860.648 597.823 862.531 599 868C594.231 871.732 582.464 881.481 577.865 884.925C570.904 886.11 563.871 888.579 556.999 888.19C545.482 887.539 536.944 880.943 533.005 869.933C528.982 858.688 531.303 848.284 539.42 839.338C539.868 838.845 540.319 838.354 541.279 837.47C545.358 835.105 548.928 833.132 552.497 831.159L565.43 829.641C560.246 825.807 555.828 822.485 551.354 819.24C505.728 786.146 460.095 753.061 414.457 719.983C407.862 715.203 401.262 710.426 394.578 705.772C393.527 705.04 392.017 704.969 390.411 704.688C388.789 697.202 387.474 689.62 386.156 681.628C387.851 681.804 389.821 682.018 391.211 683.029C438.226 717.196 485.135 751.509 532.177 785.639C551.966 799.996 572.017 813.99 591.669 827.951Z" fill="#F5D076"/>
<path d="M658.823 831.258C655.092 830.768 651.361 830.278 646.798 829.679C704.686 787.65 761.964 746.064 819.681 704.159C819.859 705.533 819.975 706.427 820.088 707.677C819.02 714.948 818.053 721.881 816.801 728.762C816.564 730.063 815.195 731.157 813.93 732.586C811.84 733.64 810.075 734.309 808.509 735.294C786.915 748.876 765.327 762.466 743.783 776.127C725.597 787.658 707.421 799.209 689.335 810.897C679.067 817.533 668.988 824.461 658.823 831.258Z" fill="#F5D076"/>
<path d="M659.093 831.483C668.988 824.462 679.067 817.533 689.335 810.897C707.421 799.209 725.597 787.659 743.783 776.127C765.327 762.466 786.915 748.876 808.509 735.294C810.075 734.309 812.029 733.221 814 732.5C814.578 733.079 814.886 734.13 815 735C815 735.5 814.854 735.248 815 735.5C815 735.5 814.921 736.33 815.02 735.966C815 737 814.723 738.187 814.098 738.606C792.784 752.9 771.247 766.865 750.091 781.388C723.982 799.311 698.184 817.688 672.245 835.859C671.703 836.239 671.081 836.504 670.176 836.978C666.358 835.325 662.86 833.516 659.093 831.483Z" fill="#F5D076"/>
<path fill-rule="evenodd" clip-rule="evenodd" d="M334.896 883.46C334.062 885.463 333.228 887.465 332.394 889.469C333.225 887.473 334.056 885.477 334.887 883.483L334.896 883.46ZM534.25 844.748C535.434 843.571 536.623 842.39 537.786 841.256C538.302 840.61 538.846 839.971 539.42 839.339L539.516 839.233M534.25 844.748C528.197 850.761 522.267 856.652 520.5 855.5ZM520.5 855.5C509.493 848.319 503.089 842.326 496.718 836.363ZM496.718 836.363C490.225 830.287 483.765 824.241 472.5 817ZM472.5 817C465.026 812.195 459.376 808.196 454.005 804.334ZM429.5 787.5C438.727 793.325 445.178 797.974 451.715 802.685C452.476 803.233 453.237 803.782 454.005 804.334M429.5 787.5C425.971 785.272 421.916 782.548 417.811 779.781ZM416.989 779.227C412.849 776.436 408.69 773.632 405 771.281ZM405 771.281C404.655 772.377 402.451 761.466 400.473 751.676ZM400.473 751.676C398.864 743.711 397.405 736.488 397.22 737.079ZM397.22 737.079C401.81 740.201 406.391 743.31 410.963 746.411ZM447.476 771.281C436.008 763.401 424.494 755.59 412.922 747.74C412.269 747.297 411.616 746.854 410.963 746.411M447.476 771.281C476.466 791.2 505.412 811.183 534.32 831.221ZM534.32 831.221C536.737 832.896 538.755 835.147 540.78 837.404ZM540.945 837.589L540.78 837.404ZM540.945 837.589C540.364 838.299 539.933 838.774 539.516 839.233ZM577.087 889.202C577.125 889.188 577.139 889.182 577.142 889.183C577.139 889.182 577.128 889.187 577.099 889.198C577.095 889.199 577.091 889.201 577.087 889.202Z" fill="#F5D076"/>
<path d="M332.306 913.412L324.875 907.522C328.221 899.488 331.56 891.469 334.896 883.46C342.515 865.166 350.112 846.926 357.712 828.687C362.833 816.4 367.955 804.114 373.077 791.828C380.565 773.867 388.053 755.905 395.536 737.941C396.626 735.323 396.378 733.091 395.445 730.116C393.865 725.077 392.981 719.82 392.097 714.562C391.725 712.35 391.353 710.138 390.929 707.942C390.887 707.723 390.832 707.507 390.776 707.282C390.625 706.682 390.459 706.02 390.467 705.088C392.017 704.969 393.527 705.041 394.578 705.772C401.262 710.427 407.862 715.203 414.457 719.983C460.095 753.061 505.728 786.146 551.354 819.24C554.364 821.423 557.349 823.641 560.558 826.027C562.119 827.187 563.734 828.387 565.43 829.641C562.912 829.937 559.916 830.773 557.015 831.584C554.039 832.415 551.162 833.219 549 833.383C547.373 832.328 542.818 836.351 537.786 841.256C538.302 840.61 538.846 839.971 539.42 839.339L539.516 839.233C539.933 838.774 540.364 838.299 540.945 837.589L540.78 837.404C538.755 835.147 536.737 832.896 534.32 831.221C505.412 811.183 476.466 791.2 447.476 771.281C436.008 763.401 424.494 755.59 412.922 747.74C407.7 744.197 402.466 740.647 397.22 737.079C397.405 736.488 398.864 743.711 400.473 751.676C402.451 761.466 404.655 772.377 405 771.281C408.69 773.632 412.849 776.436 416.989 779.227C421.372 782.182 425.735 785.124 429.5 787.5C438.727 793.325 445.178 797.974 451.715 802.685C457.799 807.07 463.958 811.509 472.5 817C483.765 824.241 490.225 830.287 496.718 836.363C503.089 842.326 509.493 848.319 520.5 855.5C522.267 856.652 528.197 850.761 534.25 844.748C535.434 843.571 536.623 842.39 537.786 841.256C531.006 849.758 529.266 859.482 533.005 869.933C536.944 880.943 545.482 887.539 556.999 888.191C561.441 888.442 565.909 886.96 570.5 886C573.012 885.475 575.436 884.843 578 884.5C578.507 885.633 580.024 887.18 580.189 888.063C581.146 886.988 579.025 888.063 579.025 888.063C580 887.5 580.239 888.494 580 888.5C579.479 888.789 578.332 888.999 578 889.257C577.853 889.372 577.276 889.155 577.132 889.257C577.109 889.218 577.145 889.187 577.142 889.183C577.14 889.18 577.632 889.952 577.5 890C577.04 890.435 577 891 576.008 890.597L576 891C575.529 891.438 575.204 891.516 574.893 891.958C574.508 892.507 574.135 893.038 573.5 893.5C573.368 893.618 573.248 893.71 573.136 893.794C572.877 893.991 572.669 894.149 572.5 894.5C572.321 895.019 571.599 895.358 571 895.5C570.719 895.736 570.818 895.781 570.919 895.827C570.992 895.86 571.067 895.893 571 896C571.859 896.354 570.881 897.025 570.5 897C570.312 897.219 570.158 897.415 570.017 897.594C569.528 898.218 569.198 898.638 568.147 899.119C568.15 899.062 568.219 899.152 567.849 899.119L567.768 899.168C564.642 901.067 561.739 902.831 559.149 904.973C552.025 910.864 545.035 916.918 537.855 923.218C524.086 935.186 510.455 946.843 496.519 958.671C492.44 962.05 488.382 965.418 484.336 968.777C473.779 977.539 463.287 986.249 452.599 995.008C450.531 994.216 448.707 993.51 447.152 992.422C431.759 981.652 416.374 970.873 400.988 960.093C379.862 945.292 358.735 930.49 337.591 915.713C336.538 914.977 335.286 914.525 334.035 914.073C333.452 913.862 332.869 913.652 332.306 913.412ZM436.796 875.804L454.171 882.429L455.059 880.665C453.544 879.126 452.035 877.582 450.526 876.037C446.728 872.15 442.931 868.264 439.039 864.474C437.001 862.49 436.125 860.859 436.606 857.647C437.427 852.158 437.637 846.387 436.899 840.897C435.571 831.016 432.376 821.63 426.695 813.097C422.123 819.071 415.195 835.325 416.31 843.027C418.461 857.872 412.222 868.037 401.194 876.489C400.282 877.189 399.482 878.091 398.81 879.027C398.547 879.393 398.421 879.856 398.213 880.62C398.092 881.064 397.944 881.61 397.725 882.297L420.261 874.027L425.639 891.727L426.788 891.765L432.473 873.859C434.032 874.557 435.074 875.024 436.796 875.804ZM410.188 896.995C407.225 895.041 404.262 893.087 401.883 890.579C397.092 885.528 393.776 884.711 387.079 889.138C392.803 900.475 400.874 909.061 413.421 912.902L416.115 907.721L425.588 922.236L432.926 909.026C433.799 909.528 434.643 910.138 435.434 910.711C436.995 911.841 438.351 912.823 439.327 912.531C451.719 908.822 460.512 900.778 466.129 889.099C457.745 884.89 456.304 885.305 450.969 891.3C448.693 893.858 445.781 895.903 442.941 897.899C442.8 897.998 442.66 898.096 442.52 898.195C439.051 900.634 435.362 902.634 431.845 897.685L425.442 909.484L420.197 899.949C418.058 899.949 416.439 899.949 414.102 899.66C412.832 898.739 411.51 897.867 410.188 896.995ZM382.996 876.103L385.492 886.15C392.386 882.982 394.576 879.784 393.97 873.763C392.561 859.766 396.445 847.506 408.386 839.824C413.061 836.816 413.912 833.094 414.859 828.955C415.236 827.31 415.627 825.599 416.28 823.841C403.421 827.788 394.551 834.704 388.341 845.235C382.815 854.606 382.352 864.77 382.996 876.103ZM451.091 830.325L437.739 823.632C437.929 824.996 438.075 826.213 438.209 827.326C438.49 829.675 438.716 831.56 439.186 833.383C439.599 834.981 440.478 836.98 441.772 837.752C456.657 846.622 461.411 859.817 458.813 876.361C458.632 877.516 458.747 879.03 459.367 879.939C460.686 881.874 462.166 883.698 463.764 885.666C464.413 886.466 465.081 887.29 465.766 888.154C475.17 871.13 470.918 844.301 451.091 830.325Z" fill="#F5D076"/>
<path d="M633.899 889.406C636.936 892.817 639.568 895.538 643 899.5C645.356 904.854 647.721 910.347 649.714 915.572C653.908 939.871 637.701 961.911 618 967.5C621.102 962.115 621.984 956.236 620.5 950.5C639.697 937.117 640.887 911.392 622.174 899.565C619.365 898.131 616.782 896.974 614.203 895.361C614.217 890.278 613.819 885.092 614.203 880.5C620.473 882.958 626.778 885.935 632.674 888.355C632.674 888.355 632.83 888.285 632.854 888.513C633.218 888.962 633.558 889.184 633.899 889.406Z" fill="#F5D076"/>
<path d="M670.5 922C670.367 924.774 670.471 927.849 670.15 930.706C670.133 931.12 668.877 931.094 668.5 931C664.231 927.118 660.77 922.879 656.681 919.317C654.667 917.562 651.853 916.866 649.5 915.5C647.539 910.697 645.12 904.646 643 899.5C646.308 901.315 650.743 903.986 653.813 906.609C659.427 911.405 664.964 916.581 670.5 922Z" fill="#F5D076"/>
<path d="M634 889C628 887.031 620.313 883.398 614 880.5C613.521 877.98 614.028 876.054 614.013 873.619C614.105 872.178 613.953 870.549 614 869.5C614 869.5 614.648 869.765 615 870C616.507 871.145 617.6 872.365 618.756 873.275C623.408 876.917 629.636 881.612 634.5 885.5C634.626 886.666 634.189 887.628 634 889Z" fill="#F5D076"/>
<path d="M436.454 875.646C435.073 875.023 434.034 874.558 432.473 873.859C430.508 880.048 428.648 885.907 426.788 891.765C426.405 891.752 426.022 891.74 425.639 891.727C423.885 885.953 422.13 880.179 420.261 874.026C413.001 876.69 405.827 879.323 397.725 882.297C398.321 880.427 398.395 879.605 398.81 879.027C399.482 878.09 400.282 877.188 401.194 876.489C412.222 868.037 418.461 857.871 416.311 843.026C415.195 835.325 422.123 819.07 426.695 813.097C432.377 821.63 435.571 831.016 436.899 840.896C437.637 846.387 437.427 852.158 436.606 857.647C436.125 860.859 437.001 862.49 439.039 864.474C444.478 869.77 449.732 875.255 455.059 880.664C454.763 881.253 454.467 881.841 454.171 882.429C448.379 880.22 442.588 878.012 436.454 875.646ZM429.006 849.346C428.52 846.897 428.034 844.447 427.367 841.088C423.106 847.355 423.124 850.784 427.123 855.977C427.834 853.775 428.416 851.971 429.006 849.346Z" fill="#F5D076"/>
<path d="M552.142 831.023C548.928 833.132 545.359 835.105 541.455 837.196C538.864 835.269 536.802 832.942 534.32 831.221C505.412 811.183 476.466 791.2 447.476 771.28C430.833 759.845 414.091 748.553 397.22 737.078C397.634 735.762 398.073 734.367 398.699 732.379C406.297 737.22 413.581 741.899 420.901 746.52C438.716 757.766 456.63 768.855 474.351 780.246C496.671 794.594 518.844 809.173 541.068 823.671C544.675 826.024 548.216 828.479 552.142 831.023Z" fill="#F5D076"/>
<path d="M573.119 893.054C574.029 892.329 574.938 891.604 576.256 890.493C576.862 889.786 577.059 889.464 577.257 889.142C577.257 889.142 577.088 889.182 577.427 889.204C578.212 888.847 578.659 888.469 579.105 888.09C579.105 888.09 578.989 888.04 579.371 887.958C585.205 885.723 590.658 883.57 596.253 881.769C596.512 886.67 597.233 890.902 597 895.5C584.448 900.035 576.425 908.949 575.169 921.922C573.97 934.301 580.446 943.528 591 950.5C589.031 956.24 590.484 962.511 592 967.5C583.952 964.386 576.028 959.011 570.672 952.583C561.491 941.564 559.448 928.836 561.451 914.792C563.825 909.373 566.022 904.263 568.219 899.152C568.219 899.152 568.15 899.062 568.424 898.969C569.228 897.987 569.758 897.098 570.288 896.209C570.288 896.209 570.192 896.088 570.425 896.073C570.861 895.731 571.064 895.404 571.267 895.077C571.592 895.03 571.822 894.857 572.236 894.223C572.715 893.61 572.917 893.332 573.119 893.054Z" fill="#F5D076"/>
<path d="M414.461 899.805C416.439 899.949 418.058 899.949 420.197 899.949C421.614 902.525 423.265 905.528 425.442 909.484C427.756 905.22 429.664 901.705 431.845 897.685C435.362 902.633 439.051 900.634 442.52 898.194C445.492 896.104 448.58 893.984 450.969 891.3C456.304 885.305 457.745 884.89 466.129 889.099C460.512 900.778 451.719 908.822 439.327 912.531C437.857 912.971 435.521 910.518 432.926 909.025C430.928 912.622 428.413 917.15 425.588 922.236C422.359 917.287 419.417 912.779 416.115 907.72C415.114 909.647 414.395 911.028 413.421 912.902C400.874 909.061 392.803 900.475 387.079 889.138C393.776 884.711 397.092 885.528 401.883 890.578C405.324 894.205 409.985 896.674 414.461 899.805Z" fill="#F5D076"/>
<path d="M382.982 875.643C382.352 864.77 382.815 854.606 388.341 845.234C394.551 834.704 403.421 827.788 416.28 823.84C413.985 830.021 414.919 835.62 408.386 839.823C396.445 847.505 392.561 859.765 393.97 873.763C394.576 879.784 392.386 882.982 385.492 886.15C384.642 882.727 383.819 879.415 382.982 875.643Z" fill="#F5D076"/>
<path d="M451.389 830.53C470.918 844.3 475.17 871.129 465.767 888.154C463.396 885.162 461.222 882.659 459.367 879.939C458.747 879.03 458.632 877.516 458.813 876.361C461.411 859.817 456.657 846.622 441.772 837.751C440.478 836.98 439.599 834.981 439.186 833.382C438.493 830.697 438.331 827.875 437.739 823.631C442.784 826.16 446.937 828.242 451.389 830.53Z" fill="#F5D076"/>
<path d="M568.5 898.5C566.673 903.64 564.241 909.589 561.5 915C553.406 920.69 544.5 935.5 541.926 935C541.531 933.453 541.137 931.905 540.61 929.647C539.649 926.92 538.82 924.903 537.992 922.887C545.035 916.902 552.025 910.854 559.149 904.968C561.762 902.809 565.344 900.416 568.5 898.5Z" fill="#F5D076"/>
<path d="M596.623 882C591.17 884.153 585.205 885.724 579.425 887.993C578.879 887.191 578.007 886.133 577.5 885C581.811 881.34 585.929 877.878 591 874C592.668 872.468 594.874 870.994 596.5 869.5C596.67 871.663 596.904 873.604 596.97 875.424C596.654 877.697 596.895 880.14 596.623 882Z" fill="#F5D076"/>
<path d="M656.14 847.919C662.563 851.181 665.526 857.706 663.412 863.932C661.29 870.182 654.448 874.615 648.018 872.605C642.49 870.878 636.865 867.221 631.5 863.932C632.07 862.416 633.197 861.565 634.086 861.026C641.398 856.593 648.779 852.273 656.14 847.919Z" fill="#F5D076"/>
<path d="M587.937 857.539C585.485 859.597 583.055 861.955 580 864C571.462 858.681 563.505 853.076 555.569 847.77C563.381 843.93 570.718 847.616 578.589 849.246C581.488 850.19 584.067 850.917 586.449 852.055C587.742 852.672 588.7 853.988 589.576 855.49C588.874 856.507 588.406 857.023 587.937 857.539Z" fill="#F5D076"/>
<path d="M655.85 847.658C648.779 852.273 641.398 856.592 634.086 861.025C633.197 861.564 632.677 862.712 631.928 863.953C629.441 862.249 627.012 860.171 624.101 857.725C623.029 856.922 622.438 856.486 621.847 856.05C621.847 855.29 621.847 854.53 622.242 853.353C623.772 852.417 624.908 851.899 626.044 851.381C630.83 850.029 635.544 848.132 640.424 847.478C645.384 846.813 650.508 847.374 655.85 847.658Z" fill="#F5D076"/>
<path d="M555.239 847.821C563.505 853.076 571.44 858.382 579.673 863.839C574.837 866.893 569.973 870.546 564.503 872.507C557.827 874.899 550.238 870.467 547.906 864.066C545.614 857.772 548.304 851.553 555.239 847.821Z" fill="#F5D076"/>
<path d="M596.253 868.5C601.709 867.854 608.424 868.883 614.195 868.5C614.615 870.392 614.09 878.097 614.195 880.579C614.227 885.648 614.217 890.278 614.155 895.842C614.148 901.497 614.192 906.216 614.174 911.404C614.095 919.194 614.523 926.551 613.937 933.826C613.373 940.827 614.969 946.405 620.968 950.373C622.749 955.908 622.328 961.219 619.225 966.604C618.849 967.189 618.604 967.442 617.667 967.839C609.033 967.964 600.94 968.02 593 968C592.456 967.716 591.781 967.474 591 967C588.908 961.748 587.899 956.527 590.178 950.59C592.633 947.07 596.54 944.203 596.655 941.192C597.231 926.072 596.816 910.915 596.749 895.771C596.631 891.22 596.512 886.67 596.253 881.769C596.383 879.557 595.937 870.773 596.253 868.5Z" fill="#F5D076"/>
<path d="M621 950.5C614.704 946.733 613.373 940.827 613.937 933.826C614.523 926.551 613.647 919.454 614 911.5C616.876 907.278 619.962 903.089 622.5 899.5C640.986 911.051 640.197 937.117 621 950.5Z" fill="#F5D076"/>
<path d="M622.5 899.5C620.188 903.365 616.813 907.747 614 911.5C613.681 906.945 613.996 900.201 614 895C616.631 895.676 619.691 898.066 622.5 899.5Z" fill="#F5D076"/>
<path d="M429.002 849.756C428.416 851.971 427.834 853.775 427.123 855.977C423.124 850.784 423.106 847.355 427.367 841.088C428.033 844.447 428.52 846.897 429.002 849.756Z" fill="#F5D076"/>
<path d="M597 895.5C597.418 910.596 597.231 926.072 596.655 941.192C596.54 944.203 592.968 947.37 590.5 950.5C579.649 944.115 573.97 934.301 575.169 921.922C576.425 908.949 584.448 900.035 597 895.5Z" fill="#F5D076"/>
<path d="M618 967.5C624.555 974.289 626.552 985.537 628.414 994.224C631.323 1007.8 633.732 1021.49 636.291 1035.14C636.525 1036.38 637.028 1038.36 637 1040C629 1040 629.073 1040 620.294 1039.68C619.008 1027.51 618.142 1015.6 617.215 1004.08C616.722 1004.12 616.228 1004.16 615.734 1004.2C616.516 1016.02 617.298 1027.85 618.08 1039.68C609.938 1039.87 601.797 1040.05 593.308 1039.57C593.654 1029.36 594.346 1019.82 595.039 1010.27C594.682 1010.24 594.325 1010.21 593.968 1010.18C592.675 1019.98 591.382 1029.79 590.088 1039.59C585.238 1039.74 580.388 1039.9 575.148 1039.86C576.691 1028.39 578.301 1017.05 580.656 1005.86C582.734 995.984 585.508 986.246 588.283 976.536C588.937 974.245 590.976 969.737 593 967.5C606.5 967.5 606.5 967.5 618 967.5Z" fill="#F5D076"/>
<path d="M397 737L471.5 786L542.5 837L533 847.5L520.5 855.5L405 772L397 737Z" fill="#F5D076"/>
</svg>
